<svg width="130" height="100" viewBox="0 0 130 100" fill="none" xmlns="http://www.w3.org/2000/svg">
<path d="M46.8902 26.7395C47.0979 26.9473 47.3057 27.155 47.5134 27.3627C48.4741 27.908 48.7857 28.8687 49.1232 29.8035C49.5127 31.2056 50.9668 32.1923 50.6033 33.88C50.4994 34.1657 50.3436 34.4253 50.1099 34.6071C47.4355 34.1397 44.6572 33.906 43.6964 31.7509C44.4235 32.7635 46.6046 34.3474 43.7743 36.4766C43.0213 35.8794 42.9175 34.8408 42.2164 34.2176C42.9175 34.9446 43.0733 36.0352 43.9561 36.6064C47.825 39.3588 49.6426 43.1238 49.4608 47.8495C48.1885 50.0825 47.1499 48.7323 46.4748 47.486C44.2417 43.2017 41.3595 39.2809 39.4121 34.8408C38.8149 33.4906 38.3995 32.0884 36.9454 31.2056C35.6212 30.4007 36.2184 28.8687 36.1145 27.6224C36.0107 26.6357 35.8289 25.5192 34.7124 25.3374C33.0765 25.0518 34.0113 26.5058 33.7517 27.129C33.1025 28.6869 32.2976 29.3621 31.0772 27.7003C30.4021 26.7655 29.6751 26.0644 28.4547 26.1943C27.7796 25.9086 27.6238 25.3114 27.5459 24.6623C27.6757 22.2994 28.9999 20.2482 29.1817 17.8593C29.3115 16.1975 30.48 15.7042 31.9341 16.6389C32.9208 17.2621 34.0113 17.6776 34.8422 18.5864C37.5686 21.5205 40.9701 23.5717 44.6312 25.1037C45.5659 25.4932 46.267 26.0385 46.9162 26.7395H46.8902Z" fill="#E2DEDB"/>
<path d="M65.0925 5.42276C66.0273 3.78694 67.3775 2.56656 68.9094 1.50197C75.271 1.19039 74.9075 2.30691 76.777 7.86353C77.3223 9.52532 77.6598 10.9794 79.036 12.1478C79.8669 12.8749 79.9967 13.7837 79.0879 14.6405C78.8543 14.7444 78.6206 14.7963 78.3609 14.7963C78.3609 15.056 77.53 13.9654 77.9714 15.03C78.1012 15.2897 78.2311 15.5493 78.3349 15.8349C79.7111 18.4834 77.2963 20.1712 76.4135 22.0926C75.7903 23.4428 73.7131 21.5214 72.285 22.1705C71.2463 22.4821 70.753 24.1179 69.2989 23.4169C69.0133 23.0274 68.9095 22.6119 68.8835 22.1446C68.8835 20.9761 69.5326 20.0154 70.3895 19.3922C72.3888 17.9641 72.1811 16.6139 70.5193 15.1858C70.5972 18.4575 69.1172 20.0673 65.8715 20.0413C63.8462 20.0413 62.5998 19.0806 63.0932 16.7697C63.8981 15.4974 64.5213 14.1212 65.482 12.9528C65.6897 12.7191 66.209 12.4854 66.1052 12.3036C63.8722 8.87618 67.0919 7.81159 68.9094 5.94207C67.3515 7.00666 65.9234 7.78563 65.0925 5.3968V5.42276Z" fill="#DFDAD8"/>
<path d="M78.5939 14.4323C79.1652 13.9649 79.4768 13.3417 78.8276 12.8224C77.2178 11.4981 74.751 10.6932 76.3349 7.75911C76.5427 7.34367 75.7637 7.00612 75.1665 7.08401C74.7251 7.13594 74.05 6.7205 74.4135 6.51277C77.5293 4.92888 73.4787 4.51343 73.8682 3.24112C74.05 2.61794 73.4527 1.55336 72.1025 2.7997C71.0639 3.76043 70.3109 1.16388 68.8828 1.50143C69.0905 1.2937 69.2983 1.06001 69.506 0.85229C70.7264 0.255083 71.9727 -0.316158 73.3749 0.203152C75.2444 0.982118 77.3736 0.48877 79.1911 1.52739C80.5154 3.60463 82.9042 4.85098 83.7091 7.34367C84.3323 7.57736 84.7737 8.01877 85.0074 8.64194L85.6565 9.29108C86.2537 10.1999 87.0067 10.9788 87.6039 11.8876C88.0194 12.7705 88.6685 13.3936 89.5254 13.835C89.9928 15.6786 89.7851 17.5481 89.7851 19.4176C88.4348 20.7159 87.5001 20.0408 86.8769 18.6646C86.4874 17.8078 86.3576 16.8211 85.5267 16.1979C85.3709 15.4189 85.0853 14.64 85.3709 14.2765C85.3709 14.7698 85.0853 15.6267 85.7085 16.4576C86.1759 17.2365 86.2538 18.1453 86.098 18.9762C85.8383 20.2745 85.5267 21.7805 83.6312 20.4822C82.9561 20.0148 82.1512 20.2745 81.4501 19.9889C79.4248 19.158 79.3729 17.9636 81.3203 16.4316C80.5673 15.6267 79.7104 16.9249 78.9834 16.3277C78.3602 15.8084 77.8669 15.2631 78.568 14.4582L78.5939 14.4323Z" fill="#E7E3E2"/>
<path d="M119.983 53.8726C119.983 54.4958 119.983 55.1449 119.983 55.7681C118.893 57.1702 118.036 58.832 116.296 59.6629C114.011 61.091 111.908 62.7788 109.675 64.2329C108.637 64.7781 107.598 65.1676 106.793 63.8434C108.325 60.338 109.675 56.7288 112.765 54.1842C113.959 53.1975 114.349 52.0291 113.985 50.4971C113.129 46.9139 113.18 46.9139 116.816 46.5503C117.127 46.5244 117.465 46.4724 117.776 46.4205C118.815 46.1609 119.776 45.1742 120.892 46.2128C121.1 46.8619 121.256 47.537 120.918 48.2121C120.165 50.0297 121.334 52.1329 120.009 53.8467L119.983 53.8726Z" fill="#D2CDC9"/>
<path d="M61.1198 96.5865C61.1198 96.7942 61.0939 97.002 61.0679 97.2097C60.237 97.2097 59.4061 97.2097 58.5752 97.2097C57.5885 96.4567 56.2903 97.3136 55.3036 96.5865C55.0959 96.5606 54.9141 96.5346 54.7064 96.5606C53.4081 95.7297 51.3309 96.0932 50.7856 94.0679C50.2663 93.7563 50.1364 93.2629 50.0845 92.7177C49.6431 92.1724 49.4354 91.5232 49.4873 90.8222C49.9807 89.2902 49.5912 87.4986 50.8115 86.2003C51.3049 85.9926 51.6944 86.1484 52.0319 86.4859C52.5512 87.4986 52.5772 88.6411 52.9407 89.6797C52.4733 90.952 51.7723 92.2762 53.5639 93.1331C56.2124 90.3808 58.1078 87.187 59.4321 83.6297C59.8475 82.7988 60.3668 82.0458 60.7044 81.189C61.2237 79.8907 62.0286 79.657 62.8855 80.9553C62.9894 82.4353 63.301 83.9413 62.1845 85.2136C59.8216 87.8621 59.3282 91.4194 57.6664 94.4054C60.263 92.0426 59.6398 88.2256 61.6392 85.5771C62.1065 85.3175 62.496 85.4992 62.8855 85.7849C64.5213 86.9793 64.8329 88.2776 63.6385 90.0951C62.3662 92.0426 61.6132 94.3016 61.1198 96.5865Z" fill="#D4D0CC"/>
<path d="M23.6252 66.2068C22.5606 66.1029 21.5999 65.8693 21.0806 64.8047C20.8209 64.1815 20.7171 63.5064 20.2497 63.0131C21.2104 61.9225 19.4188 61.8965 19.5226 61.1176C20.0939 59.7154 18.1465 58.6249 19.0293 57.1968C19.6265 56.8073 20.1458 57.0929 20.717 57.3006C22.0932 58.4172 25.0793 56.6255 25.313 59.8453C26.6372 59.2221 28.273 59.3519 29.4155 58.2614C29.7271 58.2094 30.0127 58.2614 30.2983 58.4691C30.8955 60.3905 32.2717 62.1822 31.4668 64.3892C31.311 64.6748 31.1292 64.9345 30.9215 65.1682C29.6492 66.1549 28.2211 66.804 26.6112 66.9338C26.1439 66.9858 25.7024 66.9598 25.235 66.9338C24.9235 66.9338 24.6378 66.8559 24.3522 66.7521C24.0926 66.5963 23.8329 66.4405 23.6252 66.2328V66.2068Z" fill="#9FA276"/>
<path d="M24.2742 78.4875C23.5212 77.5787 24.5338 77.5268 24.9233 77.1633C25.2609 76.8257 25.3388 76.3843 25.4426 75.9689C27.2343 71.5287 31.8561 70.8536 34.8681 74.5667C35.4653 75.2938 35.5432 75.9429 34.6604 76.3843C31.5186 77.9942 32.4014 79.604 34.6084 81.2398C34.7642 81.3437 34.7902 81.6034 34.8162 81.8371C34.3748 83.1094 33.4919 82.8757 32.5572 82.5122C31.0252 81.7332 29.4933 80.9283 28.0651 79.9416C26.1956 80.2532 27.416 81.7592 27.0265 82.642C27.0265 83.6027 27.0265 84.5894 26.4813 85.4463C25.6763 86.1214 25.3128 85.4463 24.9233 84.927C24.1703 82.8237 24.6637 80.6167 24.2742 78.4875Z" fill="#DDD8D6"/>
<path d="M10.0193 53.2759C8.56521 52.0036 7.42272 50.4976 6.79955 48.6541C6.25427 46.8365 7.31887 46.8365 8.43539 47.3298C9.78559 47.9011 10.954 48.3685 12.2263 47.1221C13.5246 45.8238 14.1218 48.1607 15.2643 47.8751C17.6012 46.8105 19.8862 47.4077 22.1971 47.953C22.5087 50.2639 20.6392 50.3159 19.2111 50.8352C18.8735 50.6274 18.6398 50.2639 18.2244 50.1601C18.2244 50.4976 18.6398 50.4976 18.6918 50.7832C17.3156 53.5356 14.7969 54.5482 12.0706 55.3012C10.5905 55.4311 10.7723 53.9251 10.0712 53.3019L10.0193 53.2759Z" fill="#A2A76A"/>
<path d="M109.572 84.1501C108.559 84.6434 107.521 85.1368 106.508 85.6561C105.755 85.9676 105.002 86.2013 104.353 85.4224C104.197 84.3578 104.872 83.6827 105.495 83.0076C106.845 80.5409 107.91 77.9703 108.559 75.2179C109.909 73.5561 110.585 71.4789 111.935 69.7911C112.22 69.7392 112.532 69.7392 112.818 69.8431C113.363 70.2325 113.077 70.9855 113.519 71.401C114.09 72.4396 114.038 73.5302 113.519 74.5947C113.103 76.1007 112.662 77.6068 112.246 79.1128C111.857 80.7486 112.013 82.6441 110.117 83.5529C109.935 83.7346 109.78 83.9423 109.598 84.1241L109.572 84.1501Z" fill="#B8B7AE"/>
<path d="M26.1959 85.6035C26.1959 84.513 26.1959 83.4484 26.1959 82.3579C26.5594 81.8645 26.871 81.3452 27.624 81.6308C29.6233 82.6435 30.9735 84.3312 32.2978 86.045C33.6999 87.3173 34.4789 89.1348 35.9849 90.3033C34.0375 92.2247 31.4409 92.5883 28.9483 93.1595C28.6107 93.0816 28.351 92.8739 28.1693 92.5883C27.7279 91.3419 27.3124 90.0956 26.871 88.8492C26.2998 87.8366 26.1699 86.746 26.1699 85.6035H26.1959Z" fill="#B9B3AA"/>
<path d="M65.0922 5.42134C65.9231 5.49924 66.4424 7.31683 67.4551 5.99259C67.9744 5.31749 68.1821 4.35676 69.2467 4.64238C69.766 4.77221 70.0517 5.49924 69.792 5.99259C69.2987 6.92735 69.4025 8.56317 67.6888 8.32948C65.6375 8.04386 66.6242 9.65372 66.2607 10.4327C65.4298 12.3022 67.4551 11.1857 67.8965 12.1464C65.6116 12.9773 65.1182 15.3661 63.7421 17.0539C62.4957 17.3395 61.4311 16.223 61.7946 15.6518C63.5084 12.7956 60.4444 12.1464 59.6914 10.4846C59.8472 9.05652 61.3013 10.0172 61.8466 9.31617C63.4045 8.43334 64.3133 6.97928 65.1182 5.44731L65.0922 5.42134Z" fill="#D9D4D2"/>
<path d="M15.2128 48.7067C13.7587 51.6149 14.1482 44.9937 12.3306 48.1874C11.266 50.0569 9.60421 48.9664 8.27997 47.9797C7.37118 47.3046 6.95574 47.6681 6.79995 48.6548C6.59222 48.4211 6.35853 48.2134 6.15081 47.9797C5.31991 46.6035 5.91713 45.6947 7.26734 45.0196C6.15082 44.6042 5.39782 45.8505 4.41113 45.3831C4.15148 44.9677 3.86583 44.5522 3.60618 44.1368C3.29459 43.5136 3.50232 42.9683 3.83987 42.449C5.29394 40.969 7.55295 41.5922 9.13684 40.4497C9.96774 40.216 10.6948 40.3718 11.3439 40.943C11.5516 41.2027 11.6295 41.4623 11.5257 41.748C10.513 43.981 11.7074 44.8379 13.7068 45.2014C15.1089 45.9803 15.7321 47.1228 15.2128 48.7067Z" fill="#C4C48C"/>
<path d="M89.577 19.5991C88.6423 17.6517 88.6423 15.7303 89.577 13.7828C90.0185 13.9906 90.4599 14.1983 90.8753 14.432C91.3167 15.6524 92.8227 15.4446 93.4719 16.3794C93.6796 16.5871 93.9133 16.8208 94.121 17.0285C94.9519 17.4959 95.601 18.145 96.0684 18.9759C96.2761 19.1837 96.5098 19.4174 96.7176 19.6251C97.2628 21.0272 98.8208 21.91 98.7169 23.6238C97.5484 24.2729 96.6656 23.5459 95.7568 23.0006C94.5884 21.962 93.2382 23.0006 92.0178 22.663C90.6935 22.0399 89.3433 21.4427 89.603 19.5991H89.577Z" fill="#F2F0EF"/>
<path d="M32.0124 99.1309C30.1948 99.2088 29.1302 98.3779 28.7927 96.5863C28.2734 95.8593 28.559 95.0543 28.5071 94.2754C30.5324 93.9118 32.5837 93.2627 34.2195 95.3659C34.583 95.8593 35.4399 95.4698 36.0371 95.314C37.621 94.8985 38.1662 93.1589 39.5684 92.4837C39.828 92.3799 40.1137 92.328 40.3993 92.3539C41.2302 92.4578 42.0611 92.6136 42.9179 92.4318C43.6709 92.276 44.398 92.0683 45.177 92.328C45.4885 92.4578 45.6703 92.6915 45.7741 93.029C45.7222 93.7561 45.2289 94.3792 44.6316 94.4571C40.0098 94.9764 36.816 99.2608 31.9865 99.1569L32.0124 99.1309Z" fill="#C7C7BC"/>
<path d="M54.0044 21.5469C54.0044 21.3392 54.0044 21.1315 54.0044 20.9237C54.3939 18.7946 55.069 16.7433 55.0431 14.5103C55.0431 12.7965 56.0816 11.6021 57.6136 10.8491C57.9512 10.8491 58.2368 10.9011 58.5224 11.0568C59.0158 12.2772 58.0031 13.0822 57.6656 14.0688C57.5877 14.2506 57.3799 14.5882 57.4319 14.6401C61.6383 18.483 55.4585 21.5209 56.575 25.1821C56.7568 25.7274 55.6403 26.5323 54.8094 26.8958C54.4978 26.9737 54.2121 26.8958 53.9784 26.6881C53.9784 26.4804 53.9784 26.2726 53.9784 26.0649C53.4591 24.5589 53.4851 23.0529 53.9784 21.5209L54.0044 21.5469Z" fill="#DDD8D6"/>
<path d="M121.204 37.7484C121.204 38.3716 121.23 38.9948 121.255 39.6179C121.074 39.8516 120.866 39.9555 120.58 39.9295C119.126 40.0334 118.685 41.3576 117.828 42.1885C117.594 42.3963 117.335 42.5261 117.023 42.604C115.231 42.4482 114.193 41.4615 113.907 39.6958C114.401 38.2418 115.439 37.0993 116.244 35.827C117.439 34.7884 116.893 32.9708 118.01 31.9062C118.243 32.1139 118.477 32.3216 118.737 32.5294C118.97 34.5287 120.684 35.8529 121.204 37.7225V37.7484Z" fill="#D4D0CC"/>
<path d="M118.011 31.9322C118.011 33.5161 118.582 35.2817 116.686 36.2944C114.609 36.8916 113.233 36.1905 112.688 34.0354C113.077 33.3343 113.83 33.5161 114.479 33.3603C113.57 32.8929 113.155 33.5939 112.636 33.9834C111.519 33.6199 111.182 32.8669 111.441 31.7504C112.532 30.6598 113.856 30.0626 115.388 29.9847C115.907 30.0367 116.349 30.2444 116.686 30.6339C117.387 30.7897 117.647 31.4128 117.985 31.9322H118.011Z" fill="#B1B290"/>
<path d="M123.852 27.3636C123.203 27.805 122.554 28.2205 121.879 28.6619C120.165 29.311 118.452 29.9861 116.712 30.6353C116.27 30.6353 115.855 30.6353 115.414 30.6353C115.206 30.3756 115.102 30.064 115.128 29.7265C117.906 26.8443 120.711 26.0913 123.826 27.3896L123.852 27.3636Z" fill="#CFCBC3"/>
<path d="M4.41076 45.3826C5.89945 44.2055 7.61315 44.4045 9.55191 45.9798C7.34484 45.4864 5.89078 45.6942 6.15043 48.0051C5.55323 47.1223 4.98197 46.2654 4.38477 45.3826H4.41076Z" fill="#D2D09F"/>
<path d="M129.668 23.468C128.786 23.8834 127.929 24.2989 127.046 24.7143C126.63 24.4287 126.007 24.6624 125.722 24.0912C126.189 23.6757 126.656 23.2603 127.124 22.8448C127.539 22.6111 127.955 22.3774 128.37 22.1437C128.682 21.7283 129.097 21.2609 129.565 21.6244C130.188 22.1178 130.084 22.8448 129.617 23.468H129.668Z" fill="#D7D7CF"/>
<path d="M19.1332 63.5841C19.4189 62.3637 18.3802 61.7925 17.835 60.9875C18.4841 60.4682 19.1073 60.4682 19.7045 61.0395C20.1718 61.5847 21.1066 62.0002 20.4056 62.9609C20.9249 63.5322 20.847 64.1294 20.4315 64.7266C19.7304 64.6746 19.4448 64.1034 19.1332 63.61V63.5841Z" fill="#B7B395"/>
<path d="M120.632 48.083C120.606 50.0044 120.58 51.9259 120.554 53.8473C120.372 53.8473 120.19 53.8473 119.983 53.8733C120.268 51.9518 119.36 49.8746 120.632 48.057V48.083Z" fill="#D4D0CC"/>
<path d="M20.4576 64.7269C20.4576 64.1297 20.4576 63.5584 20.4316 62.9612C21.0029 63.0132 21.7299 62.7535 21.9896 63.4546C22.2752 64.1816 21.2625 64.2855 21.0808 64.8048H20.7692L20.4576 64.7009V64.7269Z" fill="#999468"/>
<path d="M61.1192 96.5866C59.769 93.9382 61.8722 92.0686 62.8329 90.0953C63.6119 88.4854 63.9235 87.3948 62.4175 86.2264C62.4954 86.0187 62.5992 85.759 62.781 85.7331C64.7803 85.4215 65.793 84.5646 66.8836 82.4614C68.0001 80.3322 67.6106 78.7483 67.4807 76.8788C67.4288 76.5932 67.4288 76.3076 67.4029 76.0219C67.3769 75.0093 66.8576 74.1524 66.4941 73.2177C66.3383 72.8022 66.2604 72.3868 66.1825 71.9713C66.4421 70.9846 64.5726 69.8162 66.4421 68.9853C66.9874 68.9334 67.5067 69.0632 67.9481 69.4007C70.0773 71.0885 72.1286 78.3848 71.1938 80.9814C71.9988 81.3449 73.1932 80.7477 73.7125 81.9161C73.7125 82.7211 73.9721 83.526 73.4269 84.253C73.8163 86.9275 72.7518 88.6412 70.4928 90.277C67.4288 92.4841 65.3775 96.0933 61.1192 96.5347V96.5866Z" fill="#CEC9C5"/>
<path d="M73.4267 84.3048C73.4267 83.4219 73.4267 82.5651 73.4008 81.6822C71.7909 79.1895 72.9853 76.567 73.0632 73.9964C73.1411 72.2568 71.6611 70.6469 72.5958 68.8293C73.5566 68.2581 74.0499 68.9851 74.5952 69.5823C75.5819 72.1529 76.8282 74.6716 75.6338 77.5537C75.1664 78.6702 75.8415 79.4232 76.9321 79.6569C80.2037 80.4099 82.9561 82.643 86.4095 82.8507C87.7597 82.9286 88.2011 83.8114 88.253 85.0058C88.1492 86.5897 86.8769 86.9532 85.7344 87.4466C83.7091 86.5638 81.5539 85.8367 79.6584 84.7202C77.8409 83.6556 76.257 82.2015 74.4913 80.8773C73.4527 81.7861 74.725 83.4739 73.4267 84.2788V84.3048Z" fill="#D3CFCB"/>
<path d="M85.7088 87.4731C85.553 86.0191 87.838 86.4345 87.6303 84.9545C88.565 84.2015 89.3959 84.7208 90.2787 85.1103C90.9279 85.4738 91.551 85.8892 92.2002 86.2787C94.0697 87.4212 94.8227 86.6942 94.9525 84.7467C95.0823 84.4871 95.2901 84.2794 95.5497 84.1236C96.4326 83.9937 97.575 84.591 97.6789 82.8253C97.7308 81.7088 98.7694 81.1375 100.016 81.4491C100.509 81.6828 100.951 81.5789 101.496 81.4751C104.04 80.9817 104.352 81.3453 104.144 84.2534C102.457 85.6815 100.691 86.9798 98.5877 87.7847C97.6529 88.1482 99.2628 88.4079 98.6136 88.7454C94.2514 88.9012 89.8113 90.0177 85.7088 87.4731Z" fill="#CDC9C3"/>
<path d="M98.6135 88.7448C97.9125 88.4332 97.2114 88.1216 96.4844 87.81C99.4964 87.7321 100.976 84.5903 103.807 84.3047C104.014 84.5124 104.092 84.7461 104.04 85.0317C104.04 85.7068 104.326 86.4079 103.859 87.0311C102.456 88.6669 100.561 88.7708 98.6135 88.7708V88.7448Z" fill="#C6C1BA"/>
<path d="M103.859 87.0055C104.041 86.3045 103.08 85.6553 103.807 84.9543C104.041 84.7206 104.249 84.7206 104.456 84.9543C104.95 85.7332 105.755 85.5515 106.482 85.6294C105.599 86.0967 104.716 86.5382 103.833 87.0055H103.859Z" fill="#BFBCB5"/>
<path d="M28.7926 26.0649C28.9224 24.6628 29.8312 25.1561 30.3245 25.6235C31.0775 26.3246 31.6488 27.2593 32.2979 28.1162C33.0249 27.7267 33.4144 26.9477 33.1548 26.3246C32.7393 25.3638 32.2979 24.6368 33.752 24.2993C35.0503 23.9877 36.4784 24.1954 36.4524 25.6754C36.4005 29.752 39.2826 32.4524 40.8146 35.7501C42.7361 39.8786 45.2028 43.7734 47.4358 47.7721C47.7993 48.4212 48.2148 48.8107 48.8639 48.0577C49.1236 47.85 49.3832 47.85 49.6429 48.0577C49.6429 49.8753 49.9025 51.6929 47.0204 51.6409C45.9298 51.6409 46.7607 53.7961 45.4624 54.2375C43.2813 54.7568 42.788 53.121 42.1129 51.6669C42.2167 49.6416 44.0603 47.1749 42.8139 45.8766C41.6715 44.7082 39.8798 43.5137 38.1142 42.7867C35.4397 41.6702 35.3618 38.6322 33.7 36.6848C31.2333 33.8026 28.8445 30.6608 28.7666 26.5323C28.7666 26.3765 28.7666 26.2207 28.7926 26.0909V26.0649Z" fill="#DAD6D2"/>
<path d="M23.5739 47.4594C23.7297 46.1611 23.4701 44.785 24.1971 43.5906C26.4561 42.9674 25.5214 41.1498 25.4435 39.8515C25.1838 34.6065 26.2743 29.6211 28.1439 24.7656C28.1439 25.2849 28.2737 25.7782 28.793 26.0638C29.3123 28.219 29.0786 30.452 30.7145 32.5033C31.779 33.8535 30.0134 35.4893 29.0267 36.8136C28.1958 37.0732 27.3909 37.0992 26.6379 36.45C29.5201 41.2796 31.9868 46.4727 37.2578 49.3809C37.6213 49.6665 37.9069 49.9781 38.1666 50.3416C38.634 51.0686 39.2312 51.6918 39.9063 52.2371C40.114 52.4448 40.2957 52.7045 40.4256 52.9641C40.9189 54.0547 40.815 55.1193 39.8283 55.8463C38.7897 56.5993 37.7251 56.028 36.8423 55.4568C34.8949 54.1326 32.8436 52.9122 31.6233 50.809C30.4548 48.8096 28.6891 47.5893 26.3003 45.7976C27.2351 48.4461 28.7671 49.8223 29.7537 51.536C30.4548 52.7304 31.078 53.9508 28.9488 54.3663C28.2997 54.3663 27.7544 54.0806 27.2351 53.6911C25.8589 52.6785 24.6645 51.4841 23.6778 50.0819C23.1325 49.2251 22.8209 48.3423 23.5739 47.4335V47.4594Z" fill="#E5E2DF"/>
<path d="M49.4869 48.0565C49.2792 48.0565 49.0715 48.0565 48.8378 48.0565C48.8897 44.2136 47.4357 40.9938 44.8391 38.2155C44.3458 37.6702 43.6447 37.2808 43.6447 36.3979C44.7093 34.7361 44.7093 33.2821 42.9436 32.0617C42.0088 31.4126 41.5155 30.5297 42.0348 28.4785C43.9563 32.1136 47.2799 32.8926 50.1101 34.4765C51.0708 34.5544 51.5382 35.3333 52.3691 35.9825C51.6161 35.0477 50.8112 34.5024 50.1101 33.8273C50.6554 32.2175 47.7992 31.6982 48.8638 29.9066C49.0715 29.9066 49.2792 29.9066 49.461 29.9325C50.915 31.9059 52.6288 33.5677 54.5502 35.0737C55.5629 35.619 55.8485 36.5537 55.9004 37.5923C55.7186 39.4619 54.4723 40.7082 53.1221 41.6689C51.1228 43.097 50.188 44.9406 50.0322 47.2775C49.9024 47.5891 49.7206 47.8228 49.461 48.0305L49.4869 48.0565Z" fill="#DEDAD6"/>
<path d="M50.1357 33.8288C52.3688 33.8029 52.9919 35.5166 54.4201 37.49C51.9533 37.0226 51.0186 35.8022 50.1357 34.478C50.1357 34.2703 50.1357 34.0366 50.1357 33.8288Z" fill="#E7E3E1"/>
<path d="M43.6445 36.788C42.0087 35.4378 40.9441 34.3472 41.1518 32.0623C42.7097 33.4125 43.7484 34.5549 43.6445 36.788Z" fill="#DEDAD6"/>
<path d="M55.2516 33.153C54.6284 31.0498 54.6025 28.8946 54.6284 26.7395C55.3814 25.3114 57.4327 24.4026 55.667 22.1176C54.9919 21.2608 56.6797 19.8846 57.7962 19.3393C58.9647 18.7681 58.4973 17.8853 58.4194 17.1323C58.3156 16.2494 57.4587 16.5091 56.8874 16.2754C54.9141 15.4705 56.8095 14.6136 57.225 13.7827C58.3415 13.7827 58.1857 11.7314 59.6657 12.2507C59.458 11.7314 58.8089 11.6795 58.5492 11.1862L58.4713 11.1342C58.9128 10.9265 59.3542 10.7188 59.7696 10.511C61.5353 10.511 62.0027 13.0037 64.1578 12.3286C63.7423 14.1203 60.263 15.3666 63.6904 17.0024C63.4307 18.7681 64.4953 19.9106 65.9234 19.2614C67.2477 18.6642 70.3635 19.6769 69.6105 16.3273C69.3769 15.3147 69.7404 14.4578 70.3895 13.549C70.6232 13.8866 70.753 14.1462 70.9348 14.3799C72.311 16.1975 74.6738 17.9372 71.1165 19.9365C70.2856 20.4039 69.4807 21.0011 69.5067 22.1436C68.4421 23.6496 66.6505 24.4805 65.7936 26.1942C65.2743 26.6097 64.5213 27.1549 64.0799 26.9213C61.3795 25.4932 61.1718 28.5311 59.7177 29.2841C58.7829 29.7515 59.4061 30.6084 59.8475 31.1796C60.4447 31.9326 61.2496 32.5038 61.9767 33.0751C63.5086 33.1789 63.6125 27.9599 66.1312 32.0105C65.6378 35.1783 67.8968 36.0352 70.2337 36.7882C69.0912 39.4886 66.8063 38.5019 64.9627 38.1903C64.2357 38.0605 64.1578 37.4892 63.6385 38.5538C62.9893 39.93 61.4314 39.4366 60.1851 39.4107C59.3801 39.3587 58.6271 38.9952 58.4454 38.2682C57.9261 36.165 56.3162 34.7888 55.2256 33.0751L55.2516 33.153Z" fill="#D6D0CB"/>
<path d="M89.578 19.5991C90.2012 20.6897 91.0581 21.5725 92.1746 22.1957C90.9023 25.6751 87.8383 26.1165 84.7744 26.5839C83.4502 25.8568 81.7624 26.454 80.4641 25.5452C80.1525 24.7403 80.8017 24.1431 80.9574 23.4161C81.0873 22.7929 82.0221 21.962 80.7497 21.5985C79.6332 21.2609 80.1525 22.4034 79.841 22.8189C79.5294 23.2862 79.036 23.494 78.5686 23.7536C77.556 24.7403 76.5693 27.2849 75.4787 26.1944C74.2584 24.948 71.3502 24.3508 72.1032 21.5466C72.4667 21.3388 72.8302 20.9753 73.1678 21.0013C73.8429 21.0013 75.9721 21.0013 75.9461 20.8455C75.7384 19.1577 78.2051 19.3655 78.1272 17.7556C78.1012 17.0805 77.2444 16.4833 77.9195 15.7303C77.556 15.2889 77.556 14.8734 77.9195 14.432C78.1272 14.432 78.3609 14.432 78.5686 14.432C78.6465 15.0552 79.1399 16.1717 79.3995 15.8601C81.5806 13.2636 81.8663 16.0678 82.8529 16.9766C82.022 17.4959 80.3083 16.4573 80.3343 18.0152C80.3343 19.0798 81.9182 20.1704 82.6712 19.3135C84.0733 17.7037 84.0993 22.2217 85.3197 19.703C85.839 18.5865 84.6965 17.3661 85.7092 16.3535C86.7997 15.8601 87.6306 15.938 87.4229 17.3921C87.2151 19.1058 88.072 19.6251 89.578 19.5732V19.5991Z" fill="#E4DFDC"/>
<path d="M72.1291 21.546C73.0292 23.1559 74.215 23.7358 75.6864 23.2857C76.699 24.3503 74.5438 24.7398 75.141 25.7265C77.7376 26.3496 76.3355 23.1559 77.9453 22.8443C79.3475 23.3117 80.1005 24.0647 79.1657 25.5707C78.5425 26.4275 78.3348 27.5181 77.7636 28.4009C76.9846 29.5434 75.8941 31.1273 74.5958 30.6599C71.0385 29.3616 70.3374 32.2438 68.8314 34.0614C68.39 34.2691 67.9746 34.2432 67.5332 34.0095C66.7282 33.0747 66.8321 31.9842 67.4033 31.0754C68.1044 29.9588 67.9486 28.8943 67.689 27.7518C67.8707 26.1419 68.1044 24.558 69.5325 23.4934C70.675 23.2078 70.7269 21.4941 72.1291 21.546Z" fill="#E6E2E0"/>
<path d="M69.5324 23.4932C69.091 24.9992 68.6755 26.5052 68.2341 28.0112C67.8187 29.8548 66.1309 29.6471 64.8846 30.1664C62.7294 28.3488 65.3519 27.414 65.6635 26.0638C65.6635 23.4673 67.7927 22.9999 69.5583 22.1949C69.5583 22.6364 69.5583 23.0518 69.5583 23.4932H69.5324Z" fill="#DFDAD6"/>
<path d="M77.945 14.4319V15.7302C77.7113 15.2888 77.4257 14.8733 77.244 14.4059C77.1401 14.0944 76.7506 13.5491 77.3998 13.4712C77.8931 13.4193 77.8671 14.0424 77.9191 14.4319H77.945Z" fill="#E7E3E2"/>
<path d="M85.7607 16.5088C84.826 15.4442 85.1116 14.6393 85.1635 13.4968C86.0464 14.6133 85.553 15.5481 85.7607 16.5088Z" fill="#E4DFDC"/>
<path d="M114.141 39.6706C114.946 40.865 115.751 42.0854 117.387 42.2671C119.127 43.7991 118.711 45.5907 118.036 47.4343C116.686 47.5641 115.284 47.1227 113.959 47.7718C115.959 52.6014 115.491 53.7958 110.532 56.9896C110.298 57.1454 109.987 57.5608 110.039 57.7426C110.973 60.7026 108.013 61.6374 107.053 63.5848C106.403 64.3378 105.521 64.3378 104.69 64.1301C101.86 63.429 100.899 64.5455 101.418 67.2979C101.47 67.5835 101.236 67.8951 101.055 68.1547C100.561 68.726 100.016 69.2193 99.4188 69.6348C99.1331 69.7646 98.8475 69.8165 98.536 69.8165C97.5493 69.6088 96.8742 69.0376 96.5106 68.1028C96.4847 67.7912 96.5106 67.5056 96.6664 67.22C96.8741 66.9603 97.1857 66.8305 97.3935 66.5968C97.8349 66.1035 97.2896 66.2593 97.1079 66.2593C96.251 66.3112 95.3941 66.3372 94.5632 66.1035C93.6025 65.8438 92.9793 65.2726 93.4467 64.234C94.5113 61.8451 93.6804 59.716 93.2649 57.3271C92.9793 55.6653 93.4467 53.692 93.0312 51.8484C93.9141 49.8491 95.7057 50.0049 97.4194 50.0308C98.0166 50.0308 99.0293 50.4203 98.6398 51.0694C97.3675 53.1726 99.1072 54.6786 99.4188 56.4703C99.5746 57.3271 99.964 58.1061 98.8475 58.7812C100.821 58.6773 99.8862 57.5608 99.8602 56.7559C99.8083 55.4836 99.7044 53.8218 101.34 53.666C102.742 53.5362 103.911 54.5228 104.404 56.0288C104.82 57.2233 104.067 59.3005 106.014 59.3784C107.832 59.4563 108.013 57.3531 108.663 56.1068C109.727 54.0555 108.948 52.6793 106.663 52.0821C105.936 51.9003 105.209 51.7965 104.43 51.7965C103.677 51.7965 102.82 51.8484 102.483 51.0175C102.067 49.9529 102.924 49.4855 103.599 48.9922C105.728 47.4862 108.481 47.2525 110.558 45.6686C110.87 45.357 111.181 45.0714 111.571 44.8377C112.765 44.0847 114.271 43.4615 112.531 41.7738C112.142 41.0987 111.908 40.3716 111.934 39.5927C112.038 38.9176 112.376 38.4242 113.025 38.1386C113.933 38.2165 114.557 38.5541 114.271 39.6446L114.141 39.6706Z" fill="#E1DCD9"/>
<path d="M100.587 68.1282C101.002 67.4272 100.769 66.778 100.535 66.025C100.016 64.4152 101.599 62.8832 103.287 63.1429C104.534 63.3506 105.78 63.4544 107.026 63.5843C107.883 64.7527 108.766 63.9218 109.623 63.5843C110.791 64.3373 111.57 65.3759 111.882 66.7521C111.83 67.5051 111.596 68.2321 111.207 68.8812C110.558 69.6342 109.856 69.79 109.026 69.1149C108.402 70.2574 110.402 71.1402 109.337 72.2568C108.61 73.0098 107.649 73.0357 106.689 72.854C105.157 71.7634 103.884 70.3353 102.404 69.1669C101.729 68.9332 101.002 68.7514 100.561 68.1023L100.587 68.1282Z" fill="#DAD5D0"/>
<path d="M111.571 66.8295C111.103 65.635 109.571 65.1157 109.623 63.6097C111.623 61.87 113.674 60.1823 116.115 59.0917C112.765 62.0778 112.246 65.9207 112.869 70.0751C112.661 70.0751 112.454 70.0751 112.246 70.0751C111.259 69.1664 111.701 67.946 111.571 66.8554V66.8295Z" fill="#D2CECA"/>
<path d="M118.036 47.4085C117.828 45.6947 117.594 43.955 117.387 42.2413C118.218 42.0336 118.815 40.8651 119.905 41.5922C119.438 42.6308 119.672 43.5136 120.58 44.2147C120.58 44.8638 120.58 45.487 120.58 46.1361C119.464 46.0323 118.893 47.0709 117.984 47.4344L118.036 47.4085Z" fill="#D4D0CC"/>
<path d="M68.2339 75.8917C68.2339 76.0995 68.2339 76.3332 68.2339 76.5409C68.0002 78.4364 67.0654 79.8645 65.5594 81.0589C64.417 81.9677 63.4562 81.9677 62.4176 81.0589C61.8464 80.4098 61.2232 80.4097 61.353 81.3445C61.5348 82.7207 60.6519 83.1102 59.821 83.6554C58.9901 83.1361 59.5614 81.4224 57.3284 81.7859C55.2252 82.1235 56.8091 79.3711 56.082 78.2027C56.2119 76.2812 57.0947 74.8791 58.8863 74.1261C59.8989 73.8924 60.8077 74.0222 61.6386 75.1387C61.0674 72.3864 63.1706 71.7113 64.7285 70.6986C66.2086 69.7379 66.4942 71.0881 66.9356 72.0229C66.9356 72.4643 66.9356 72.8797 66.9356 73.3212C67.377 74.178 67.4809 75.1907 68.2339 75.9177V75.8917Z" fill="#DCD7D3"/>
<path d="M56.5757 78.4626C57.9 79.2156 56.4719 80.41 56.9393 81.2669C58.3414 82.0718 58.4972 79.0858 59.7436 80.3321C60.6264 81.189 59.5099 82.5392 59.8214 83.6557C59.6916 87.94 55.8747 90.4067 54.6283 94.1717C54.4466 94.717 53.7196 94.5093 53.356 94.0159C51.2009 92.7956 53.356 90.9261 52.7069 89.4979C51.3307 88.9267 51.4086 87.9919 52.0578 86.9014C51.8241 84.8501 52.0058 82.9546 54.0052 81.7083C54.9659 81.1111 55.0178 79.9167 55.4593 78.9819C55.7189 78.5924 56.0305 78.2808 56.5498 78.4626H56.5757Z" fill="#DFDAD8"/>
<path d="M62.4182 81.0588C65.7418 81.3185 66.7804 78.67 68.2345 76.5408C68.4422 78.0209 69.351 79.9423 68.7278 80.8511C67.6892 82.3831 66.8323 83.6035 67.1699 85.5249C67.2218 85.9144 66.5467 86.6674 65.4562 86.2C64.6253 85.8365 63.4309 85.6807 62.4182 86.2519C62.2105 86.0442 61.9768 85.8105 61.7691 85.6028C61.6133 85.473 61.5354 85.3172 61.5873 85.1614C61.6392 85.0056 61.6912 84.9537 61.7431 84.9537C62.548 83.7593 62.0807 82.3571 62.3922 81.0848L62.4182 81.0588Z" fill="#D8D3CE"/>
<path d="M61.7688 84.9539C61.7688 85.1616 61.7688 85.3953 61.7688 85.603C60.3926 88.5631 61.0677 92.1463 58.9126 94.9246C58.2635 95.7815 57.6143 96.171 56.8094 95.8074C55.7968 95.3401 56.4978 94.3534 56.7834 93.86C58.5231 90.9259 59.5358 87.5764 61.7688 84.9539Z" fill="#CEC9C4"/>
<path d="M55.9524 79.1126C56.0044 79.9954 56.0044 81.1119 55.3033 81.5014C53.1741 82.7218 52.9404 84.9808 52.0576 86.8763L51.4085 86.2271C50.6035 85.3443 51.2007 84.3057 51.0709 83.345C51.2786 82.0986 51.9278 81.1639 52.9924 80.5147C54.057 80.2031 54.5243 78.6971 55.9265 79.1126H55.9524Z" fill="#DCD7D3"/>
<path d="M51.4343 83.6307C52.5768 84.4876 51.2266 85.3704 51.4343 86.2273C50.188 87.4996 51.2785 89.447 50.162 90.7713C49.7206 90.7453 49.3051 90.6934 48.8637 90.6674C48.3963 90.5376 48.0588 90.3039 48.0068 89.7846C48.6819 88.2007 48.8378 86.5129 49.2272 84.8511C49.2272 84.5655 49.3571 84.3058 49.5128 84.0721C50.1101 83.6307 50.7073 83.2413 51.4603 83.6567L51.4343 83.6307Z" fill="#BCB8AF"/>
<path d="M52.7072 89.4719C54.395 90.7702 52.0062 92.6657 53.3564 93.9899C50.7339 92.8215 51.3311 91.2116 52.7072 89.4719Z" fill="#DCD7D3"/>
<path d="M51.4346 83.63C50.7854 83.8637 50.1363 84.0715 49.4871 84.3051C47.2541 85.6034 45.9299 83.6041 44.346 82.7991C43.3333 82.2798 42.814 81.8903 41.4119 82.2798C39.3087 82.877 36.764 83.1107 34.6089 81.7086C34.4271 81.6047 34.1415 81.5528 34.0636 81.371C33.4145 80.0987 30.8439 80.9296 31.1295 79.5275C31.493 77.7618 32.272 75.6327 35.2321 75.6067C28.8705 72.335 27.78 72.4908 25.5469 76.5415C25.0536 73.088 23.8851 69.7385 24.2486 66.2072C24.4564 66.2072 24.6901 66.2072 24.8978 66.2072C25.3911 66.7525 25.9104 67.2977 26.2999 67.9209C26.4298 68.1806 26.5336 68.4662 26.5855 68.7778C26.7413 69.9981 26.6894 69.8683 27.5982 69.4269C30.0909 68.1806 32.7134 67.817 35.4398 68.5441C36.4784 68.8297 36.037 68.57 36.063 67.7391C36.063 65.9475 38.322 66.1553 39.1529 65.4542C36.5044 65.8177 33.7001 67.7651 30.5842 65.9735C30.5583 65.6359 30.6881 65.3763 30.9737 65.1945C33.1808 62.8057 35.9591 61.9488 39.1269 62.1306C40.6069 62.1306 42.1129 62.1306 43.541 62.6759C43.8526 62.7797 44.1382 62.8836 44.4239 63.0134C47.2801 63.6106 48.8899 66.4149 51.7721 67.0381C52.6289 67.2198 53.0704 68.3623 52.7069 69.4269C52.2395 70.829 53.7974 73.0361 55.5111 73.14C56.4719 73.1919 57.4585 72.8284 57.5884 74.2565C57.5364 74.7239 57.3287 75.0874 57.0431 75.4249C56.394 76.126 55.589 76.6713 55.1736 77.606C55.0438 77.8397 54.888 78.0734 54.7322 78.2811C54.1609 78.9043 54.0571 79.7092 53.8234 80.4622C53.6935 80.6959 53.5118 80.9037 53.33 81.1114C52.1875 81.5788 51.9279 82.7472 51.4086 83.682L51.4346 83.63Z" fill="#E5E0DF"/>
<path d="M19.0813 50.6274C20.1719 49.7706 21.6519 49.433 22.327 48.0828C22.4828 48.0309 22.6386 48.0049 22.7684 47.953C23.4954 48.4723 23.2098 49.459 23.7551 50.0562C26.7931 54.4444 25.9881 56.262 20.3536 57.768C19.9122 57.5602 19.4967 57.3266 19.0553 57.1188C18.9774 56.989 18.8995 56.8592 18.7957 56.7293C17.5233 56.8592 20.6911 55.3012 18.2763 55.5349C16.1731 55.7427 13.9142 56.7813 11.8369 55.2753C12.0187 54.704 12.0706 54.0549 13.0054 54.1328C15.0826 54.2886 15.9394 53.3538 15.1605 50.8352C16.6665 52.3671 17.809 52.8865 18.4062 50.6794C18.6139 50.4457 18.8216 50.4457 19.0293 50.6794L19.0813 50.6274Z" fill="#8C9052"/>
<path d="M27.4682 53.2753C27.8836 53.509 28.2991 53.7167 28.7145 53.9504C30.2984 54.7554 32.09 55.1189 33.596 56.0796C34.6347 56.7287 35.7512 56.7287 36.9456 56.7287C38.2698 56.7287 39.4123 57.1961 40.0095 58.4944C39.5941 60.3379 40.8404 60.0783 42.0089 60.2601C43.2812 60.4678 45.3584 59.2993 45.5142 61.9218C45.0988 62.2334 44.6314 62.3892 44.1381 62.4412C40.5029 62.1296 36.8937 62.2334 33.3883 63.3759C33.0767 63.324 32.7911 63.1682 32.5574 62.9605C32.0381 61.9478 34.0634 60.9352 32.5314 59.9485C31.5188 59.7407 30.636 59.3513 30.0647 58.4165C29.857 58.4165 29.6753 58.4165 29.4675 58.3905C27.1566 57.3259 26.7931 55.5084 27.4682 53.2753Z" fill="#B7B1A0"/>
<path d="M27.4685 53.2762C28.0137 55.0159 28.1176 56.9373 29.4678 58.3914C29.5457 61.7669 26.3 59.3002 25.0537 60.8062C24.5863 61.3774 24.1968 60.183 24.5084 59.2223C24.768 58.3914 23.7554 58.3654 23.1841 58.5212C22.0676 58.7809 21.1069 58.8588 20.3799 57.7942C21.5483 57.223 22.0417 55.8208 23.7294 55.717C25.8067 55.5871 24.2747 54.0032 24.3266 53.0425C24.4045 51.7702 23.9112 50.8095 22.9764 50.0305C23.3919 49.641 23.8333 49.667 24.2487 50.0305C25.3133 51.1211 26.3779 52.2116 27.4685 53.3022V53.2762Z" fill="#929665"/>
<path d="M19.7048 61.0405C19.0816 61.0405 18.4584 61.0145 17.8353 60.9885C16.4331 60.0018 14.5117 59.6383 13.9404 57.665C14.5376 55.2502 16.6668 55.0165 19.1076 57.1197C19.0816 58.1583 19.8086 58.7555 20.4058 59.4306C21.2108 60.3654 20.8213 60.8587 19.7308 61.0405H19.7048Z" fill="#908D63"/>
<path d="M32.6871 63.0123C36.504 62.1555 40.347 61.3246 44.2937 61.6881C45.1246 62.3892 47.4615 61.3246 46.7604 63.7913C45.9295 63.8692 45.0727 64.1289 44.2937 63.5836C44.086 63.5836 43.8523 63.5836 43.6446 63.5836C42.3463 61.9218 40.7105 62.5969 39.1266 62.9344C35.8549 62.2853 33.4401 64.4145 30.7137 65.531C30.532 65.3752 30.4541 65.2194 30.506 65.0636C30.558 64.8819 30.6099 64.804 30.6618 64.804C30.6618 64.6222 30.7137 64.4404 30.7397 64.2587C31.3888 63.8432 31.8303 63.1162 32.6611 63.0123H32.6871Z" fill="#DFDBD9"/>
<path d="M30.6876 64.805C30.6876 65.0387 30.7136 65.2983 30.7395 65.532C30.8174 67.3756 32.7648 65.8436 33.4399 67.4275C31.129 68.6739 28.7142 68.7258 26.2215 68.1286C25.7022 67.5314 25.6763 66.9082 26.2215 66.311C27.9093 66.3889 29.1297 65.0387 30.7136 64.831L30.6876 64.805Z" fill="#D5D0CD"/>
<path d="M32.6868 63.0134C32.2973 63.7923 31.6482 64.2078 30.7654 64.2597C31.83 62.1565 29.2334 60.4947 30.0383 58.4175C31.051 58.9887 32.1415 59.1445 33.284 59.0666C33.4138 60.2091 32.9205 61.2218 32.6608 62.2863C32.6608 62.52 32.6608 62.7797 32.6608 63.0134H32.6868Z" fill="#C0B892"/>
<path d="M26.1958 66.2851C26.1958 66.8823 26.1958 67.5055 26.1958 68.1027C24.8715 68.0508 24.8975 67.09 24.8975 66.1553C25.3129 66.2072 25.7544 66.2332 26.1698 66.2851H26.1958Z" fill="#DFDBD9"/>
<path d="M32.0124 86.2268C30.4286 84.7727 28.4811 83.7341 27.4685 81.7088C26.9751 80.826 26.6635 79.9691 28.1436 79.7614C30.1689 79.1902 30.9738 81.4751 32.6616 81.7088C32.2721 82.6955 33.0511 82.9292 33.5963 82.7994C36.3227 82.1502 38.8414 83.5004 41.4899 83.5783C43.3853 83.6562 45.8521 83.6822 47.0205 85.9931C45.878 87.4472 44.2941 87.4991 42.6583 87.3953C40.7888 86.5124 38.8674 85.9672 36.7382 86.2787C35.3361 86.4865 33.9858 86.2268 32.7395 85.3959C31.8826 84.8247 32.5577 85.8633 32.2461 85.9412C32.1682 86.0451 32.0903 86.1489 32.0124 86.2268Z" fill="#D1CBC6"/>
<path d="M46.9166 85.6035C42.5025 84.3053 37.9326 83.76 33.3626 83.3445C31.9345 83.2147 31.597 82.7993 32.6616 81.7087C33.3107 82.5396 33.9598 82.5396 34.609 81.7087C36.4006 81.7087 38.5557 82.3578 39.9319 81.6048C43.7488 79.5016 45.3847 82.9291 47.9293 84.0716C48.3967 84.2793 48.9679 84.2274 49.4872 84.2793C49.4872 84.487 49.4353 84.6688 49.4093 84.8765C48.7342 85.7074 47.9293 86.019 46.9166 85.5776V85.6035Z" fill="#DCD7D5"/>
<path d="M28.1439 79.7621C27.3909 80.2294 27.5207 81.0084 27.4688 81.7095C27.0534 81.9172 26.6119 82.1249 26.1965 82.3327C26.2484 81.1902 25.8849 79.9438 26.7418 78.9312C27.0534 78.5676 27.3909 77.8925 27.9622 78.4897C28.1959 78.7234 28.092 79.2947 28.1439 79.7101V79.7621Z" fill="#C8C0BA"/>
<path d="M11.3698 41.5664C11.3698 41.3587 11.3698 41.151 11.3179 40.9692C14.2001 41.2808 17.0563 41.7482 19.0816 44.163C19.6009 44.5784 19.8865 45.1497 20.3279 45.6171C21.029 46.1883 21.6781 46.0585 22.3013 45.5132C23.5217 45.8248 22.6129 46.8375 22.9504 47.4347C22.8985 47.8241 22.5609 47.902 22.3013 48.1098C19.9903 49.0185 17.4458 47.2789 15.1868 48.7589C14.4338 47.7462 14.7194 46.1104 13.2653 45.5132C12.3305 44.3707 11.0063 43.41 11.3438 41.6184L11.3698 41.5664Z" fill="#AFB36E"/>
<path d="M19.0816 50.6285C18.8738 50.6285 18.6661 50.6285 18.4584 50.6285C17.991 50.5246 17.5236 50.4207 17.0303 50.3169C17.264 50.1351 17.4457 49.8755 17.7054 49.7456C18.6661 49.2263 19.0037 49.7456 19.0816 50.6025V50.6285Z" fill="#A8AF72"/>
<path d="M4.20339 42.8907C2.56756 41.7482 3.68407 39.8268 2.95703 38.4246C3.5802 38.6064 4.22935 38.8141 4.85253 38.9959C6.59222 38.7881 7.78664 39.619 8.7214 40.9692C7.8905 43.2023 5.29394 41.3068 4.20339 42.9167V42.8907Z" fill="#B1B36E"/>
<path d="M8.72141 40.9686C7.16348 40.8128 6.25468 39.4366 4.85254 38.9952C7.42312 38.2681 9.76002 38.3201 11.3439 40.9426C10.4611 40.9426 9.60423 40.9426 8.72141 40.9426V40.9686Z" fill="#BFBD81"/>
<path d="M22.3277 45.4859C21.9902 47.7189 21.0294 47.5372 19.7571 46.135C19.7052 44.655 20.2765 44.1357 21.6786 44.8887C21.8863 45.0964 22.12 45.2782 22.3277 45.4859Z" fill="#B9C15B"/>
<path d="M21.6779 44.8894C20.7951 44.9154 20.0421 45.1751 19.7565 46.1358C19.0035 45.6424 19.0814 44.8894 19.0814 44.1364C20.5095 42.4227 21.1326 43.4354 21.652 44.8635L21.6779 44.8894Z" fill="#DEDCAF"/>
<path d="M22.3271 48.083C22.5349 47.8493 22.7426 47.6416 22.9763 47.4079C23.184 47.4079 23.3917 47.4079 23.5735 47.4598C23.8072 48.3167 24.0149 49.1476 24.2486 50.0044C23.8331 50.0044 23.3917 50.0044 22.9763 50.0044C22.9244 49.3034 23.0801 48.5504 22.3271 48.083Z" fill="#A2A76A"/>
<path d="M104.456 84.9537C104.248 84.9537 104.014 84.9537 103.807 84.9537V84.3046C103.807 82.3572 103.677 80.5136 101.236 82.7986C100.899 83.1102 100.743 83.1102 100.561 82.8245C100.327 82.487 100.146 82.0975 99.9378 81.708C99.2627 80.1761 97.3932 78.748 99.5743 77.0083C99.834 76.8265 100.12 76.6967 100.405 76.5928C102.041 76.3851 103.703 76.0995 105.365 76.1774C106.247 76.7486 106.221 77.8651 106.819 78.6181C107.208 80.254 105.209 81.3185 105.78 83.0063C105.78 83.9411 105.339 84.5902 104.482 84.9537H104.456Z" fill="#C8C4BE"/>
<path d="M106.403 78.463C105.365 78.0994 105.261 77.3984 105.754 76.5156C105.468 75.2432 106.377 74.3085 107.156 73.893C109.285 72.7246 110.116 70.7772 110.921 68.7519C110.973 68.0508 110.843 67.2718 111.57 66.8044C112.635 67.7132 112.064 68.9336 112.245 70.0242C111.311 71.8418 110.895 73.9969 109 75.2173C108.377 76.4896 108.351 78.2293 106.403 78.463Z" fill="#C4C2BA"/>
<path d="M106.404 78.4622C107.598 77.6573 107.494 75.7878 109 75.2166C109.26 75.8657 109.779 76.4889 109.182 77.2419C107.962 78.7998 106.897 80.3577 107.157 82.5388C107.26 83.3957 106.378 83.2399 105.754 82.9802C105.079 81.8897 102.665 80.6433 106.04 79.8644C106.248 79.8124 106.274 78.9556 106.404 78.4622Z" fill="#BFBCB5"/>
<path d="M46.9159 85.6038C47.7468 85.3701 48.5777 85.1364 49.4086 84.9027C49.7462 85.3961 49.7202 88.0965 49.3307 88.6677C48.9672 89.1611 48.5777 89.6284 48.1882 90.1218C47.4872 91.446 46.2408 91.9653 44.8646 92.3029C41.8786 91.6018 38.555 92.225 35.9065 90.1477C33.8033 89.6804 32.7128 88.1744 32.0117 86.2529V86.227C35.4911 85.9673 38.9445 86.5126 42.372 86.9021C43.9818 86.7722 45.5138 86.4347 46.9159 85.6038Z" fill="#B2AEA2"/>
<path d="M35.9071 90.121C38.9191 90.7961 42.1388 90.5624 44.9691 92.0684C45.1249 92.2242 45.1768 92.354 45.1249 92.5098C45.0729 92.6396 45.021 92.7176 44.9691 92.7176C44.3199 92.9253 43.6708 93.159 43.0476 93.3667C42.3725 92.4319 41.2041 93.3927 40.4511 92.7176C40.2434 92.7176 40.0097 92.7176 39.8019 92.7176C38.0623 93.133 36.8419 94.0678 36.5563 95.9373C35.0503 96.4306 33.3625 97.7029 32.6095 95.0025C32.3239 94.0158 31.7526 94.3274 31.2593 94.8467C29.8052 96.3787 29.4937 94.639 28.8186 93.9899C28.8186 93.5744 28.7926 93.133 28.7666 92.7176C31.1554 91.8347 33.5442 90.9779 35.9331 90.095L35.9071 90.121Z" fill="#C1BEB0"/>
<path d="M98.6395 23.4941C98.8473 23.4941 99.081 23.4941 99.2887 23.4941C101.989 25.5714 105.157 25.5194 108.351 25.4415C106.585 26.5321 106.585 29.6479 103.703 29.4662C102.664 27.363 101.002 26.7917 98.9512 27.8044C95.8353 29.3364 92.304 29.9076 89.4997 32.1666C88.3832 33.0754 85.2933 31.7252 84.0989 30.0115C83.995 29.4662 83.995 28.7132 84.4624 28.5574C88.6688 27.2331 91.4211 23.4422 95.5237 21.9622C95.7054 21.9102 95.9132 22.066 96.069 22.2218C96.7441 23.0527 97.6269 23.4422 98.6655 23.5201L98.6395 23.4941Z" fill="#DDD7D4"/>
<path d="M103.807 29.3097C104.274 29.102 105.157 28.8164 105.131 28.7385C104.534 25.9862 106.975 26.2458 108.325 25.4409C111.077 24.4802 113.907 24.8177 116.738 24.7917C115.985 27.1286 113.466 26.0381 112.116 27.1806C108.87 28.375 110.35 30.2185 111.467 32.0101C111.934 32.6074 112.427 33.2046 112.895 33.8018C113.518 35.6194 115.258 35.7492 116.686 36.2945C115.959 37.5148 115.465 38.891 114.141 39.67C113.907 39.0468 113.466 38.6054 112.869 38.3717C110.662 35.1779 107.598 33.0488 104.248 31.2571C103.236 30.7378 102.405 30.2964 103.833 29.3097H103.807Z" fill="#CFCBC3"/>
<path d="M111.545 26.7139C112.947 25.1819 115.232 26.0388 116.738 24.7924C117.594 24.7924 118.477 24.7924 119.334 24.7924C120.84 25.3377 122.346 25.2079 123.878 24.8443C124.06 24.8443 124.268 24.8443 124.449 24.8443C125.306 25.9349 124.164 26.5321 123.826 27.3111C120.632 26.9735 117.906 28.116 115.387 29.9076C113.518 28.7132 113.414 27.7525 115.102 26.9735C116.556 26.2984 118.14 26.2725 119.49 26.4023C120.139 26.3504 119.568 25.6752 119.776 26.0647C119.828 26.1686 119.75 26.2205 119.542 26.2465C117.724 26.4023 115.933 26.4542 114.193 27.1813C113.258 27.5707 112.298 27.4669 111.519 26.6619L111.545 26.7139Z" fill="#B1B290"/>
<path d="M123.852 27.363C124.059 26.5321 124.267 25.7012 124.475 24.8963C124.89 24.6366 125.332 24.377 125.747 24.1173C126.188 24.325 126.63 24.5328 127.071 24.7405C125.643 25.1819 125.15 26.7658 123.878 27.363H123.852Z" fill="#CFCBC3"/>
<path d="M123.878 24.8695C122.346 25.7004 120.84 25.8043 119.334 24.8176C120.84 24.8176 122.372 24.8695 123.878 24.8695Z" fill="#CFCBC3"/>
<path d="M11.3699 41.5646C11.4997 43.0965 13.7327 43.6159 13.2913 45.4594C11.6555 46.7057 11.2401 44.7583 10.2793 44.291C10.7727 43.4341 9.29263 41.7723 11.3699 41.5646Z" fill="#CBCC93"/>
<path d="M96.043 22.1954C94.2774 24.8439 89.6815 24.0649 88.9545 28.1156C88.8246 28.8426 87.7341 28.5829 86.9551 28.3752C85.6049 28.0117 84.6702 28.531 84.3846 29.9591C84.021 30.2967 83.6315 30.3486 83.1901 30.1668C82.6448 28.9984 82.0736 27.804 82.3852 26.4538C82.9564 25.8566 83.5796 25.4671 84.3846 26.0903C87.4485 25.7787 89.9671 24.2986 92.1482 22.2214C93.4465 22.2214 94.7188 20.7154 96.0171 22.2214L96.043 22.1954Z" fill="#D7D1CD"/>
<path d="M36.556 95.9373C36.2617 93.4273 37.3436 92.3541 39.8017 92.7176C38.7631 93.8341 38.2697 95.4959 36.556 95.9373Z" fill="#C6C5B9"/>
<path d="M44.943 92.6916C44.943 92.4839 44.943 92.2761 44.943 92.0424C46.0075 91.3933 47.0981 90.7442 48.1627 90.095C48.3704 90.2768 48.6041 90.4586 48.8118 90.6663C47.6953 91.2635 47.124 92.6656 45.644 92.7435C45.4103 92.7435 45.1507 92.7435 44.917 92.7176L44.943 92.6916Z" fill="#C6C5B9"/>
<path d="M40.4248 92.7185C41.3336 92.7185 42.4761 91.8097 43.0214 93.3676C42.1385 93.2897 41.1259 93.6532 40.4248 92.7185Z" fill="#C6C5B9"/>
<path d="M58.5487 11.2113C60.1067 11.3931 60.9116 12.4317 61.5348 13.9896C60.0547 11.5748 58.6786 15.21 57.2505 13.7819C57.1726 12.6654 58.1592 12.0682 58.5747 11.2113H58.5487Z" fill="#CFC8C5"/>
<path d="M119.932 41.5914C118.997 41.4356 118.53 43.1234 117.413 42.2406C117.491 40.6307 118.789 39.8517 119.802 38.9949C120.503 38.3977 120.555 39.2805 120.685 39.7219C120.425 40.3451 120.191 40.9683 119.932 41.5914Z" fill="#C6C3BF"/>
<path d="M19.1081 57.1192C17.3165 56.6777 15.421 55.2756 13.9409 57.6644C12.9542 57.1192 12.0195 56.5219 11.8896 55.2496C13.6553 55.0419 15.395 55.1717 17.1866 54.7303C18.5628 54.3928 20.3804 54.7563 19.1081 57.0932V57.1192Z" fill="#A4A06D"/>
<path d="M111.545 26.7133C114.531 26.8432 117.439 25.441 120.737 26.3498C118.815 26.7393 117.101 26.921 115.492 27.4923C113.83 28.0635 113.934 29.0762 115.388 29.985C115.388 30.1927 115.388 30.4264 115.388 30.6341C114.063 31.1015 112.739 31.5689 111.441 32.0103C107.728 29.5436 107.728 28.9723 111.545 26.7133Z" fill="#ABB07A"/>
<path d="M112.895 33.803C112.998 32.9202 113.154 32.1931 114.375 32.2451C115.777 32.297 115.907 33.3356 116.296 34.2444C114.998 34.9455 114.037 33.8289 112.92 33.8289V33.803H112.895Z" fill="#989A78"/>
<path d="M55.2514 33.1525C56.8613 33.8795 58.0038 34.9701 58.4711 36.8136C58.7048 37.7743 59.0683 38.9428 60.4705 39.0207C60.8599 39.3323 60.8859 39.7477 60.7561 40.1891C60.4705 40.7344 59.9512 41.02 59.4059 41.2537C58.9904 41.4095 58.549 41.4095 58.1336 41.2537C57.8739 41.1239 57.6662 40.9162 57.5364 40.6565C56.0304 38.8649 56.0304 36.3982 54.758 34.5027C54.7061 33.9574 54.758 33.4641 55.2774 33.1265L55.2514 33.1525Z" fill="#CCC5BB"/>
<path d="M54.732 34.5288C56.7832 36.1646 57.1467 38.6573 57.8738 40.9423C54.732 41.6953 56.1341 38.8131 55.3032 37.7226C55.0695 36.8397 54.8099 35.9569 54.5762 35.1001C54.6281 34.9183 54.6541 34.7106 54.732 34.5288Z" fill="#B5AFA4"/>
<path d="M74.0502 73.9445C73.2193 76.4891 73.4789 79.1116 73.3751 81.6822C72.0768 81.3966 71.0641 82.2275 69.8957 82.7727C69.5841 80.5657 72.6221 78.774 70.9603 77.294C68.4416 75.061 70.1034 70.6209 66.2865 69.4005C64.9622 69.2707 63.7678 68.8552 62.7552 67.9464C61.1194 65.0643 64.0275 65.7394 65.0921 64.9864C65.5595 64.9604 66.0009 65.0383 66.3904 65.2979C67.3251 66.9338 69.0908 67.2454 70.6227 67.9205C70.9603 68.3359 70.8564 68.7254 70.6227 69.1149C69.9476 72.6202 70.3371 73.1655 74.0502 73.9445Z" fill="#C7C0B9"/>
<path d="M63.067 67.4796C64.1575 68.1288 65.2221 68.7779 66.3127 69.427C66.053 70.4137 67.4032 70.985 66.9358 72.0236C65.6376 71.0888 62.7814 72.2573 62.34 73.7633C62.0543 74.698 62.3919 75.503 62.6775 76.4377C60.8859 76.6195 60.9898 73.8671 59.1981 74.6201C58.9385 73.5296 60.1329 72.8804 60.055 71.8418C60.2887 70.8292 61.0936 70.18 61.7427 69.479C62.314 68.9077 62.3919 67.9989 63.067 67.5056V67.4796Z" fill="#D8D3CE"/>
<path d="M68.2338 75.8925C67.0654 75.3992 66.8836 74.4125 66.9356 73.296C67.7665 73.9711 68.13 74.8539 68.2338 75.8925Z" fill="#D8D3CE"/>
<path d="M90.2269 85.6037C89.37 85.396 88.5132 85.1623 87.6304 84.9546C87.4226 84.4872 87.2409 83.9938 87.0331 83.5265C85.4752 85.0844 84.2029 81.6829 82.3853 83.3447C81.4246 84.2275 81.814 82.1243 80.5937 81.8387C78.8799 81.4492 77.1403 80.7222 75.4266 80.125C74.2581 79.7095 73.9984 78.9306 74.5956 77.8919C76.1795 75.1656 74.6736 72.6469 74.0244 70.0763C76.8806 69.1935 77.8413 69.6609 78.3087 72.2574C78.5684 73.6336 78.3087 74.9319 80.6716 73.8413C82.1776 73.1402 83.9432 75.0617 85.6569 75.607C86.6436 77.5025 89.0584 78.3853 89.2662 80.9039C89.3441 81.8387 90.4865 81.9426 91.3434 81.9426C92.382 81.9426 93.4466 81.8647 94.4852 82.1243C95.368 82.6177 96.147 83.1629 95.3681 84.3314C93.7582 85.2402 92.0704 85.7595 90.2009 85.6297L90.2269 85.6037Z" fill="#DBD7D3"/>
<path d="M85.7092 75.8921C83.606 76.4633 82.3077 74.412 80.3084 74.0745C80.594 74.8534 80.7757 75.4247 80.9835 75.97C80.6978 76.0738 80.3863 76.2296 80.3603 76.1777C79.4775 75.0871 76.9588 75.2948 77.4262 73.3215C78.1792 70.0498 76.2318 70.0758 74.0766 70.0758C73.6612 69.6344 73.2198 69.2189 72.8043 68.7775C72.5706 68.5178 72.4927 68.2063 72.5447 67.8427C73.8689 66.2069 75.8163 66.4666 77.556 66.2069C77.8676 66.2588 78.1533 66.3627 78.4129 66.5185C78.2831 68.2582 79.5294 68.1284 80.6979 68.1803C79.9449 67.8687 78.7504 67.9466 79.2957 66.5704C80.1785 65.8953 81.2691 65.402 82.2298 66.0252C85.2678 67.9985 88.4615 67.5312 91.7072 66.9859C92.2265 66.882 92.7459 66.934 93.2652 67.1676C94.2778 68.1284 93.8364 69.2449 92.8497 69.4007C90.9802 69.7123 89.7079 71.1144 87.9942 71.6077C87.2671 71.8155 86.3324 71.7635 86.1247 72.5944C85.7871 73.8408 87.2412 73.6071 87.7605 74.1783C88.0461 74.4899 88.3577 74.7755 88.5654 75.165C88.6952 76.3335 90.0974 77.9433 88.6173 78.5405C86.6959 79.3195 86.7219 76.7749 85.6832 75.8921H85.7092Z" fill="#E5E0DE"/>
<path d="M72.7001 68.1545C72.7001 68.3623 72.752 68.544 72.778 68.7517C72.6222 70.6213 73.8426 72.1532 74.0244 73.9448C72.5963 74.568 70.4411 74.4901 69.9997 73.6592C69.2727 72.335 68.6235 70.3356 70.1555 68.7777C70.9864 69.323 71.4018 68.6738 71.8952 68.2065C72.1548 68.0507 72.4145 68.0247 72.6741 68.1545H72.7001Z" fill="#BDB5A9"/>
<path d="M95.394 84.3059C95.394 83.3711 94.9526 82.722 94.0957 82.3584C94.2775 79.6321 97.1077 77.0874 99.912 77.1913C99.3148 78.152 98.3021 79.0608 100.068 79.9956C100.821 80.3851 100.068 81.1381 99.912 81.7093C97.0817 82.0728 98.2762 83.8385 98.8214 85.5522C97.4972 85.0589 96.4326 84.6694 95.368 84.2799L95.394 84.3059Z" fill="#D6D2CD"/>
<path d="M90.2262 85.603C91.7841 84.4605 93.5757 84.3047 95.3933 84.3047C95.2115 85.4212 95.9646 87.2907 94.9259 87.5244C93.2122 87.9399 91.2907 87.4205 90.2002 85.577L90.2262 85.603Z" fill="#D6D2CD"/>
<path d="M28.7921 36.4241C29.4672 32.8928 29.7529 31.6465 28.5844 29.9587C27.5198 28.3748 28.1689 27.3362 28.7921 26.0898C30.3501 28.8941 30.9213 32.1658 33.0764 34.7104C36.1663 38.3456 37.8281 43.305 43.1511 44.9408C44.2156 45.2524 43.956 47.5114 43.6963 48.8616C43.5405 49.7444 42.8135 50.4974 42.3721 51.3283C41.2556 51.4062 40.3728 50.835 39.464 50.3157C35.5172 47.2777 32.7908 43.1232 29.5451 39.4361C29.0518 38.5014 28.2469 37.6445 28.7662 36.4501L28.7921 36.4241Z" fill="#E2DEDB"/>
<path d="M49.4869 48.0578V47.4086C51.1487 46.396 52.0056 47.2528 52.6028 48.7069C52.6547 49.0185 52.6807 49.3301 52.6547 49.6676C52.421 51.7449 52.447 53.8481 52.8625 55.8994C52.9144 56.5485 52.8624 57.1976 52.9403 57.8468C53.1221 59.95 52.4989 61.0665 50.188 60.1577C49.5389 59.8981 48.9157 60.1577 48.2925 60.3654C46.7346 60.677 45.3065 60.7809 45.3065 58.5478C45.3584 57.9506 47.5655 57.639 45.4363 56.7043C43.411 55.8215 43.6187 54.7309 45.5662 53.9C45.5662 53.1211 46.0335 52.394 45.2546 51.5631C44.6573 50.914 45.0468 49.8234 46.0335 50.3687C48.9157 51.9786 48.656 49.3561 49.435 48.0578H49.4869Z" fill="#D3CDC6"/>
<path d="M45.5921 53.8994C47.6175 55.1457 42.8658 54.6004 45.0988 55.717C46.0336 56.2103 46.9164 56.7296 47.6953 57.4307C47.1241 58.1837 46.3192 58.3654 45.4883 58.4953C44.969 59.0665 44.3718 59.482 43.5409 59.43C42.5282 59.2742 41.4636 59.2742 40.4769 58.9886C40.2173 58.8588 39.9836 58.677 39.7759 58.4433C38.4776 57.8202 37.2832 56.9633 35.6214 57.6903C34.6866 58.1058 33.7778 57.5086 33.2845 56.5479C32.5315 55.8468 31.2592 55.1198 32.142 54.0032C32.895 53.0165 34.1933 53.6138 35.0502 54.211C36.9976 55.5871 39.0488 56.5479 41.7492 56.5219C41.6973 54.8082 40.5289 53.8215 39.7759 52.6271C39.1787 52.0818 38.2439 51.7962 38.3218 50.7316C38.6594 50.1863 39.2046 50.0305 39.8018 50.0305C40.8145 50.1344 41.7233 50.4979 42.3984 51.3288C43.6188 52.0299 43.5668 54.2629 45.6181 53.9253L45.5921 53.8994Z" fill="#D5D0CA"/>
<path d="M39.7752 52.6015C40.2166 52.9131 40.6321 53.2506 41.0995 53.5103C42.4756 54.2893 43.3065 55.8991 42.7872 56.9377C42.164 58.2101 40.4763 57.2753 39.3598 56.8339C37.1008 55.977 34.9456 54.9124 32.6866 53.8998C32.2971 55.1202 33.154 55.7174 33.3358 56.4963C31.6999 55.8212 29.7266 55.7433 28.7399 53.9258C30.3757 53.6401 29.9862 52.9131 29.2073 51.9783C28.1167 50.6541 26.9742 49.3299 26.1693 47.8498C25.6759 46.941 25.1826 45.6947 25.8837 44.6041C30.3757 46.4217 32.0115 51.1994 35.7765 53.6921C36.1141 53.9257 36.3737 54.3412 36.7373 54.523C37.5682 54.9384 38.3991 55.8991 39.3338 55.4577C40.6321 54.8345 39.8791 53.5882 39.8012 52.5755L39.7752 52.6015Z" fill="#DAD6D3"/>
<path d="M28.7918 36.4249C29.2072 37.2818 29.6487 38.1646 30.0641 39.0215C31.1027 42.1374 33.3877 44.3444 35.4909 46.7333C36.2958 47.6421 38.0615 48.1614 37.2046 50.0049C32.5568 48.1354 26.1433 39.5149 26.3251 34.9709C27.0781 35.8537 27.7012 36.7106 28.7918 36.4249Z" fill="#DBD6D2"/>
<path d="M37.2051 50.0052C34.8422 47.0971 32.5054 44.163 30.1165 41.3068C29.4414 40.5019 27.7536 39.8527 30.0905 39.0478C33.3362 42.7089 36.5819 46.3701 39.8017 50.0312C39.516 50.5505 39.0227 50.6803 38.5034 50.6803C38.2957 50.9919 38.062 50.9919 37.8542 50.6803C37.6465 50.4726 37.4388 50.2389 37.2051 50.0312V50.0052Z" fill="#CFC8C3"/>
<path d="M37.8281 50.6536C38.0358 50.6536 38.2695 50.6536 38.4773 50.6536C38.9187 51.3028 39.3341 51.9519 39.7755 52.601C38.5552 52.5491 37.906 51.9 37.8281 50.6536Z" fill="#DAD6D3"/>
<path d="M52.084 49.3552C51.9801 47.6934 50.8896 47.3558 49.4874 47.4077C49.1239 44.7333 49.8769 42.708 52.4215 41.3318C53.7717 40.6048 54.7065 39.2026 55.3297 37.7226C56.4462 38.5795 55.8749 40.8125 57.9003 40.9423C58.108 41.176 58.1859 41.4097 58.082 41.7213C57.8743 42.1108 57.5627 42.4224 57.2251 42.682C56.4202 43.2533 55.6153 43.8245 55.1739 44.7593C54.5507 46.0835 54.9661 47.7713 53.7717 48.9137C53.2784 49.3292 52.785 49.6927 52.084 49.3552Z" fill="#CFC5B3"/>
<path d="M65.6632 26.0645C66.2085 26.9473 65.8709 27.5705 65.1699 28.1937C64.6246 28.687 64.0793 29.2842 65.014 29.9334C65.3256 29.6478 65.6113 29.6737 65.8969 29.9853C66.2344 30.6604 66.2344 31.3095 65.6632 31.8808C64.9621 31.1018 64.4168 30.8681 64.0533 32.1924C63.2744 35.0486 62.002 34.4773 60.1845 32.9194C59.1978 32.0885 58.9381 30.998 58.315 30.0632C58.1072 29.7516 57.7697 29.2323 58.3928 29.0505C60.1845 28.4793 61.5866 27.8302 60.3403 25.4933C60.1585 25.1557 61.6386 23.7536 62.054 25.0259C62.8589 27.5445 64.4947 25.701 65.6632 26.0645Z" fill="#DCD5D1"/>
<path d="M60.4707 40.2936V38.9953C62.1844 38.6837 64.781 39.3069 63.4567 35.464C65.4561 39.1511 67.8709 37.8269 70.1818 37.0479C71.1425 36.0612 72.337 35.8794 73.6352 36.0872C75.2711 37.3595 74.544 38.5799 73.5833 39.7743C69.7923 40.2676 65.9754 40.2676 62.2104 40.8908C61.5613 40.9946 60.9381 40.7869 60.4967 40.2676L60.4707 40.2936Z" fill="#D1C9BF"/>
<path d="M73.4011 36.425C72.4144 37.0482 71.2979 37.1521 70.1554 37.0742C70.0516 37.0222 69.9477 36.9443 69.8698 36.9443C65.4297 37.8012 65.2739 35.0489 65.6374 31.8811C65.6374 31.2319 65.6374 30.5828 65.6374 29.9337C67.5848 30.1414 66.9357 31.7512 67.1175 32.8418C67.1954 33.2572 66.7539 33.7766 67.5848 33.8285C68.0262 33.8285 68.4417 33.8285 68.8831 33.8285C70.8565 33.2832 72.726 33.1534 74.1801 34.971C74.3878 35.698 73.9983 36.1134 73.4011 36.425Z" fill="#DFDAD6"/>
<path d="M78.5945 25.4149C79.5032 24.2724 78.6983 23.5454 77.9453 22.8184C78.3608 22.7664 78.7762 22.7405 79.1917 22.6885C78.3608 18.8716 81.8921 21.9355 82.6451 20.4555C82.1258 22.2731 82.0219 24.1426 80.5159 25.4149C80.412 25.9083 80.1264 26.2458 79.6331 26.4016C79.0099 26.3756 78.3348 26.4016 78.5685 25.4409L78.5945 25.4149Z" fill="#DFDAD8"/>
<path d="M79.8662 26.0642C80.0739 25.8565 80.3076 25.6228 80.5153 25.415C81.7617 25.9603 83.3975 24.0908 84.3842 26.0642C83.7351 26.2719 83.1119 26.5056 82.4628 26.7133C81.4501 27.0509 80.3336 27.8818 79.8662 26.0642Z" fill="#E6E2E0"/>
<path d="M79.8657 26.0647C80.5148 27.1552 81.7352 25.9089 82.4622 26.7138C83.0335 27.7265 84.1759 28.6093 83.1114 29.9335C83.4749 30.6087 83.0854 31.102 82.6959 31.5953C80.9303 32.9196 79.4242 34.5554 77.6846 35.8797C76.2565 36.9442 74.8284 37.3597 74.0234 35.1007C72.4655 33.9842 70.5181 34.5035 68.8563 33.8024C68.8044 30.8423 71.2451 29.0767 73.9196 29.9076C75.8929 30.5308 76.568 28.6353 77.4249 27.4149C77.8404 26.8177 77.4249 25.6752 78.5414 25.3896C78.8271 25.9089 79.2944 26.0128 79.8397 26.0387L79.8657 26.0647Z" fill="#E4DFDC"/>
<path d="M67.5848 33.8276C67.4031 34.1911 67.2733 34.7883 67.0136 34.8662C66.4683 35.022 66.2606 34.4507 66.3904 34.0613C66.9097 32.5293 66.702 31.1791 65.6374 29.9587C65.4297 29.9587 65.196 29.9587 64.9883 29.9587C65.6894 28.7124 67.5069 29.2576 68.208 28.0113C68.8312 28.946 69.6621 29.8289 68.2859 30.8935C67.3252 31.6205 67.5848 32.7889 67.5589 33.8276H67.5848Z" fill="#E4DFDC"/>
<path d="M82.4627 31.2574C82.6704 30.816 82.9041 30.3746 83.1118 29.9592C83.5532 29.9592 83.9687 29.9592 84.4101 29.9592C85.6045 30.9199 86.8249 32.8673 87.6558 29.6995C88.7463 30.3486 87.8894 31.4911 88.6424 32.0624C89.8368 31.8806 89.1618 30.3746 89.4993 30.3486C93.8096 29.9072 97.1591 26.6096 101.443 26.35C103.131 26.2461 104.17 27.4145 103.832 29.336C103.78 29.6476 103.728 29.9332 103.651 30.2448C107.078 30.7381 108.844 33.9579 111.752 35.3081C113.076 35.9053 112.401 37.3853 112.868 38.372C112.661 38.8134 112.427 39.2289 112.219 39.6703C111.57 40.3194 110.791 40.4233 109.934 40.2675C109.077 39.5664 108.402 38.2681 107.104 39.878C106.611 40.5012 105.598 40.657 104.897 41.1503C104.118 41.6696 103.157 42.5265 102.404 41.41C101.599 40.2415 101.755 38.7615 102.975 37.9825C104.196 37.2035 104.793 36.2169 105.546 35.0484C106.325 33.88 105.598 33.6203 105.182 33.2049C104.274 32.2961 103.676 33.075 103.183 33.828C103.053 34.0098 103.027 34.2175 102.949 34.4252C101.625 38.9692 101.314 39.1769 96.6139 38.4759C96.9514 37.0737 96.4321 35.6196 96.8476 34.2435C96.1725 34.8666 95.6791 35.6975 95.1858 36.5025C94.4068 37.6969 93.6798 38.2422 92.4594 36.9179C91.4208 35.7754 90.0186 35.9572 88.5646 36.0351C85.994 36.1649 83.5013 35.7495 81.5019 33.854C81.1124 32.7375 81.9953 32.1143 82.4627 31.3094V31.2574Z" fill="#E1DDDA"/>
<path d="M93.472 67.4784C91.2909 67.816 89.1098 68.0756 86.9547 68.5171C86.0199 68.6988 85.3189 68.6729 84.6437 68.0237C83.0858 66.4917 81.2163 66.3619 79.2429 66.8553C79.0352 67.1149 78.8275 67.1149 78.5938 66.8553H77.9187C77.7629 66.6735 77.7109 66.4917 77.7109 66.284C77.7109 66.0763 77.7369 65.9984 77.7888 65.9984C78.412 64.9338 79.3987 64.3106 80.5671 63.8433C79.6064 62.4671 77.8667 60.9611 80.9566 60.0263C81.398 60.1042 81.8135 60.286 82.2289 60.4677C83.9427 61.1169 85.8122 61.1948 87.5 62.1036C84.9813 58.9358 85.0332 58.806 89.6551 55.742C88.928 54.4957 86.9027 54.288 86.9027 52.4704C86.8248 51.3539 86.747 50.2373 87.6298 49.3805C88.8242 48.965 89.6551 49.77 89.9407 50.5749C90.486 52.2367 91.6285 51.6654 92.6931 51.6395C93.0046 51.6395 93.2643 51.7953 93.472 52.003C93.524 52.4184 93.4201 53.1455 93.6019 53.2234C97.0293 54.8332 94.4847 55.8978 93.1604 57.0143C95.3675 58.027 95.705 62.6489 93.8096 64.9598C94.4847 65.9984 95.6012 65.2714 96.4061 65.6089C97.3409 65.9984 99.0546 64.2068 99.1844 66.3619C99.2883 68.1016 97.3669 66.6995 96.7177 67.5044C96.2244 67.8939 95.6791 67.7121 95.1338 67.6862C94.5885 67.6862 94.0173 67.5823 93.472 67.5044V67.4784Z" fill="#DAD5D0"/>
<path d="M96.6921 38.3719C97.523 37.6968 98.5357 38.0603 99.4445 37.9564C101.132 37.7487 102.898 37.7747 101.937 35.0742C101.392 33.5423 102.638 32.3219 103.859 31.7247C105.624 30.8419 105.78 32.3998 106.247 33.5682C106.429 33.9837 107.312 34.1135 108.273 34.7107C104.482 34.2693 105.988 36.5023 106.221 38.0343C105.313 38.0343 104.586 37.9564 103.911 38.0343C102.794 38.1901 102.846 39.2028 102.716 40.0077C102.664 40.3712 102.69 41.0203 102.898 41.1502C103.859 41.7214 104.092 40.6568 104.612 40.2154C105.65 39.3586 106.974 39.1508 108.065 38.1901C109.883 36.5802 108.532 39.7221 109.649 39.6442C109.935 41.8253 108.221 44.3959 110.947 46.1096C108.922 47.9531 106.247 48.3686 103.833 49.3553C103.755 49.2254 103.651 49.0956 103.573 48.9918C104.845 47.0703 104.923 45.4085 102.82 43.8766C100.717 42.3706 98.8732 42.8899 96.9258 44.0064C96.3286 44.3699 95.5756 44.5257 94.9005 44.9931C95.6016 45.3825 96.1468 45.3826 96.6402 45.5643C98.0683 46.3173 97.8346 47.2001 96.8479 48.1349C96.6142 48.3426 96.3546 48.4984 96.069 48.6542C94.563 49.2774 93.4724 48.1089 92.1741 47.7454C90.4864 46.3692 90.3565 44.8113 91.6029 43.0976C92.8752 41.6176 95.1082 41.0723 95.7314 38.9171C95.9131 38.4757 96.1468 38.1641 96.6921 38.3719Z" fill="#E5E1DF"/>
<path d="M93.4722 51.9523C93.2644 51.9523 93.0307 51.9523 92.823 51.9523C91.2911 51.7446 91.7065 50.8098 92.0441 49.8751C93.3164 48.7326 94.9262 49.4856 96.3284 49.148C97.9902 49.0701 99.6519 49.2 101.262 48.6547C102.274 48.3171 103.105 48.6547 103.806 49.3817C103.469 49.7972 102.768 50.2646 102.846 50.5761C103.105 51.7706 103.936 51.0435 104.611 50.9397C107.078 50.6021 109.415 51.5888 109.96 53.8218C110.531 56.1847 108.74 58.5216 107.078 60.1055C105.806 61.3259 103.78 61.3778 103.78 58.4437C103.78 56.5482 103.495 54.6787 101.028 54.2113C100.535 55.1461 99.9116 56.3665 100.587 57.1454C102.638 59.5342 100.898 59.4823 99.2624 59.3785C98.5094 59.3265 97.6266 60.7806 97.0813 59.4564C96.588 58.2879 97.8863 58.5476 98.4835 58.3139C99.4182 57.9244 99.1326 57.2233 98.7431 56.7559C97.9122 55.8212 97.2631 55.3798 98.068 53.666C98.7691 52.16 96.3284 53.9776 95.6792 52.5755C96.3543 51.9523 97.7565 51.9523 98.1459 50.6281C96.4842 50.8098 94.7185 50.1607 93.4981 51.9004L93.4722 51.9523Z" fill="#E5E1DF"/>
<path d="M93.4727 67.4792C93.9401 66.7262 94.6931 66.856 95.4202 66.856C95.524 67.609 95.6279 68.362 96.7184 68.1543C97.3676 68.5957 98.0167 69.0111 98.6658 69.4526C99.4188 70.2575 99.5487 71.2182 99.3409 72.2568C99.0294 73.3214 98.4321 73.9186 97.1598 73.6849C97.5493 74.9572 99.9641 75.918 97.9388 77.5019C96.4068 78.7222 94.8749 78.6963 93.4727 77.0345C92.1485 75.4246 89.9934 75.9959 88.3056 75.2688C87.7603 74.9572 87.241 74.386 86.6698 74.386C85.8129 74.36 84.7743 74.6197 84.6704 73.4772C84.5666 72.3607 85.761 70.9066 86.2543 71.0365C88.8768 71.6596 89.9155 67.8946 92.6159 68.9852C93.1352 69.1929 93.3948 68.1543 93.4468 67.5051L93.4727 67.4792Z" fill="#E8E4E3"/>
<path d="M110.921 46.1364C107.858 45.4353 107.442 43.2542 109.623 39.671C110.48 39.671 111.337 39.671 112.194 39.671C112.402 40.3201 112.635 40.9692 112.843 41.5924C112.324 42.8647 112.843 44.4746 111.545 45.4872C111.337 45.695 111.103 45.9287 110.896 46.1364H110.921Z" fill="#ECE9E9"/>
<path d="M100.587 68.1288C101.288 68.1547 102.067 68.0249 102.534 68.7779C103.599 71.6082 103.339 72.0496 100.742 72.0496C99.8336 71.4264 99.0546 70.6994 99.3143 69.4271C99.3143 68.5962 99.7817 68.1547 100.613 68.1288H100.587Z" fill="#E8E4E3"/>
<path d="M111.57 45.4863C112.038 44.214 111.492 42.5782 112.869 41.5915C113.284 42.3445 114.842 41.3318 114.608 42.2926C114.245 43.7466 113.44 45.2267 111.57 45.4604V45.4863Z" fill="#E5E1DF"/>
<path d="M99.2888 69.4271C99.7302 70.0762 100.146 70.7253 100.587 71.3745C100.405 72.491 100.094 73.4258 98.6396 72.6728C98.6396 71.5822 98.6396 70.5176 98.6396 69.4271C98.8474 69.4271 99.0811 69.4271 99.2888 69.4271Z" fill="#E5E0DE"/>
<path d="M96.6922 68.1288C96.1469 68.7 95.5497 69.5049 94.7447 68.5961C93.9917 67.7393 95.1602 67.4277 95.3939 66.8564C95.8353 67.0642 96.2507 67.2979 96.6922 67.5056V68.1547V68.1288Z" fill="#E5E0DE"/>
<path d="M98.6398 72.6463C99.6524 72.7501 99.9121 71.7634 100.587 71.348C103.859 72.4645 101.989 69.7122 102.535 68.7514C103.028 68.6476 103.521 68.5177 103.989 68.4139C103.963 70.595 106.715 70.7248 107.053 72.6463C107.728 74.36 106.689 75.113 105.391 75.7621C103.677 76.593 101.756 76.6709 99.9381 77.1902C97.2636 78.099 95.498 80.0205 94.1218 82.3574C92.7197 82.4353 91.4214 83.2662 89.9154 82.5911C88.8508 82.0977 87.4487 82.0717 88.3315 80.3061C88.7469 79.5012 88.3055 79.2675 87.6044 78.9818C86.2802 78.4366 85.9427 77.1643 85.709 75.8919C86.9553 76.2035 86.8774 77.9432 88.4094 78.2548C88.8249 77.2162 87.215 76.1776 88.3055 75.2428C90.7203 74.8274 93.213 74.1003 94.5632 77.2422C94.6411 77.3979 96.6145 78.2029 97.731 77.1383C98.8994 75.9958 97.4714 75.8141 97.1338 75.2168C96.6664 74.386 96.225 73.5291 95.6278 72.4126C96.7962 72.2568 97.731 74.2042 98.6658 72.6722L98.6398 72.6463Z" fill="#E0DBD9"/>
<path d="M99.9385 77.1913C101.47 76.5682 102.95 75.7113 104.56 75.3997C106.248 75.0622 106.871 74.1534 107.053 72.6733C107.365 71.9723 109.987 73.2965 108.273 70.4922C106.326 67.3244 109.987 69.4017 110.922 68.7785C111.389 72.8032 107.313 73.8418 105.755 76.5422C103.859 77.1913 101.912 77.2952 99.9385 77.1913Z" fill="#D2CEC9"/>
<path d="M105.676 64.4936C105.001 64.909 104.404 65.5063 103.313 65.0389C104.015 63.9224 104.949 64.4157 105.676 64.4936Z" fill="#CFC9C4"/>
<path d="M60.4706 71.9972C61.5092 73.5811 59.6657 73.7629 59.1723 74.5938C57.6144 75.4247 56.8614 76.7749 56.5758 78.4627C56.368 78.6704 56.1603 78.9041 55.9266 79.1118C54.8101 79.3974 54.7322 81.1111 53.3301 81.0592C53.3301 80.8515 53.3301 80.6438 53.3301 80.4101C53.8754 79.6051 53.7455 78.4627 54.6284 77.8135C55.1736 76.8788 55.9786 76.1258 56.5498 75.217C56.7575 74.9833 56.9912 74.7756 57.1989 74.5419C57.7183 73.2436 57.7962 71.7376 58.8867 70.673C59.1464 70.5172 59.406 70.4393 59.6916 70.4912C60.3148 70.7769 60.0552 71.5299 60.4187 71.9453L60.4706 71.9972Z" fill="#D3CDC2"/>
<path d="M26.1961 68.1279C28.2733 67.271 30.4804 67.5047 32.6355 67.7124C32.6875 65.9987 29.7014 67.9461 30.74 65.5313C33.4664 66.8036 36.0111 64.8822 38.7115 65.0899C39.5943 65.1418 40.4771 64.8302 41.4379 64.9081C39.7501 65.8689 37.5949 65.9987 36.5563 67.8942C37.0237 68.0759 37.4651 68.2317 38.0883 68.4654C36.5304 69.1146 35.2581 69.6598 33.6742 68.9847C31.7527 68.1798 30.039 69.556 28.1954 69.8676C26.5077 70.1532 28.559 71.5294 27.5723 72.2304C25.8845 71.2697 25.3652 69.9195 26.2221 68.1019L26.1961 68.1279Z" fill="#DFDBD9"/>
<path d="M44.3203 63.5855C45.1772 63.5855 46.06 63.5855 46.9169 63.5855C49.6173 61.7419 52.9928 62.8065 55.823 66.3898C56.8617 69.0383 55.4076 69.6355 53.1745 69.6355C53.0188 69.5576 52.8889 69.4797 52.7331 69.4018C52.1879 68.1035 51.6426 66.961 49.851 66.961C47.4102 66.961 46.7611 63.7672 44.3203 63.5855Z" fill="#E1DCD8"/>
<path d="M59.1985 70.7252C58.8869 72.1793 58.3416 73.5295 57.2511 74.5941C57.2511 74.4902 57.2251 74.3864 57.1991 74.2825C53.4341 75.1913 52.8369 70.5694 49.6172 70.3098C50.6558 68.9855 51.7983 69.6087 52.733 69.4269C54.992 69.401 57.277 69.1413 59.1985 70.7252Z" fill="#E1DCD8"/>
<path d="M39.127 62.9353C40.7887 62.1044 42.4246 61.3774 43.645 63.5845C42.2428 62.7016 40.6589 62.9873 39.127 62.9353Z" fill="#E1DCD8"/>
<path d="M56.5754 75.2443C56.5494 76.5686 55.6926 77.2696 54.654 77.8409C54.4203 76.3349 55.4329 75.7377 56.5754 75.2443Z" fill="#E1DCD8"/>
<path d="M54.6537 77.84C54.5498 78.8527 54.1863 79.7615 53.3554 80.4366C53.4593 79.4239 52.914 78.0737 54.6537 77.84Z" fill="#DCD7D3"/>
<path d="M43.6707 59.0667C44.2939 58.8589 44.8911 58.6772 45.5143 58.4954C45.9557 59.8975 46.8126 60.3649 48.1887 59.7158C51.2007 59.56 51.8499 60.313 50.7074 62.598C48.9677 62.5201 47.1501 62.8316 45.6182 61.6113C43.3592 60.287 40.7886 61.5853 38.3997 60.8323C38.2699 59.6898 39.5682 59.3782 39.7759 58.4435C39.9836 58.4435 40.2173 58.4435 40.4251 58.4435C41.3858 59.2484 42.6841 58.3396 43.6707 59.0926V59.0667Z" fill="#ABA691"/>
<path d="M45.6182 61.5844C47.3319 61.818 49.0456 62.0517 50.7594 62.3114C54.1089 62.1037 57.5364 61.7661 59.3539 65.583C58.3932 67.3227 57.1209 68.0238 55.2773 66.8294C53.0183 64.3367 50.4737 62.597 46.8905 63.5837C46.527 62.2594 44.995 62.5451 44.2939 61.6882C44.7354 61.6622 45.1768 61.6103 45.6182 61.5844Z" fill="#D5CFC5"/>
<path d="M32.6611 62.2864C31.6744 60.9881 32.0898 59.9495 33.2842 59.0667C35.1538 60.5467 34.219 61.4814 32.6611 62.2864Z" fill="#ADA37B"/>
<path d="M22.5869 56.9375C23.4957 56.3143 24.1968 56.4182 25.1315 56.7038C24.3526 57.4828 23.7554 58.0021 22.5869 56.9375Z" fill="#9FA276"/>
<path d="M42.3724 86.8763C38.8151 88.2785 35.4396 86.7205 32.0121 86.2012C32.2977 85.6819 31.4668 84.15 32.3756 84.6433C35.0241 86.1233 37.7765 85.0328 40.399 85.5521C41.3078 85.7339 41.9829 86.0195 42.3983 86.8763H42.3724Z" fill="#C6C0B9"/>
<path d="M16.9263 45.3048C17.6793 45.0971 17.9909 45.3827 18.1467 45.7982C18.3285 46.2915 18.0948 46.629 17.5755 46.681C17.0042 46.7329 16.433 46.6031 16.3291 46.0059C16.3031 45.7722 16.7965 45.4346 16.9004 45.3048H16.9263Z" fill="#A2A76A"/>
<path d="M60.4702 40.2933C63.2225 39.9298 65.9489 39.5143 68.7012 39.2287C70.2592 39.0729 71.869 38.995 73.401 39.6441C73.8164 39.2806 74.2838 39.2027 74.8031 39.3325C75.5302 39.774 76.4909 40.1115 75.66 41.228C74.8031 41.7214 73.9203 41.6694 73.0115 41.4877C69.9216 41.0203 66.8317 41.0203 63.7418 41.5396C62.1579 41.7993 60.548 42.2147 59.1719 40.9424C59.4575 40.4231 59.9508 40.3192 60.4702 40.2933Z" fill="#E2D5BA"/>
<path d="M59.1717 40.9681C62.9367 41.1239 66.5979 39.8516 70.3888 40.319C71.4274 40.4488 72.5699 39.9814 73.4268 40.9421C71.6352 42.9674 69.3502 41.6692 67.2989 41.825C66.0006 41.6951 64.8322 42.1885 63.6637 42.6818C63.1704 42.8117 62.6771 42.8117 62.1837 42.7597C60.7556 42.3702 59.1198 42.8116 57.8994 41.6172C57.8994 41.4095 57.8994 41.1758 57.8994 40.9681C58.3149 40.9681 58.7563 40.9681 59.1717 40.9681Z" fill="#E4CD95"/>
<path d="M59.1719 65.5578C57.6399 63.8181 55.5627 63.3248 53.4075 62.9612C52.4987 62.8054 51.4861 63.1949 50.785 62.3121C51.5121 59.8713 49.7983 59.8454 48.1885 59.6896C49.5387 58.1317 50.811 59.8194 52.0833 60.0791V55.8207C52.6805 53.8733 52.4209 51.9519 52.0833 50.0045C52.0833 49.7967 52.0833 49.589 52.0833 49.3553C52.4988 49.1476 52.9142 48.9139 53.3556 48.7062C54.7578 52.0557 55.8743 55.5351 57.1985 58.9366C57.7957 60.4686 58.1852 62.0265 60.3403 61.7149C61.4828 61.663 62.6253 62.1823 63.7937 61.7928C64.0794 61.7409 64.391 61.7409 64.6766 61.7668C66.2864 61.8188 66.2864 64.3115 68.13 64.0518C68.9609 64.2076 69.8437 64.2855 70.2592 65.2202C69.0907 66.8301 67.7405 66.4666 66.3384 65.5838C65.897 65.5838 65.4555 65.5838 65.0141 65.5578C63.0927 63.6104 62.106 65.5578 60.9116 66.5704C60.0807 66.6743 59.1979 66.8561 59.1979 65.5838L59.1719 65.5578Z" fill="#C9BDA8"/>
<path d="M61.1186 66.1813C61.0926 64.7532 61.4561 63.6886 63.1958 63.6107C64.6239 63.5588 65.0913 64.2599 65.0134 65.5581C64.7018 66.5448 62.5467 65.688 63.066 67.5056C62.9621 68.3884 63.3776 69.427 62.3909 70.0761C61.7677 69.5568 61.3523 68.8817 60.9368 68.2066C60.6772 67.5056 60.9628 66.8564 61.1186 66.2073V66.1813Z" fill="#D5CFC5"/>
<path d="M66.3121 65.5578C67.6104 65.3241 69.0644 66.0512 70.181 64.8827C70.3108 64.8048 70.4406 64.7529 70.5964 64.675C70.908 64.7269 71.1677 64.8567 71.4014 65.0645C72.1544 66.0771 72.2323 67.0378 71.2715 67.9726C71.1417 68.0245 70.9859 68.1024 70.8301 68.1544C68.8567 68.0765 66.5198 68.6996 66.2861 65.5578H66.3121Z" fill="#D3CBC0"/>
<path d="M72.0771 68.1804C72.0252 68.7776 72.3368 69.5565 71.5319 69.7902C70.7789 69.9979 70.4673 69.3228 70.1816 68.7776C70.4153 68.5698 70.623 68.3621 70.8567 68.1544C71.1424 67.8428 71.4799 67.7649 71.8954 67.8947C71.9733 67.9986 72.0512 68.1025 72.1291 68.2063L72.0771 68.1804Z" fill="#ADA395"/>
<path d="M61.1189 68.1028C62.4171 68.1807 62.4431 69.0895 62.3912 70.0502C61.5343 70.4916 60.8852 71.1407 60.4697 71.9976C59.9504 71.712 59.8466 71.2446 59.8206 70.7253C59.1715 69.3232 59.4571 68.3884 61.1189 68.1288V68.1028Z" fill="#C3BDAD"/>
<path d="M78.5942 66.8296C78.8019 66.8296 79.0096 66.8296 79.2433 66.8296C80.1261 67.998 82.3073 67.0114 82.8525 69.0886C81.2946 69.53 79.8925 68.8289 78.5423 68.5693C76.8026 68.2317 78.3086 67.4268 78.5942 66.8296Z" fill="#EEE9E7"/>
<path d="M77.945 66.1816C77.945 66.3893 77.945 66.597 77.945 66.8048C76.1794 67.1683 74.3358 67.1683 72.726 68.155H72.4144H72.1028V68.103C71.7133 67.6357 71.7652 67.1423 72.0249 66.623C73.453 65.1689 75.2186 65.1949 77.0622 65.5325C77.3998 65.6623 77.7113 65.87 77.9191 66.1556L77.945 66.1816Z" fill="#D3CBC0"/>
<path d="M52.0834 50.0036C53.1999 51.951 53.6673 53.8725 52.0834 55.8199C51.7458 53.8725 51.3823 51.951 52.0834 50.0036Z" fill="#CFC5B3"/>
<path d="M43.6705 59.0668C42.5799 58.911 41.3336 59.5082 40.4248 58.4177C41.5154 58.5475 42.7617 58.0022 43.6705 59.0668Z" fill="#B7B1A0"/>
<path d="M60.4706 62.312C58.3674 63.7401 57.1211 62.0004 56.8874 60.6762C56.2123 56.8333 53.2522 53.7434 53.3561 49.6668C53.3561 49.3552 53.356 49.0177 53.3301 48.7061C54.5245 47.4078 53.2782 45.4085 54.6543 44.1621C55.1217 44.266 55.4073 44.5516 55.5631 45.019C55.6151 45.8499 55.693 46.6548 56.1344 47.4078C56.2123 48.2647 55.4852 48.8878 55.4852 49.7447C55.9007 50.991 54.4726 52.9385 56.8874 53.3799C57.0951 53.1981 57.3288 53.0942 57.5884 53.0683C58.7569 53.6395 59.8994 53.7694 60.912 52.7567C61.3015 52.497 61.691 52.2893 62.1584 52.2374C63.4307 52.3672 63.6384 53.1981 63.5345 54.2627C63.2749 55.8466 61.9247 56.6256 60.9639 57.6642C61.1976 59.274 61.5352 60.8839 60.4706 62.338V62.312Z" fill="#DCB05E"/>
<path d="M57.8995 41.6173C59.4055 41.9289 61.0673 40.9941 62.4434 42.2405C63.2484 44.1879 61.9501 44.4995 60.522 44.7591C58.8602 44.2658 58.1851 46.369 56.6531 46.2651C55.5106 44.863 56.9647 43.8244 57.1724 42.604C57.1724 42.4742 57.1724 42.3184 57.1724 42.1885C57.4061 42.0068 57.6398 41.799 57.8735 41.6173H57.8995Z" fill="#ECC467"/>
<path d="M55.3029 44.8381C55.0951 44.6044 54.8874 44.3966 54.6797 44.163C55.199 43.0984 55.952 42.3454 57.1983 42.1896L57.2762 42.2934C57.2762 43.6436 56.4973 44.3966 55.3029 44.8381Z" fill="#ECC467"/>
<path d="M74.6997 39.6708C74.2583 39.6708 73.8169 39.6708 73.4015 39.6708C73.2716 38.5802 74.8036 37.5156 73.4015 36.4251C73.6092 35.9837 73.8169 35.5682 74.0506 35.1268C74.1545 34.5036 74.1285 33.8026 74.9854 33.6468C75.8682 34.3998 74.6218 35.2047 75.1931 36.2433C78.3868 35.7759 79.5034 32.0369 82.4634 31.2579C82.2557 32.1148 82.048 32.9717 81.8403 33.8285C82.3596 34.4257 82.1778 34.8931 81.5806 35.2826C79.5813 35.5163 79.1658 37.5156 77.9714 38.6321C76.9847 39.515 76.2317 40.5536 74.7517 39.6708H74.6997Z" fill="#D9D3CD"/>
<path d="M81.1647 35.1271C81.684 34.8415 81.8139 34.3741 81.8139 33.8289C84.3325 34.0366 86.4617 36.0359 89.3958 34.9973C90.6421 34.5559 92.9011 34.9454 93.706 37.4121C94.511 34.9973 96.6661 34.1145 97.6269 32.1411C99.3406 33.4134 94.3812 35.984 98.9251 36.1917C98.7434 37.6198 96.4324 36.711 96.6661 38.3728C96.4584 38.5806 96.2247 38.8142 96.017 39.022C95.4977 39.749 95.0822 40.5799 94.0176 40.5799C92.278 40.2943 90.2267 40.476 90.019 37.9055C89.967 37.2304 89.3958 37.1005 88.8245 37.1265C88.0456 37.1784 87.3185 37.3083 87.3185 38.3469C87.3185 39.775 86.5396 40.0866 85.5009 39.3336C84.0988 38.3469 83.0602 38.7364 81.7359 39.5673C80.4896 40.3462 78.9836 41.4368 77.6074 39.6192C78.2825 37.7237 79.1913 36.01 81.1647 35.1012V35.1271Z" fill="#DED8D4"/>
<path d="M77.9454 66.1807H77.6338H77.3222C76.8808 65.246 77.3222 64.6228 78.0492 64.1554C76.6211 63.9737 74.8035 64.441 74.4141 62.208C76.2576 59.8192 78.958 58.1574 80.0745 55.1973C80.3342 54.8338 80.6458 54.5482 81.0612 54.3404C81.3468 54.2626 81.6325 54.2366 81.9181 54.2626C82.1778 54.1847 82.9307 54.6261 82.5153 53.7952C82.2297 53.2499 81.6065 52.9123 81.3728 52.2892C81.0612 51.0688 80.7237 49.8744 81.0872 48.6021C82.8528 46.4729 84.8782 48.4203 86.6179 48.6021C87.8642 48.7319 86.7996 51.3025 87.7084 52.5488C87.7084 52.6527 87.7084 52.7566 87.7603 52.8604C88.3316 54.4703 91.2137 53.8471 91.0839 55.8465C90.9541 57.8718 88.6172 56.8591 87.5007 57.7679C85.3975 59.4557 87.1891 60.2606 88.0979 61.2992C88.5133 61.7666 89.8895 61.6108 89.2663 62.7273C88.747 63.6621 87.9421 62.9091 87.293 62.6754C85.5013 62.1041 83.6837 61.5329 81.8921 60.9357C82.3855 60.0788 83.5799 60.2346 84.229 59.3778C83.0865 59.4037 82.2557 60.1048 81.269 60.2866C80.3602 60.3645 79.9447 60.8578 80.0745 61.7666C80.3342 63.4803 82.1258 62.3638 83.0346 63.4803C81.3209 64.3631 79.6851 65.22 78.0492 66.1028L77.9454 66.1807Z" fill="#D0C9C1"/>
<path d="M92.1747 50.0046C92.1747 50.7057 92.0708 51.4846 92.8238 51.952C89.5262 54.237 89.7859 50.2902 88.3058 49.3554C88.3058 48.966 88.3058 48.6024 88.2799 48.213C87.8644 46.6031 86.7998 45.0971 87.449 43.3055C88.7213 41.6956 90.1494 40.9167 92.0189 42.4486C92.0708 42.6044 92.1487 42.7602 92.2007 42.916C91.4736 44.5518 90.7985 46.1877 92.8498 47.434C93.3691 48.4726 92.8758 49.2776 92.2007 50.0306L92.1747 50.0046Z" fill="#E1DCD9"/>
<path d="M88.928 48.7055C88.7203 48.9132 88.4866 49.1469 88.2788 49.3546C87.1883 50.2634 87.7855 51.5098 87.6297 52.6003C87.4739 52.4445 87.2142 52.3147 87.2142 52.1589C86.8248 48.2121 84.0464 48.4458 81.2422 48.7055C80.2555 48.1342 79.9439 47.2514 80.2035 46.1868C81.9173 44.4471 83.9686 43.3825 86.4093 43.0969C86.7209 43.2008 86.9546 43.3825 87.1364 43.6162C85.7602 46.0051 87.396 47.3553 88.928 48.7314V48.7055Z" fill="#D8D1CC"/>
<path d="M81.165 60.3913C81.4247 58.4439 83.6837 59.2488 84.4886 58.0025C84.6963 57.6909 85.3455 58.0025 85.4753 58.4179C85.5792 58.7815 85.5272 59.2748 85.3455 59.5864C84.5665 61.0145 83.2163 61.1184 81.8142 61.0405C81.6065 60.8327 81.3728 60.625 81.165 60.3913Z" fill="#C9C3B9"/>
<path d="M103.807 49.3557C101.366 48.8883 99.1587 50.6799 96.692 50.0048C95.9909 49.5115 95.2898 49.0441 96.0428 48.0574C96.6141 47.5381 97.9124 47.8756 97.8085 46.6553C97.7566 46.1619 97.3671 45.6945 96.692 46.136C95.3937 46.136 94.1214 46.1879 93.0049 44.8636C95.5235 43.1759 98.6394 43.124 101.21 41.6439C101.651 41.4102 103.651 43.098 104.274 44.2405C104.871 45.3051 105.416 46.136 106.689 46.3177C106.04 47.9016 103.858 47.5641 103.807 49.3557Z" fill="#ECE7E6"/>
<path d="M96.0432 48.0837C96.2509 48.7328 96.4846 49.3819 96.6923 50.0311C95.1863 50.0311 93.6804 50.0311 92.1744 50.0311C92.0705 49.0963 92.3821 48.2395 92.8235 47.4345C94.0699 46.8893 94.7709 48.8886 96.0692 48.0837H96.0432Z" fill="#E6E1DF"/>
<path d="M94.0957 40.2934C94.7708 39.904 95.0304 38.8913 96.0431 38.9952C96.0431 39.6703 98.2761 41.1243 95.6017 40.8647C93.7062 40.6829 94.2255 43.8507 92.1743 42.89C92.0704 41.4619 92.408 40.3713 94.1217 40.2934H94.0957Z" fill="#E1DCD9"/>
<path d="M96.6921 46.1359C97.7567 45.0713 98.9252 46.11 98.8473 46.6812C98.6655 48.0833 97.2114 48.0314 96.043 48.0833C96.1209 47.3823 97.9904 47.2784 96.6921 46.1359Z" fill="#E6E1DF"/>
<path d="M61.1198 68.1018C60.2889 68.7769 59.9254 69.6598 59.8216 70.6984C59.6138 70.6984 59.4061 70.6984 59.1724 70.6984C56.9134 70.7244 54.8622 69.8415 52.707 69.4001C53.5379 68.4913 56.2383 69.478 55.3036 66.8036C56.8355 67.0892 58.0299 66.3881 59.1724 65.5312C59.6398 66.2842 60.3928 66.1544 61.1198 66.1544C62.1325 66.8036 61.3276 67.4527 61.1198 68.1018Z" fill="#DDD7D2"/>
<path d="M66.9359 40.9427C69.0911 40.8648 71.2462 41.6178 73.4273 40.9427C74.2842 40.9427 75.1151 40.9427 75.9719 40.9427C76.1018 40.9946 76.2316 41.0725 76.3614 41.1244C77.3481 42.1111 78.6724 42.7603 79.2176 44.1624C79.5033 44.9933 79.8927 45.8242 79.4513 46.707C79.2176 46.9147 78.958 47.0186 78.6464 46.9926C77.7376 46.6551 77.3481 45.7982 76.7769 45.1491C75.1151 42.968 73.4792 42.7343 71.7655 45.1231C71.4539 45.5645 70.9346 45.7723 70.4153 45.8761C70.1297 45.8761 69.8441 45.8242 69.5844 45.6944C69.0651 44.1624 67.7928 43.2536 66.7022 42.189C66.5724 41.7216 66.6244 41.3322 66.9879 40.9686L66.9359 40.9427Z" fill="#E7C471"/>
<path d="M81.1646 35.1271C80.1001 36.6331 79.0095 38.1391 77.9449 39.671C77.5814 40.1124 77.8151 40.8654 77.2179 41.203C76.7764 41.3588 76.361 41.3328 75.9975 40.9693H75.9715C75.5561 40.5539 75.1147 40.1124 74.6992 39.697C77.3217 39.4633 77.9449 36.9966 79.4509 35.4906C79.8144 35.1271 80.2299 33.2056 81.1646 35.153V35.1271Z" fill="#D2C9C0"/>
<path d="M59.8469 44.1881C61.249 44.24 62.3136 43.9025 62.4175 42.2407C62.8329 42.2407 63.2743 42.2407 63.6898 42.2407C64.4168 42.5263 64.9621 42.9937 65.1698 43.7467C65.1179 44.0582 64.8842 44.2919 64.6765 44.5256C64.313 44.9411 63.508 44.7593 63.3522 45.4604C63.8716 45.4863 64.4168 45.4084 64.9361 45.5383C65.2218 45.6421 65.4814 45.772 65.7151 45.9797C66.1306 47.1741 66.3902 48.3685 65.6891 49.5629C65.1439 49.9524 64.5467 50.0303 63.9235 49.9005C63.6119 49.7966 63.3003 49.6928 63.1186 49.4331C62.3915 48.2647 61.3789 49.0177 61.0413 49.4331C60.4701 50.1342 61.9761 50.2121 61.9241 50.9651C61.8722 51.3026 61.6905 51.5363 61.4048 51.6921C58.8862 52.2114 58.1591 50.9131 58.3409 48.7061C58.8862 47.2001 59.4315 45.72 59.8469 44.1621V44.1881Z" fill="#E8C16B"/>
<path d="M65.0401 43.5648C64.1832 43.5389 63.7418 43.0715 63.7158 42.2406C64.3909 40.7606 65.7152 40.9423 66.9615 40.9683C66.9615 41.3837 66.9615 41.8252 66.9615 42.2406C66.9615 42.6561 66.7278 42.9676 66.4682 43.2533C66.0527 43.5648 65.6373 43.9024 65.066 43.5648H65.0401Z" fill="#E4B75E"/>
<path d="M70.181 64.9095C69.3242 64.9095 68.4413 64.9095 67.5845 64.9095C65.1178 63.1438 67.2469 61.508 67.7143 59.8462C68.1298 59.1192 68.675 58.5479 69.4021 58.1584C69.8695 58.0027 70.3368 58.0026 70.7783 58.2363C70.986 58.4441 71.1418 58.7037 71.2197 59.0153C71.2197 60.1578 70.96 61.2743 71.0898 62.4428C70.4407 63.0919 70.233 63.9228 70.1291 64.8056L70.181 64.9354V64.9095Z" fill="#D3AB58"/>
<path d="M68.2339 59.7154C68.6754 61.533 65.8711 62.9351 67.5848 64.8825C65.2739 65.5836 66.1567 62.234 64.3391 62.3119C64.1314 62.0782 64.0535 61.7926 64.1054 61.4551C64.6507 59.7673 65.8451 58.9624 67.5588 58.8066C68.0522 58.9104 68.4417 59.0922 68.2339 59.7154Z" fill="#D4B583"/>
<path d="M60.4695 62.3126C60.3396 60.5729 60.4954 58.8072 59.8203 57.1454C61.56 56.8079 62.4688 57.8725 63.2218 59.2227C63.118 59.6381 62.8843 60.0795 63.4036 60.3911C63.7671 60.9883 63.7152 61.6894 63.7671 62.3385C62.6765 63.533 61.586 62.2607 60.4954 62.3385L60.4695 62.3126Z" fill="#DCAA4B"/>
<path d="M63.7675 62.3387C62.9885 61.8713 63.0924 61.0923 63.0664 60.3653C64.105 60.1316 64.5464 60.547 64.3647 61.6116C64.3647 61.8453 64.3647 62.079 64.3647 62.2867C64.157 62.2867 63.9752 62.3387 63.7675 62.3387Z" fill="#CB9848"/>
<path d="M70.1558 64.7528C69.8702 63.7921 69.9221 62.9093 70.8309 62.2861C70.5713 60.7801 71.7657 60.3127 72.7524 59.7675C74.1545 59.0145 75.5047 58.2355 76.7511 57.2488C78.0753 56.6256 78.7245 54.7302 80.62 55.1975C79.7891 58.4952 77.3483 60.4685 74.7517 62.3121C74.2843 62.8314 73.8429 63.3767 73.2457 63.7402C72.8043 64.0258 72.3369 64.2595 71.8955 64.5192C71.5839 64.7269 71.2464 64.8827 70.8569 64.8827C70.6232 64.8307 70.4155 64.8048 70.1818 64.7528H70.1558Z" fill="#DCB563"/>
<path d="M70.8311 64.8821C71.0647 64.6744 71.2725 64.4667 71.5062 64.259C72.1034 64.259 72.6487 64.3888 72.9862 64.96C73.168 65.7909 72.6746 66.3102 72.1553 66.8296C72.1553 67.271 72.1553 67.7124 72.1553 68.1538C71.7398 68.1538 71.2985 68.1538 70.883 68.1538C71.5841 67.0632 71.61 65.9727 70.883 64.8821H70.8311Z" fill="#D0C9C1"/>
<path d="M72.1289 66.8297C72.3366 66.1806 72.5703 65.5314 72.778 64.9083C72.778 64.4669 72.7781 64.0254 72.7261 63.584C73.1416 62.7531 73.7907 62.3117 74.7255 62.3377C74.9851 62.9349 75.3486 63.2984 76.1016 63.2984C78.7242 63.2984 78.1789 64.7006 77.2961 66.2066C75.5304 66.0508 73.8167 66.3364 72.1289 66.8557V66.8297Z" fill="#C5BCB3"/>
<path d="M63.7422 49.4076C64.3913 49.4076 65.0145 49.3817 65.6636 49.3557C66.8061 48.5248 67.8188 49.1739 68.8574 49.5894C69.4286 49.9789 69.7921 50.4982 69.8181 51.1993C69.5844 51.9523 69.4027 52.7831 68.2862 52.5754C67.689 52.0042 67.0398 51.5108 66.0272 51.6407C66.8061 51.9263 67.637 51.9263 68.1823 52.5235C68.5199 53.0428 68.1823 53.3544 67.7928 53.64C66.3387 54.0555 65.0924 55.3797 63.3787 54.8344C63.2489 54.7306 63.145 54.6267 63.0411 54.5228C63.093 53.5881 63.119 52.6793 61.8467 52.5495C61.4572 52.134 61.4053 51.7186 61.7948 51.2771H61.8467C62.3141 50.4982 62.7815 49.6933 63.7422 49.3817V49.4076Z" fill="#D48B3F"/>
<path d="M59.8466 44.1881C61.3526 45.9537 59.3013 47.1741 59.1715 48.7061C59.0157 48.9138 58.782 48.9917 58.5484 48.9138C57.1982 48.4983 58.3926 49.5629 58.081 49.7447C57.7694 50.3419 57.2501 50.4977 56.6269 50.4977C55.77 50.4458 55.1988 49.9005 54.6795 49.3033C54.5756 48.3166 55.5623 48.0829 55.9258 47.3818C55.5104 46.6288 55.5623 46.1095 56.575 46.0576C58.081 46.1095 57.6136 42.8119 59.8466 44.1361V44.1881Z" fill="#EAC98A"/>
<path d="M54.6796 49.3293C55.3028 49.563 55.926 49.7967 56.5751 50.0564C57.5618 50.9911 57.5099 52.1336 57.2762 53.328C57.1723 54.0031 57.5358 54.7821 56.8348 55.4312C54.4459 53.9772 54.6537 51.6143 54.7056 49.3293H54.6796Z" fill="#EBBB53"/>
<path d="M57.2509 53.302C56.2123 52.3932 56.7575 51.1209 56.5498 50.0303C57.0951 49.9784 57.5884 49.8745 57.874 49.3033C57.7182 48.732 57.9519 48.5503 58.4972 48.6541C58.7309 48.6541 58.9386 48.6541 59.1723 48.6541C58.3155 51.2507 60.0292 51.2767 61.7689 51.2507C61.7689 51.6661 61.8208 52.0816 61.8208 52.523C61.5871 52.7567 61.3794 52.9904 61.1457 53.25C59.8474 53.25 58.5491 52.9904 57.2249 53.1981V53.276L57.2509 53.302Z" fill="#E2BD80"/>
<path d="M57.251 53.224C57.3548 52.7307 57.4327 52.2373 57.5366 51.744C58.2377 53.4836 60.8342 50.6794 61.1718 53.2759C59.8475 55.3272 58.5493 54.6521 57.251 53.224Z" fill="#E5C595"/>
<path d="M63.0664 59.6888C62.0797 58.7281 61.2229 57.6116 59.8467 57.1442C60.9892 56.3653 62.3134 55.82 63.0404 54.5477H63.0924C63.404 54.8593 63.5597 55.2487 63.5857 55.6642C63.2481 56.9105 64.4945 57.9492 64.079 59.2215C63.8454 59.6109 63.5857 59.9225 63.0664 59.6888Z" fill="#CB9848"/>
<path d="M56.5755 46.1105C56.3678 46.552 56.1341 46.9934 55.9264 47.4348C53.8491 47.0193 54.9916 45.8509 55.3032 44.8642C55.9524 44.0073 56.6275 43.1764 57.2766 42.3196C57.8998 42.3455 58.3671 42.5273 57.8738 43.2284C57.2506 44.1112 56.7053 45.02 56.5755 46.1105Z" fill="#EBB94B"/>
<path d="M77.2951 40.9427C77.2951 40.4234 77.425 39.9301 77.9443 39.6444C79.1387 40.0599 80.5668 39.9041 81.19 39.1251C83.1633 36.6324 84.8251 37.2816 86.5129 39.3848C87.2399 38.2683 85.4223 37.1777 86.435 36.6844C87.6034 36.1131 89.1095 36.191 90.4856 36.0872C90.6934 36.0872 91.2127 36.5805 91.1607 36.6584C89.8105 39.7743 92.7706 39.3848 94.0948 40.3195C93.4457 41.1764 92.7965 42.0333 92.1474 42.9161C90.4337 41.7217 89.0056 42.4747 87.6294 43.5652C87.4217 43.8768 87.188 43.8768 86.9803 43.5652C84.5915 43.3056 82.2286 42.968 79.7878 42.9421C78.6713 42.9421 76.7239 43.3835 77.2692 40.9946L77.2951 40.9427Z" fill="#D8D1CC"/>
<path d="M80.5938 55.198C79.5033 56.0549 78.3868 56.9118 77.2962 57.7686C76.699 57.3272 76.1797 57.3791 75.7123 58.0023C74.7516 59.2746 73.7389 58.8072 72.7523 58.0023C72.5705 57.7427 72.5186 57.483 72.5186 57.1714C72.96 55.8731 74.3361 55.3279 74.9853 54.2113C76.9327 51.9783 73.9467 50.9916 73.7649 49.3039C73.8428 48.8365 74.1284 48.4989 74.5439 48.2912C77.1664 47.6161 79.1138 49.3818 81.3468 50.1607C81.2949 51.6148 82.2297 53.1208 81.1651 54.5229C80.9833 54.7566 80.8016 54.9903 80.6198 55.224L80.5938 55.198Z" fill="#E3B44C"/>
<path d="M81.1394 54.5222C80.8797 53.0162 81.7106 51.3804 80.5421 50.0042C80.1007 48.9396 78.6986 48.2385 79.2439 46.7845C79.0361 45.9276 78.8025 45.0707 78.5947 44.2139C80.1267 43.9802 80.3864 44.9928 80.5162 46.1613C80.7499 47.0182 81.0095 47.875 81.2432 48.7319C81.8923 49.9782 81.8404 51.3284 81.8923 52.6786C82.2559 53.3278 82.4116 53.9509 81.7625 54.5222C81.5548 54.5222 81.3471 54.5482 81.1394 54.5482V54.5222Z" fill="#D6BE8B"/>
<path d="M81.7881 54.4706C81.84 53.8474 81.866 53.2502 81.9179 52.6271C82.7228 53.1983 84.1769 53.1983 84.125 54.5745C84.125 55.2496 83.2681 55.5092 82.6709 55.5612C81.9439 55.6391 81.9439 54.938 81.814 54.4447L81.7881 54.4706Z" fill="#D9D3CD"/>
<path d="M87.0072 43.5399C87.2149 43.5399 87.4486 43.5399 87.6563 43.5399C87.7602 45.3315 89.1363 46.8375 88.9546 48.707C85.3194 47.7463 84.7741 46.2922 87.0072 43.5399Z" fill="#DAD5D0"/>
<path d="M80.5163 46.1355C79.7374 45.6421 79.6075 44.4737 78.5949 44.1881C78.1275 42.7859 75.8685 42.8379 76.0243 40.9424C76.4397 40.9424 76.8812 40.9424 77.2966 40.9424C77.4005 41.4877 77.6342 42.2666 78.1535 42.1108C81.0357 41.1501 83.762 43.2793 86.7481 42.3186C88.28 41.8252 86.826 43.1235 87.0077 43.5389C84.541 43.6428 82.8792 45.72 80.5163 46.1355Z" fill="#D3CBBF"/>
<path d="M70.182 45.4863C70.5975 45.1747 71.0908 44.915 71.4284 44.5256C73.999 41.5395 74.6741 41.5655 77.2966 44.8371C77.2446 46.3951 75.7646 45.7719 75.0376 46.2912C74.7 46.7326 74.6741 44.8891 74.1807 46.1873C73.9211 46.8624 73.3758 47.3818 72.7266 47.7712C72.1035 48.0569 71.4543 48.1088 70.8052 47.953C70.4676 47.8491 70.182 47.6674 69.9483 47.4077C69.5848 46.7067 69.6887 46.0575 70.182 45.4863Z" fill="#E1B85E"/>
<path d="M66.2601 42.8638C66.4938 42.6561 66.7016 42.4484 66.9352 42.2407C68.5711 42.708 70.3887 43.0196 69.5318 45.4864C69.0904 46.6808 68.1037 46.8366 67.0132 46.8106C66.4938 46.7327 66.0264 46.5509 65.6629 46.1355C65.4292 46.1355 65.2215 46.1095 64.9878 46.0836C64.6762 44.7074 66.7016 44.266 66.2601 42.8379V42.8638Z" fill="#E9C886"/>
<path d="M79.2426 46.7584C79.8138 47.771 80.7745 48.6279 80.5408 49.9781C78.5934 49.5367 76.646 49.1212 74.6986 48.6798C74.4649 48.4721 74.387 48.2124 74.413 47.9009C74.6207 47.2517 75.114 47.018 75.7372 46.9661C76.6979 46.9661 77.6587 46.6545 78.6194 46.7584C78.8271 46.7584 79.0348 46.7584 79.2426 46.7584Z" fill="#E2B85F"/>
<path d="M78.6199 46.7587C77.8669 47.4598 77.062 47.9791 75.9974 47.4078C75.6079 47.0443 75.2963 46.6548 75.3483 46.0836C75.2184 44.4737 77.0879 45.9278 77.2957 44.8113C77.7371 45.4604 78.1785 46.1096 78.6199 46.7327V46.7587Z" fill="#D6AB57"/>
<path d="M66.9612 46.1356C67.8959 46.2395 68.7268 45.9279 69.5318 45.4865C69.7395 45.4865 69.9732 45.4865 70.1809 45.4865C70.1809 46.1356 70.1809 46.7847 70.1809 47.4079C69.8953 48.1349 69.4279 48.7062 68.623 48.9139C67.2208 48.4725 66.5457 47.6156 66.9612 46.1096V46.1356Z" fill="#E9C06A"/>
<path d="M66.2602 42.8638C68.6231 45.0449 65.4033 45.019 64.9879 46.1095C64.4426 46.1355 63.9233 46.2134 63.378 46.1874C62.8327 46.1874 62.0018 46.8366 61.872 45.746C61.7941 45.019 62.3134 44.5516 62.9626 44.3439C63.6637 44.1102 64.4945 44.3439 64.9879 43.5909C65.4033 43.3572 65.8188 43.1235 66.2342 42.8898L66.2602 42.8638Z" fill="#E9CD9E"/>
<path d="M63.7411 49.4075C63.2218 50.1605 63.0401 51.251 61.8456 51.3289C61.3263 50.498 59.5867 50.7317 59.8723 49.1998C60.054 48.1611 61.1965 48.6545 61.8716 48.0313C63.092 46.8369 63.4036 48.5247 63.7671 49.4335L63.7411 49.4075Z" fill="#E2B251"/>
<path d="M66.9618 46.1356C67.5071 47.0963 67.7408 48.2647 68.8833 48.7321C69.5065 48.9918 69.844 49.3812 69.6103 50.1083C69.3507 50.316 69.091 50.29 68.8833 50.0304C67.7927 49.7967 66.7022 49.589 65.6376 49.3553C65.5597 48.2907 64.7288 47.2001 65.6376 46.1615C66.0531 46.1615 66.4945 46.1615 66.9099 46.1615L66.9618 46.1356Z" fill="#E2B251"/>
<path d="M72.804 57.7686C73.4012 57.1714 74.4918 59.4045 75.063 57.1974C75.4006 55.951 76.8546 56.1588 77.2961 57.7686C75.6083 59.9238 72.4924 60.0796 70.8306 62.2866C69.5843 61.222 70.3892 60.1315 70.8306 59.0669C71.298 58.3399 71.7914 57.6388 72.804 57.7686Z" fill="#E7B955"/>
<path d="M70.83 58.4171C70.3886 58.4171 69.9731 58.4171 69.5317 58.4171C68.4412 57.4044 68.7787 56.0282 68.545 54.8078C68.5191 53.951 68.9605 53.3278 69.5317 52.7566C70.5184 51.9257 71.1935 50.5755 72.8293 50.8351C73.115 50.913 73.3486 51.0688 73.5564 51.2765C73.6343 52.0815 72.7514 52.5748 72.8553 53.3797C72.4399 53.8991 71.7907 54.1587 71.4012 54.678C70.804 55.8465 71.6089 57.2486 70.83 58.3911V58.4171Z" fill="#CB9D54"/>
<path d="M70.8307 58.4174C70.4152 56.9114 69.818 55.4054 70.8307 53.8994C71.9472 54.7043 73.7128 55.1198 72.7781 57.1711C72.7781 57.3788 72.7781 57.5865 72.7781 57.7942C72.1289 58.2357 71.4538 58.6511 70.8047 59.0925C70.8047 58.8848 70.8047 58.6511 70.8047 58.4434L70.8307 58.4174Z" fill="#C6983E"/>
<path d="M68.8831 54.5223C70.0515 55.6647 69.3505 57.1188 69.5322 58.443C69.2726 59.0403 68.8571 59.4817 68.234 59.7154C68.0262 59.5076 67.8185 59.2999 67.6108 59.0922C66.676 57.7939 67.455 56.5216 67.6887 55.2233C67.9483 54.7559 68.2599 54.3924 68.8831 54.5223Z" fill="#D4AC7A"/>
<path d="M68.2337 55.1978C68.5193 56.574 67.7663 57.7684 67.6365 59.0927C66.3901 59.7418 65.1957 60.4688 64.3648 61.6373C64.1051 61.0401 63.6897 60.6246 63.0665 60.3909C62.6251 60.1572 62.6511 59.9495 63.0665 59.7158C63.3002 59.4821 63.508 59.2484 63.7416 59.0148C64.1311 58.6772 64.4427 58.2618 64.9361 58.054C65.5073 57.7944 66.0526 57.5347 66.3382 56.9116C66.8315 56.1845 66.9354 55.0161 68.2337 55.1978Z" fill="#C48E4E"/>
<path d="M72.7258 63.5587C73.0894 63.6366 73.6606 63.5587 73.5827 64.078C73.5308 64.3896 73.0634 64.5973 72.7778 64.883C72.2585 64.883 71.7651 64.7531 71.4795 64.2598C71.7132 63.6885 72.2065 63.6106 72.7258 63.5587Z" fill="#D3CBC0"/>
<path d="M73.4008 51.3023C71.7131 50.9388 71.0899 52.315 70.1551 53.2497C69.6099 52.7045 69.0646 52.1592 69.532 51.2764C69.3242 50.8609 69.0905 50.4455 68.8828 50.03C69.1165 50.03 69.3242 50.03 69.5579 50.03C70.3109 49.3289 70.3629 48.3163 70.7783 47.4594C71.4534 47.4594 72.1025 47.4594 72.7776 47.4335C73.6345 46.992 74.1798 47.5114 74.6991 48.0826C74.6991 48.2903 74.6991 48.524 74.6991 48.7317C74.4914 48.9395 74.2577 49.1731 74.05 49.3809C73.6345 49.9781 73.9461 50.783 73.4008 51.3283V51.3023Z" fill="#D3A65B"/>
<path d="M66.9357 57.7689C66.4942 58.5479 65.7413 58.3921 65.0402 58.418C64.0275 57.8468 63.7419 56.7043 63.0928 55.8475C63.0928 55.406 63.0928 54.9906 63.0928 54.5492C64.8325 54.8867 65.8451 52.8614 67.6107 53.2509C68.3637 54.0299 67.6627 54.5492 67.3511 55.1983C66.9616 56.0033 66.1307 56.7822 66.9357 57.7689Z" fill="#CB7739"/>
<path d="M66.9353 57.7673C65.2735 57.5336 66.3381 56.469 66.4419 55.8198C66.5718 54.8851 67.6883 54.3138 67.6104 53.2493C67.8181 53.0156 68.0258 52.8078 68.2076 52.5742C68.649 52.1327 69.0904 51.6913 69.5578 51.2759C69.7655 51.925 69.9733 52.6001 70.181 53.2493C69.7396 53.6647 69.3241 54.1061 68.8827 54.5216C68.675 54.7553 68.4413 54.963 68.2336 55.1967C67.4546 55.8718 67.0651 56.7806 66.9353 57.7673Z" fill="#C1692D"/>
<path d="M68.208 52.5741C67.8964 52.5741 67.5849 52.6001 67.2473 52.5741C66.1568 52.4703 64.8065 52.9896 64.1055 51.6913C63.7419 51.0422 64.3391 50.7306 64.8844 50.7046C66.3645 50.6267 67.9743 50.3411 68.208 52.5482V52.5741Z" fill="#E3A152"/>
<path d="M58.4964 48.6804C58.2887 48.8881 58.0809 49.1218 57.8732 49.3296C56.2633 49.1478 57.302 48.1611 57.3539 47.5379C57.3539 47.3562 57.8472 47.0446 57.9771 47.1225C58.7301 47.4341 58.4445 48.1352 58.4964 48.7064V48.6804Z" fill="#E9D0AF"/>
<path d="M63.0931 55.8469C64.651 56.0027 64.7808 57.275 65.0405 58.4174C64.7549 58.9108 64.2615 59.0406 63.7422 59.0147C63.898 57.8981 62.1064 57.1711 63.0931 55.8469Z" fill="#AF6225"/>
<path d="M72.7777 57.1701C73.0114 55.5603 70.8043 55.4045 70.8303 53.8985C71.4794 53.6648 72.1286 53.4311 72.7777 53.2234C73.1932 52.7819 73.6346 52.3665 74.3097 52.3925C75.3223 52.7819 75.7118 53.483 75.3483 54.5476C75.1406 56.0536 73.7125 56.3652 72.7777 57.1701Z" fill="#C08C25"/>
<path d="M75.3489 54.5484C74.9334 53.8993 74.518 53.2761 74.1025 52.627C73.5313 52.3673 73.791 51.6663 73.4015 51.3028C72.9081 50.4199 73.012 49.7448 74.0506 49.3553C75.4528 50.8354 78.5167 51.9259 75.3489 54.5484Z" fill="#D8A03D"/>
<path d="M74.6988 48.0571C74.0497 47.8493 73.4265 47.6156 72.7773 47.4079C73.7467 45.5903 74.6036 45.1489 75.3479 46.0837C75.8413 46.3953 75.9711 46.8626 75.9971 47.4079C75.4778 47.4339 74.9844 47.5378 74.6988 48.0571Z" fill="#EBC57E"/>
<path d="M70.7783 47.4339C71.5832 48.862 71.9208 50.0823 69.5579 50.0044C69.3242 49.589 69.0905 49.1476 68.8828 48.7321C68.9088 47.9012 69.3242 47.4598 70.1811 47.4079C70.3888 47.4079 70.5965 47.4079 70.8043 47.4079L70.7783 47.4339Z" fill="#DDBC86"/>
<path d="M11.9146 37.7487C15.0045 38.7095 18.1723 39.4884 21.1064 40.9685C22.3787 41.6176 23.4692 42.3446 24.1703 43.6169C24.7675 44.8633 24.404 46.0317 23.9626 47.2261C23.7808 47.4858 23.5212 47.6416 23.2096 47.6676C22.145 47.4339 22.6903 46.1096 21.8853 45.7201C21.5218 45.5644 21.2362 45.3047 20.9765 45.0191C20.4313 44.2401 19.5744 44.5517 18.8474 44.3959C16.6143 42.9938 14.1216 42.3187 11.6549 41.5397C11.3953 41.4358 11.1356 41.28 10.9019 41.1242C9.16225 39.774 7.21481 39.1768 5.03371 39.4884C4.33264 39.6183 3.65754 39.5144 2.95647 39.4884C2.12557 39.5404 1.37257 40.0856 0.489743 39.8519C-0.0295674 39.4105 -0.263244 38.9431 0.437825 38.4498C1.03503 38.2161 1.6582 37.9824 2.25541 37.7228C5.05969 37.2814 7.83801 37.2554 10.6423 37.7228L11.8886 37.7747L11.9146 37.7487Z" fill="#C9C6AC"/>
<path d="M4.20324 42.8907C3.99551 43.3061 3.78778 43.7216 3.58006 44.137C2.41161 43.6956 2.28178 42.4493 1.63264 41.5924C1.03544 41.0991 0.56807 40.5538 0.931587 39.7229C1.373 38.9439 2.20388 38.7622 2.95688 38.4246C4.30708 39.671 3.89165 41.3847 4.20324 42.8907Z" fill="#B4B68B"/>
<path d="M73.401 51.3028C73.9203 51.5884 74.0501 52.0818 74.102 52.627C73.7904 53.1204 73.2971 53.2502 72.7518 53.2242C71.9988 52.2635 73.0374 51.9 73.401 51.3028Z" fill="#D3A65B"/>
</svg>
