<svg width="100" height="110" viewBox="0 0 100 110" fill="none" xmlns="http://www.w3.org/2000/svg">
<path d="M56.461 1.83687C58.2784 1.49044 59.8426 2.40904 61.5808 2.4169C64.0736 3.07372 66.5065 3.83213 68.4519 5.52968C68.8363 5.92984 69.2187 6.35527 69.6291 6.75516C69.5966 8.523 72.4861 8.7466 71.7231 10.9005C70.7888 12.2481 69.5141 13.2961 70.6608 15.2542C71.3725 16.4591 70.9069 18.4585 70.1589 20.082C69.6595 21.1727 69.4978 22.2601 69.5264 23.5728C71.1646 22.5212 72.8737 21.8981 74.6612 21.6024C74.943 21.6501 75.167 21.7741 75.3592 21.9742C75.8884 22.8527 76.7637 22.9449 77.7585 22.834C79.2564 22.5917 80.1947 23.2136 80.5609 24.5229C80.8849 25.7065 79.9668 26.1701 79.0506 26.6086C78.25 26.8943 77.4409 26.9529 76.6195 26.8349C76.3118 26.7875 76.0079 26.6895 75.7319 26.566C74.6015 25.7441 73.3483 25.5041 71.8588 25.9735C69.9978 26.5476 68.1304 27.8793 66.5175 25.5725C65.9805 24.7951 64.6163 25.9955 63.7825 26.7108C62.0592 28.1926 61.3132 27.7708 60.8736 25.7299C60.2587 22.9333 61.4275 19.8916 60.1256 17.2533C58.8095 15.4737 59.0114 13.5275 59.9724 11.4978C60.5315 9.29546 60.9627 7.06913 60.2192 4.9303C59.7783 4.25296 59.1063 3.88092 58.3803 3.53469C57.7219 2.98577 56.1902 3.32935 56.435 1.83713L56.461 1.83687Z" fill="#ECD5D8"/>
<path d="M93.732 51.0138C93.7008 51.4187 93.6455 51.7986 93.5883 52.2038C90.8101 56.8847 86.7626 60.1621 81.7825 62.3868C80.8669 62.8006 79.9571 63.1384 79.1318 63.7283C78.358 65.0005 77.3331 65.82 75.7782 65.7597C74.7377 65.7701 73.7928 65.552 73.1808 64.7236C73.0462 64.4468 73.0436 64.1433 73.1191 63.8391C74.0035 62.8187 76.4552 62.0355 73.8949 60.5185C73.6745 60.3437 73.5119 60.0925 73.4293 59.8151C73.6212 58.6752 74.5264 58.0592 75.4947 57.9737C78.2975 57.6927 80.6114 56.0005 83.1931 55.216C86.0128 54.3786 87.8018 52.4134 88.2915 50.1073C88.9757 46.9647 90.5195 47.5056 92.4535 48.0425C93.6813 48.6372 94.9351 49.2316 93.734 50.9885L93.732 51.0138Z" fill="#EBCDD3"/>
<path d="M92.926 34.5039C93.437 35.904 95.2478 36.4639 95.2444 38.1949C94.6739 40.6085 96.0174 43.5812 92.4501 45.1199C91.6523 45.4535 92.112 46.1767 92.3274 46.7266C92.6144 47.351 93.0522 48.0242 92.0091 48.5358C90.5825 48.6746 89.4226 47.6821 87.7793 48.2996C86.2944 48.8655 86.0945 47.4374 86.3811 46.3811C86.9286 44.2687 87.0934 42.1097 87.6905 40.022C87.4904 39.2713 86.8627 38.7253 86.6626 37.9746C86.6322 37.6989 86.6771 37.4476 86.7497 37.171C86.7376 36.3182 88.3085 35.2999 86.658 34.6632C86.3546 34.5908 86.1027 34.5179 85.827 34.4202C83.8373 32.156 84.0524 31.0251 86.7073 29.9716C87.025 30.1944 87.0296 30.4703 86.7748 30.7738C85.9192 32.5378 87.155 32.2001 88.2294 32.2903C90.0986 32.4233 92.0489 32.5053 92.9003 34.5042L92.926 34.5039Z" fill="#EBCDD3"/>
<path d="M79.6036 26.0836C80.0395 25.4964 80.897 25.1837 80.1952 24.1517C79.4933 23.1196 78.7063 23.5329 77.8422 23.5922C77.3131 22.6851 75.7109 23.5374 75.3336 22.35C75.3492 22.1471 75.3668 21.9189 75.3824 21.716C73.2308 20.5716 72.9271 19.1048 74.8961 17.2098C76.6241 17.0913 76.86 18.7615 77.842 19.5374C80.1533 21.3137 83.1435 21.7148 85.6704 23.0582C86.5716 23.5307 87.6226 23.7483 88.1178 24.7571C88.3264 24.755 88.5349 24.753 88.7434 24.7509C89.3742 26.3665 88.9983 27.8655 87.7721 29.2462C86.2174 29.8192 85.4896 28.7874 84.6718 27.9085C84.1792 29.2312 83.1374 29.571 81.8583 29.6091C80.894 29.6187 79.9179 29.7804 79.3086 28.8995C78.7032 27.9679 80.5198 27.0375 79.6036 26.0836Z" fill="#EFDCE0"/>
<path d="M88.096 24.8385C84.7129 23.4002 81.0201 22.5992 77.8046 20.677C76.3074 19.8037 75.9132 18.488 75.0338 17.3802C74.3461 16.8287 74.3023 16.0425 74.2866 15.2307C74.3602 14.9508 74.5063 14.7464 74.779 14.5914C75.2062 14.4603 75.5957 14.4818 75.8795 14.8597C77.5868 16.3907 79.8882 16.977 81.8336 18.1251C84.6028 19.7472 87.1477 21.5744 88.096 24.8385Z" fill="#F3E9ED"/>
<path d="M92.1029 48.1949C92.9469 47.1875 91.8384 46.947 91.4331 46.5505C90.3868 45.4844 90.6739 44.7319 92.0858 44.3447C93.9701 43.8035 95.0173 42.8194 94.3132 40.9503C93.8219 39.6544 95.4919 39.24 95.4174 38.1906C97.1375 41.5261 96.7891 45.1294 95.8752 48.7625C95.3518 49.5921 95.1758 50.5687 94.4056 51.2753C94.2006 51.2771 93.9956 51.2789 93.7888 51.3056C94.3194 49.7009 92.7697 49.5392 92.032 48.7955C91.8127 48.6474 91.7453 48.523 91.8316 48.3972C91.9179 48.2715 92.0004 48.1957 92.0772 48.1951L92.1029 48.1949Z" fill="#EDD7DB"/>
<path d="M71.9594 11.8575C72.3844 12.0549 72.7834 12.2525 73.2064 12.475C73.1676 12.9793 73.2603 13.4572 73.7571 13.7294C73.9334 14.1308 74.1336 14.5571 74.3098 14.9585C71.6695 15.287 71.2678 14.7871 71.9594 11.8575Z" fill="#F3E9ED"/>
<path d="M14.8167 91.9916C13.7411 92.5549 13.396 93.6892 12.7364 94.5501C11.9229 95.0606 11.5386 94.6873 11.3066 94.011C11.2735 91.7495 13.338 90.0708 13.635 87.8814C15.7177 84.6192 17.7287 81.2823 20.1576 78.2178C21.1858 76.9261 22.061 75.6108 22.6158 74.0975C22.7901 73.8445 22.9624 73.6167 23.1864 73.3883C24.4872 72.2448 25.1149 70.4543 26.8258 69.6838C27.9365 69.673 28.9966 69.3109 30.095 69.1244C30.5283 69.1956 30.8447 69.4438 31.0483 69.8188C31.1304 70.0945 31.1111 70.346 30.9091 70.6244C30.5825 71.1805 30.254 71.7617 29.9016 72.318C29.6864 73.7777 28.432 74.3176 27.3448 75.0319C26.534 75.8439 25.7471 76.6809 24.9364 77.493C23.5921 77.8579 23.3025 78.9413 22.9374 80.0004C21.9751 81.4423 20.9869 82.8843 20.0265 84.301C18.3688 85.7245 17.3259 87.5441 16.4322 89.4376C16.1006 90.3959 15.8168 91.4039 14.7928 91.9667L14.8167 91.9916Z" fill="#ADB397"/>
<path d="M23.0154 80.0875C22.5717 78.4547 22.2756 76.9212 25.0205 77.5741C24.3607 78.4118 23.701 79.2495 23.0154 80.0875Z" fill="#BCC1B1"/>
<path d="M33.1603 7.46221C34.356 9.11626 35.0129 11.0281 35.3485 13.0694C36.3507 14.8769 37.4036 16.0275 39.0458 13.2344C39.85 11.8885 41.0671 11.2453 42.6334 11.4568C42.9411 11.5042 43.1891 11.6532 43.3793 11.8784C43.5558 12.2806 43.5487 12.7097 43.4357 13.1652C42.9924 15.2143 40.4726 16.6026 41.0405 18.995C41.0172 19.2981 40.9938 19.6013 40.8945 19.8799C40.4674 21.0453 40.2324 22.4108 38.4765 22.3021C36.5597 21.5893 37.0965 19.3373 35.9476 18.0867C35.871 17.7341 35.2368 18.22 35.662 18.0895C35.7418 18.0635 35.7659 18.0885 35.8119 18.1638C36.5247 19.0149 36.1229 19.8519 35.5153 20.6657C32.2256 19.588 31.5642 16.3888 30.3348 13.8263C29.0171 11.0628 27.9272 8.37279 25.0679 6.76062C22.8564 5.49536 23.2971 3.1434 25.7994 1.98247C27.9785 0.976219 30.6626 1.83287 31.7511 3.86663C32.3626 5.02167 32.2756 6.4866 33.1824 7.51248L33.1603 7.46221Z" fill="#E9BAB0"/>
<path d="M33.0244 7.42219C31.8437 7.00647 31.8826 5.82527 31.5925 4.89848C30.9139 2.64387 29.0658 2.18433 26.9191 2.25527C25.5746 2.29336 24.6255 3.2321 24.1812 4.31671C23.6402 5.65349 24.9576 5.9674 25.8266 6.41126C28.7575 7.89043 29.7408 10.5441 30.8082 13.4482C31.7715 16.0267 33.7209 18.1936 35.216 20.566C36.4163 21.7353 36.6182 23.1403 35.901 24.7551C33.2437 26.4389 32.4388 24.487 31.8172 22.8348C30.6219 19.5802 28.9666 16.6064 27.0692 13.7606C26.7444 13.2864 26.4492 12.7616 26.1521 12.262C25.7117 11.613 25.3745 10.963 24.4385 10.7208C21.2749 9.92225 20.52 8.99994 21.3747 5.92658C21.7963 4.46532 21.0881 3.94455 20.4249 3.1721C22.9143 0.98744 26.0583 1.0325 28.936 0.175662C30.361 -0.24006 31.0546 0.808459 31.4087 1.9105C31.9909 3.73893 32.468 5.59351 32.9966 7.44758L33.0244 7.42219Z" fill="#E5C2C1"/>
<path d="M9.47694 17.3901C12.592 16.9062 11.6138 13.8195 13.1239 12.3445C13.9547 11.6315 14.8608 12.6295 15.9859 11.7877C16.8646 11.1245 17.5825 12.5523 17.8136 13.5822C17.0296 15.7045 17.9244 18.8676 19.8503 20.0569C20.7635 20.6269 21.5233 21.1733 21.5914 22.3054C21.5979 22.5571 21.6024 22.834 21.6348 23.0854C21.6917 22.682 21.7505 22.2535 22.2798 22.0972C23.3974 22.3631 24.0369 23.4645 23.5705 24.1488C22.0281 26.3793 23.6195 27.5467 24.4609 29.0489C25.6662 31.2019 25.2677 32.0114 22.834 32.7151C21.2951 31.8744 20.3042 30.2982 18.3939 29.9143C17.8839 29.8186 17.9104 29.1386 18.1064 28.608C18.3781 28.1019 19.3046 27.4886 18.7662 27.0911C18.1281 26.6443 18.314 27.9263 17.7348 28.0579C15.2724 26.4459 13.7766 24.3712 14.8012 21.1388C15.8538 19.8949 16.7732 18.7027 14.4662 18.0961C13.0542 17.959 14.1511 18.8293 14.0502 19.1323C13.6822 20.2184 13.685 21.5274 11.9099 21.0666C10.824 20.7249 11.0564 21.4023 11.008 22.0321C10.9215 23.4931 11.8904 25.0191 10.3622 26.3936C9.99982 26.3971 9.7209 26.3244 9.45168 26.1256C8.68898 23.2633 8.60314 20.344 9.5067 17.3394L9.47694 17.3901Z" fill="#DEADAC"/>
<path d="M17.4399 13.8185C16.6128 13.7763 16.8712 11.0973 15.1032 13.1601C14.3059 14.0771 13.9547 12.2375 13.0184 12.6003C14.4293 8.77369 16.7043 5.51915 20.1877 3.08571C21.6245 3.29857 22.5718 3.46584 21.8387 5.56878C20.7759 8.58395 21.394 8.98174 24.6013 9.45462C25.8323 9.64429 26.0408 10.9804 26.6498 11.8327C26.1091 13.2352 25.0764 13.6158 23.5515 12.9746C23.5807 13.6055 24.091 14.0549 24.0942 14.6861C24.1157 15.4181 24.0813 16.2011 23.1989 16.5382C22.3704 16.8494 21.8023 16.4764 21.2738 15.9262C20.6252 15.251 20.6038 13.5091 18.8118 14.5369C18.0989 14.6956 17.6827 14.3715 17.4678 13.7929L17.4399 13.8185Z" fill="#E0B7BA"/>
<path d="M55.9623 1.85987C56.4606 2.87528 57.9856 2.09588 58.4839 3.11129C60.268 5.10919 58.6262 6.73125 57.1524 7.86719C55.2605 9.33858 52.9277 9.386 51.2938 7.82022C50.0517 6.60779 48.753 6.13545 47.005 6.4069C46.4241 6.13183 45.98 5.77898 45.8735 5.11693C48.6226 1.67381 52.383 2.12302 55.9604 1.88539L55.9623 1.85987Z" fill="#EAC8C8"/>
<path d="M43.3173 11.845C41.4568 12.1156 39.9963 12.9118 39.0843 14.6605C38.7187 15.3701 38.4497 16.5073 37.4903 16.5169C36.4531 16.5272 36.1217 15.4464 35.8229 14.6173C35.6504 14.1652 35.6394 13.6359 35.5466 13.1578C37.1609 14.4023 38.1034 12.9306 39.031 11.9885C41.1093 9.90038 43.0916 7.71237 45.0979 5.54933C46.2966 8.48725 45.9064 9.85261 43.3413 11.8699L43.3173 11.845Z" fill="#EBD5D4"/>
<path d="M43.4589 11.9454C44.9786 10.0167 45.1971 7.84896 45.2123 5.6329C45.4369 5.40405 45.6596 5.20041 45.8583 4.97182C46.281 5.19427 46.7296 5.41646 47.1543 5.61371C47.9812 7.64519 49.0805 9.4977 50.3133 11.2985C49.8267 12.9149 48.9581 13.7797 47.3228 12.8389C46.1323 12.1708 44.5264 12.8666 43.4589 11.9454Z" fill="#E4BCBC"/>
<path d="M11.2725 37.7312C12.1969 35.6948 10.9373 34.0286 10.5823 32.2791C10.372 31.3296 10.4309 30.5529 10.5507 29.6504C10.7086 29.5989 10.8646 29.5725 10.9968 29.5212C13.1098 31.1047 13.6922 33.5782 14.5428 35.899C14.8883 37.0977 15.4649 38.2944 13.9248 39.3097C13.4235 39.4895 12.9355 39.4939 12.457 39.373C11.9537 38.9018 10.8254 38.8869 11.2468 37.7314L11.2725 37.7312Z" fill="#F1F2F5"/>
<path d="M9.27266 17.3581C8.92871 20.3227 9.07082 23.2342 9.88038 26.0416C10.7142 27.1312 11.2379 28.2976 10.3214 29.7228L10.2416 29.7731C7.79597 27.4747 7.32321 21.4538 9.24727 17.3583L9.27266 17.3581Z" fill="#F1F2F5"/>
<path d="M9.32926 46.9855C9.08228 46.783 8.83724 46.5548 8.6165 46.352C8.76029 45.8388 8.93227 45.2997 9.52722 45.0641C11.4784 44.586 13.4315 44.0824 14.7298 45.9905C14.7687 46.1693 14.8095 46.3226 14.8485 46.5014C14.7669 46.886 14.5132 47.1187 14.1136 47.199C12.524 47.0595 10.8519 47.6631 9.32926 46.9855Z" fill="#B3BA95"/>
<path d="M12.9695 43.2501C13.1821 42.8447 13.3966 42.4139 13.6092 42.0085C15.5408 41.485 16.4464 42.5096 17.0318 43.9912C16.7032 45.2298 16.9302 46.9923 14.6232 46.3346C13.973 45.3578 12.6454 44.766 12.9695 43.2501Z" fill="#D4D8B1"/>
<path d="M16.6638 43.9088C15.6196 43.2867 14.5754 42.6646 13.5553 42.0676C12.9691 41.2386 12.3829 40.4095 11.7987 39.5552C11.7154 38.9488 11.919 38.6685 12.582 38.8389C12.9685 38.8857 13.379 38.9575 13.7654 39.0042C13.9879 39.1538 14.1285 39.3548 14.241 39.5813C14.82 40.8406 16.2143 41.3073 17.075 42.2854C17.4302 42.7373 17.7035 43.2406 17.4725 43.8754C17.1967 44.0805 16.9345 44.1084 16.6619 43.9341L16.6638 43.9088Z" fill="#ADB28F"/>
<path d="M12.9092 43.196C13.9208 43.9751 14.1951 45.1685 14.578 46.3099C13.0531 45.4085 11.4245 44.8389 9.49607 45.112C10.5058 44.2116 12.061 44.3747 12.9092 43.196Z" fill="#C3CAA1"/>
<path d="M12.4525 38.8569C12.2002 39.0876 11.9199 39.344 11.6677 39.5747C10.8919 38.8217 10.09 38.069 9.14345 37.1656C10.3598 36.5957 10.6187 37.6327 11.2445 37.6265C11.6565 38.0281 12.0424 38.43 12.4525 38.8569Z" fill="#CAD0CB"/>
<path d="M43.7504 11.8502C45.3943 11.6827 47.0512 11.0112 48.5548 12.3316C49.7448 13.3528 49.3715 11.1394 50.2505 11.1559C50.5866 10.825 50.9889 10.6446 51.4591 10.5896C53.2942 10.2942 52.3732 12.1678 53.1616 12.6891C53.8255 12.8085 54.2408 13.1319 54.3685 14.1636C54.7239 11.565 56.0833 9.71228 57.4111 7.93547C58.8521 6.03155 59.5103 6.22659 60.3422 8.53627C60.4077 9.36705 60.2361 10.2506 60.5626 11.0536C59.7097 13.0524 58.7013 15.0528 60.7496 16.6954C60.9922 20.2707 60.3201 23.9558 60.9034 27.4773C58.8268 28.5561 57.9692 28.2622 57.5343 26.1754C57.2103 24.6669 57.6157 23.1008 57.5528 21.5645C57.5586 21.4889 57.5683 21.3628 57.5242 21.2625C57.2061 20.6861 57.1298 21.342 56.9406 21.4446C56.1285 22.914 55.2774 23.8798 54.0796 21.9517C53.7616 23.391 54.4173 25.2993 52.7527 26.0716C51.5719 26.6124 51.1863 25.2305 51.1124 24.1731C51.3092 22.9618 51.4024 21.7515 50.625 20.7514C50.3776 20.6027 50.8322 19.7416 49.7136 20.4833C48.6468 21.2245 48.8315 21.8526 48.4921 22.5614C48.0414 23.3721 47.9022 24.5073 46.5367 24.42C46.0813 23.9458 45.9984 23.342 46.021 22.7119C46.5824 20.464 47.2494 18.1898 45.8261 16.1631C45.442 15.4363 44.7359 15.1914 43.9722 15.0226C43.4708 14.4733 43.6029 13.7665 43.6294 13.086C43.6604 12.6825 43.6915 12.2791 43.7245 11.8505L43.7504 11.8502Z" fill="#E4B4B0"/>
<path d="M51.4332 11.2905C50.9918 11.2949 50.5764 11.2991 50.135 11.3035C48.5036 10.4784 47.5671 8.60298 47.3257 5.67729C48.0858 5.24057 48.8718 4.8036 49.63 4.39214C51.0061 7.40745 53.4519 8.99849 55.984 7.78679C57.6801 6.98732 59.1367 5.25629 58.5291 3.04104C59.1451 3.464 59.7631 3.8617 60.3531 4.28492C60.0584 5.75191 61.034 7.23145 60.0123 8.70571C59.0854 6.59464 58.2448 7.73894 57.4464 9.00904C56.0548 11.2443 54.989 13.6277 53.9543 16.6166C52.9969 15.2379 54.543 13.3545 52.5834 13.1974C52.2627 12.6453 52.7872 12.2361 52.904 11.7301C52.9871 11.3254 53.2896 10.7671 52.808 10.6204C52.2783 10.4238 51.8019 10.8829 51.4312 11.3157L51.4332 11.2905Z" fill="#E8C3C3"/>
<path d="M72.005 11.7959C72.3919 13.1176 71.9649 15.0463 74.3332 14.876C74.7103 15.6478 74.9574 16.4457 74.787 17.3472C73.4841 19.0085 74.1234 20.378 75.0976 21.7197C73.2187 23.2109 70.4251 22.9098 68.7299 25.6995C68.3628 22.0775 70.261 19.3111 70.2491 16.4111C70.2612 15.911 70.4858 15.309 70.2835 14.9358C69.0203 12.6715 68.9928 12.6968 71.4135 11.1509C71.6034 11.3493 71.817 11.5725 72.0069 11.7709L72.005 11.7959Z" fill="#EFDADF"/>
<path d="M61.0113 28.0334C60.2852 24.2962 60.8382 20.4955 61.2351 16.6964C62.3385 19.9239 60.9722 23.4797 62.0958 26.7828C63.6443 27.2734 63.2923 24.4179 65.1446 24.6777C66.1739 24.8192 67.7496 22.9312 67.9331 25.6112C68.0118 26.9514 69.1667 25.8013 69.9292 25.6925C72.0085 25.368 74.488 22.8891 76.0937 26.0103C76.3468 27.4499 75.2245 27.8407 74.2004 28.3063C71.8387 28.5829 69.8739 31.1327 67.2532 30.0456C66.2135 27.6778 64.5968 28.0734 62.7679 29.5339C62.4738 29.638 62.1596 29.6665 61.8493 29.6443C61.3906 29.5224 61.0477 29.2475 60.8428 28.87C60.7621 28.5672 60.8356 28.2882 61.0633 28.0329L61.0113 28.0334Z" fill="#E7CACE"/>
<path d="M79.6146 25.9443C83.311 26.7465 78.7264 27.6551 79.4193 28.4867C78.7437 29.1284 78.0104 29.161 77.2465 28.9144C76.0031 28.1137 76.238 27.0952 77.0271 25.995C77.889 25.9866 78.7508 25.9782 79.6127 25.9697L79.6146 25.9443Z" fill="#F5EBED"/>
<path d="M76.9647 25.9571C76.9485 26.84 76.5114 27.8028 77.3948 28.4498C76.0348 30.9605 74.9614 31.0973 73.1512 29.0218C73.2018 28.3655 73.6882 28.1085 74.2265 27.8509C75.1157 27.4132 75.8129 26.7757 76.3181 25.9383C76.5256 25.9362 76.7591 25.9339 76.9667 25.9318L76.9647 25.9571Z" fill="#EFDCE0"/>
<path d="M60.1868 8.80177C60.6942 7.35829 59.3599 5.90018 60.4986 4.4532C61.7324 6.60736 60.7804 8.97236 60.6417 11.2583C59.779 10.6173 60.202 9.64622 60.1868 8.80177Z" fill="#EAC8C8"/>
<path d="M75.246 22.3098C75.8391 23.1216 77.8151 21.5966 77.7702 23.5636C76.7575 23.4452 75.3516 24.02 75.246 22.3098Z" fill="#EFDADF"/>
<path d="M91.8368 47.9629C91.8212 48.1652 91.8056 48.3674 91.7881 48.5949C90.507 48.7088 88.8433 47.3866 88.9316 50.6193C88.9563 51.9832 86.8111 54.8846 83.7091 56.0524C80.2874 57.3246 76.4864 57.7921 73.4246 60.1216C72.339 62.0777 70.3056 61.8454 68.7705 61.886C67.6531 61.8972 67.4959 60.2315 67.7194 59.0167C67.85 58.3333 67.9845 57.5993 69.1441 57.714C71.9012 57.9896 72.1136 57.2548 71.5205 54.5072C71.2542 53.2467 69.5242 50.763 73.0128 49.9702C73.5143 49.8642 73.2688 49.0077 73.5657 48.5248C74.4992 47.5302 75.4932 46.7623 76.8737 47.3801C77.09 47.6053 77.3823 47.855 77.3609 48.1331C77.2693 49.3213 78.4542 50.1179 78.0969 51.3846C79.8191 50.9379 81.4932 51.4516 83.2161 51.3333C84.4432 51.2452 84.5875 50.3849 84.3958 49.5026C84.1477 48.343 84.0353 47.1063 83.3636 46.052C80.5831 49.1113 79.2065 49.4535 77.1361 47.6806C76.9321 45.6111 79.7951 45.8604 80.0576 44.1399C80.2934 43.1018 80.7495 42.2383 81.9624 41.9988C82.7354 41.7384 83.4331 42.7924 84.251 41.9506C85.6069 41.2044 86.4677 39.8064 87.9378 39.2611C88.5062 39.6344 89.4384 40.004 88.6965 40.8703C86.9295 42.909 88.0358 45.3989 86.643 47.636C88.7894 46.4019 90.2368 47.4989 91.779 48.0393L91.8368 47.9629Z" fill="#E7C1C6"/>
<path d="M73.4542 48.5374C76.2363 52.1429 71.0952 49.873 71.2347 51.7639C71.8206 53.2467 72.7802 54.9276 74.4814 56.0713C73.8864 57.0612 71.0356 55.0207 72.1775 58.0371C72.5026 58.8665 71.0369 58.7045 70.4589 59.1392C68.9478 60.2392 69.4266 58.0645 68.5481 58.0229C67.963 60.9051 67.963 60.9051 70.551 60.2989C71.4489 60.0881 72.4131 61.0372 73.2292 59.8684C73.4368 59.8664 73.6704 59.864 73.878 59.862C75.0641 62.9788 74.4828 63.792 71.1544 63.5729C70.2519 63.5062 69.2937 63.4906 68.4723 63.0446C68.0311 63.049 67.6159 63.0532 67.1747 63.0576C66.7653 62.986 66.4993 62.7363 66.3449 62.3846C65.9238 61.4553 63.7802 61.6785 64.647 59.8532C66.0509 58.1235 63.9975 58.5225 63.5479 58.2999C59.0815 56.0232 59.0757 56.099 62.8614 52.4026C63.9273 51.3575 64.4944 51.4023 65.4643 52.2757C66.9443 53.5982 68.2367 53.989 69.0236 51.1805C69.5647 49.207 71.3755 48.2554 73.4172 48.0079C73.4432 48.0077 73.5094 48.1584 73.5295 48.2339C73.5217 48.3349 73.5139 48.4359 73.4542 48.5374Z" fill="#E2BBBF"/>
<path d="M68.6291 62.9677C69.3657 62.9098 70.1984 62.6216 70.8651 62.7936C73.9107 63.656 74.3195 62.0729 74.0803 59.7318C75.2907 59.975 76.3574 60.729 75.9798 61.9042C75.6663 62.9261 74.4806 63.727 73.1335 63.5616C72.0255 64.0306 70.9245 64.0666 69.8887 63.5925C69.4595 63.3928 69.0584 63.1674 68.6291 62.9677Z" fill="#E7C1C6"/>
<path d="M73.6926 28.4168C74.8173 30.681 76.1561 29.8333 77.5676 28.378C78.2178 28.3715 78.868 28.365 79.4922 28.3587C81.0103 28.2171 83.1149 30.244 83.7625 26.9001C83.8081 26.6468 84.4296 26.3372 84.8035 26.2071C85.4712 25.9728 86.0284 26.4982 85.8392 26.9299C85.23 28.4277 86.9159 28.1327 87.1955 28.8884C86.9282 29.3209 86.661 29.7534 86.4217 30.1603C84.4497 31.4695 83.676 32.7414 86.1811 33.9552C86.8592 35.9458 84.6486 36.9793 84.2377 38.6016C84.1122 38.8809 83.9386 39.1102 83.6889 39.315C83.0953 39.599 82.4971 39.605 81.9764 39.2816C81.7839 39.0812 81.6734 38.8295 81.6448 38.5264C81.4504 37.34 83.1922 35.9825 81.6136 34.8859C81.3633 34.762 81.1409 34.6125 80.9465 34.4375C80.5116 34.012 80.0525 33.5615 79.9674 32.9808C79.6826 30.6071 78.1599 30.4706 76.1366 31.0977C75.4805 31.1801 74.8466 31.3128 74.2023 31.2434C72.0313 30.0768 71.9442 29.5215 73.6386 28.4426L73.6926 28.4168Z" fill="#E7CACE"/>
<path d="M84.1196 38.9069C84.1351 38.7055 84.1525 38.4789 84.168 38.2775C84.8175 36.8875 85.5071 35.648 86.7768 37.623C87.1144 38.2738 88.1037 38.5156 87.9248 39.4985C87.5728 41.3888 85.8569 41.8584 84.476 42.677C83.2402 41.6073 82.5533 40.4568 84.1196 38.9069Z" fill="#E3B8BD"/>
<path d="M86.7341 37.6942C85.6618 36.8493 84.9054 37.6115 84.1251 38.3488C83.8822 36.4642 86.1446 35.6118 86.4016 33.9488C86.6085 33.9468 86.8154 33.9447 87.0224 33.9427C88.6346 35.1597 86.8308 36.4353 86.7341 37.6942Z" fill="#E4BEC4"/>
<path d="M86.8145 37.7033C86.6013 36.4554 87.6685 35.1966 87.0949 33.9768C90.5108 35.1725 86.7037 36.4545 86.8145 37.7033Z" fill="#E7CACE"/>
<path d="M3.15196 107.811L2.59194 108.417C2.07954 109.073 1.91846 110.854 0.633896 109.162C-0.0622071 108.517 -0.062155 107.84 0.784515 107.181C1.49025 106.348 0.91514 105.125 1.94561 104.414C3.51513 103.373 3.81714 101.766 4.19248 100.21C4.34876 98.8302 5.13355 97.9711 6.56492 97.7326C7.55334 98.9261 6.11621 99.9164 5.98089 101.02C5.59226 102.076 5.41887 103.004 7.04641 102.889C6.81195 105.297 4.69865 106.393 3.14815 107.861L3.15196 107.811Z" fill="#C0C6B2"/>
<path d="M6.85571 102.939C4.64675 103.79 5.09866 102.277 5.18945 101.095C6.67786 99.8732 7.1271 98.0585 8.16959 96.5899C9.03769 95.3746 9.63235 93.6841 11.5585 93.4893C11.7563 93.94 12.1583 94.0869 12.6474 94.1073C12.7373 94.2824 12.7735 94.4832 12.7322 94.6848C12.1218 95.5708 11.8281 96.7052 10.7259 97.2691C9.74359 98.9633 8.24166 100.361 7.63155 102.253C7.4533 102.556 7.34485 102.96 6.85764 102.914L6.85571 102.939Z" fill="#B1B89E"/>
<path d="M53.2896 63.5567C52.0845 62.6846 50.8774 61.8377 49.6983 60.9653C49.048 59.6328 48.9596 58.4211 50.665 57.5198C52.0982 57.4549 53.2748 58.0242 54.246 58.8987C55.1692 59.7231 56.2216 60.2179 57.521 60.2048C57.9829 60.276 58.439 60.423 58.8112 60.6467C59.6123 61.3713 60.1118 62.301 60.4217 63.3337C60.6426 64.8473 60.9434 66.3349 61.376 67.7958C61.5592 68.4509 61.8587 69.2816 61.0161 69.77C60.0916 70.3098 59.7661 69.4794 59.3114 68.9786C57.4923 66.9758 55.4498 65.1772 53.2676 63.5064L53.2896 63.5567Z" fill="#9FA868"/>
<path d="M53.463 63.4655C56.413 64.7959 58.8804 66.685 60.878 69.6361C61.0621 67.2425 59.5928 65.4947 59.9608 63.4014C60.1335 63.1731 60.3743 63.07 60.6532 63.1428C61.3309 63.413 61.406 64.1172 61.7536 64.6425C62.7385 67.9813 63.5123 71.3725 62.9007 75.9607C60.4976 70.5463 56.6354 67.2862 53.4889 63.4652L53.463 63.4655Z" fill="#A1B27A"/>
<path d="M61.6893 64.8922C61.303 64.4898 60.8906 64.0877 60.5042 63.6854C60.0023 62.7511 59.4443 61.8682 58.6358 61.1908C58.2723 61.169 57.9089 61.1472 57.5454 61.1254C55.5434 60.0282 54.0066 58.6472 54.6554 55.9755C56.5893 55.2457 57.2792 56.7873 58.2829 57.6405C60.7065 59.6981 62.956 61.9859 66.5043 62.3063C66.6975 62.5075 66.8906 62.7087 67.0838 62.9098C66.0941 63.9096 64.8804 63.4138 63.7947 63.6276C62.7383 63.4603 61.9377 63.6967 61.6893 64.8922Z" fill="#E7C1C6"/>
<path d="M45.5951 58.0313C43.2613 55.0774 41.8451 57.5333 40.349 59.3286C40.0419 59.586 39.7543 59.5887 39.4862 59.3369C38.7296 58.3012 39.2292 56.8972 38.6595 55.8088C38.4004 55.0989 38.1433 54.3637 38.6725 53.5953C40.8608 53.6759 42.6928 55.3373 45.0841 54.4747C45.8723 54.4162 46.5887 54.6127 47.2431 54.9371C47.6177 55.1625 47.8818 55.4652 47.9251 55.9227C47.2372 56.718 47.781 58.8243 45.5951 58.0313Z" fill="#9DA86B"/>
<path d="M33.5444 68.3211C32.7168 69.0081 31.8873 69.7202 31.0339 70.4075C30.7928 70.1835 30.5518 69.9595 30.3365 69.7353C29.9915 67.5008 28.9545 65.1975 31.5826 63.2609C33.7407 62.7369 33.4125 65.3301 34.9123 65.6424C35.008 65.742 35.0778 65.8419 35.1734 65.9416C34.6225 66.7264 34.0954 67.5362 33.5444 68.3211Z" fill="#929866"/>
<path d="M39.2516 55.4783C40.2972 56.5701 39.4745 57.9537 39.6107 59.2036C39.7716 60.1281 39.1521 60.8592 38.7836 61.6632C38.3627 62.1424 37.9418 62.6216 37.5446 63.1255C37.2975 63.0026 37.1349 62.7788 37.0788 62.5041C37.0376 61.3534 36.5489 60.3567 36.1647 59.3342C36.081 59.0847 36.0506 58.8097 36.0714 58.5343C36.303 57.5062 37.0908 56.9237 37.9041 56.341C38.3374 56.0369 38.7489 55.6829 39.2753 55.5031L39.2516 55.4783Z" fill="#858F68"/>
<path d="M45.7311 58.0232C47.3644 58.36 46.3635 55.8726 47.9009 56.1095C49.1515 55.6934 49.9072 56.3165 50.5138 57.1934C50.5942 57.4953 50.5229 57.7483 50.2718 57.9778C49.9864 58.9898 49.6991 60.027 49.4396 61.0386C48.2201 60.0417 46.9746 59.0451 45.757 58.0229L45.7311 58.0232Z" fill="#B4C58A"/>
<path d="M37.5459 63.0064C36.7717 63.9956 36.0214 65.0097 35.2472 65.9988L35.1017 65.8744C34.4984 63.9676 35.3483 63.0029 37.3544 62.807L37.5439 63.0316L37.5459 63.0064Z" fill="#929866"/>
<path d="M38.8336 61.6636C38.7737 60.7622 39.1928 59.9817 39.6633 59.2007C39.8947 59.1985 40.1004 59.1967 40.3319 59.1945C40.1785 60.1981 39.6784 61.0295 38.8317 61.6887L38.8336 61.6636Z" fill="#98A275"/>
<path d="M11.4779 93.6012C8.94609 95.7804 8.23345 99.3967 5.14222 101.155C5.13484 99.9017 6.72854 99.2352 6.64586 97.9575C6.31617 97.5595 6.37248 97.1579 6.76141 96.7783C8.15065 93.7322 9.90869 90.9084 12.5273 88.603C12.7656 88.1747 13.004 87.7463 13.2423 87.318C13.4482 87.3161 13.6798 87.3139 13.8838 87.3371C14.1635 89.741 12.3552 91.5375 11.4779 93.6012Z" fill="#C2C7AF"/>
<path d="M2.20226 104.749C2.23428 104.324 2.26443 103.923 2.29645 103.498C2.80913 102.469 3.32181 101.44 3.83449 100.41C4.01078 100.109 4.21758 100.082 4.43115 100.305C4.42547 102.08 4.31921 103.831 2.17853 104.724L2.20226 104.749Z" fill="#D1D3C6"/>
<path d="M38.3014 56.5952C37.4448 57.0538 36.7804 57.6859 36.2826 58.4919C35.5907 59.1494 35.0691 59.9305 34.5733 60.7114C33.8509 61.7699 33.2255 62.9026 31.9996 63.4898C30.3597 64.4564 30.5301 65.9325 30.6548 67.3339C30.7443 68.1847 31.4505 69.0298 30.2884 69.7917C29.2938 70.3768 28.3382 71.4624 27.1313 70.4465C26.9762 68.0936 27.927 66.0563 29.5069 64.1886C30.8661 63.1995 31.7836 61.9389 32.4098 60.4555C33.137 59.6725 33.9136 58.9141 34.5932 58.0814C36.4035 55.8861 37.2629 53.6993 35.0091 51.5908C35.2642 50.9373 35.7458 50.6825 36.4158 50.6514C37.3552 50.7931 37.9539 51.3638 38.3575 52.1365C38.4812 52.5361 38.5022 52.9367 38.2661 53.3395C37.2791 54.5006 39.4977 55.3821 38.2776 56.5703L38.3014 56.5952Z" fill="#B9BA94"/>
<path d="M30.9524 49.9267C30.7072 49.3681 30.3475 48.9379 29.7045 48.791C28.0248 48.1693 26.3209 47.5223 24.6412 46.9006C24.2679 46.6492 23.7839 46.4752 23.7201 45.9403C23.7067 45.4305 23.8708 44.9954 24.414 44.7353C27.3375 44.1468 29.4569 46.5494 32.3426 46.1142C32.8363 46.1606 33.2698 46.3095 33.6693 46.5607C34.3254 47.906 34.3589 49.1807 32.8407 50.215C32.22 50.1188 31.5973 50.0482 30.9766 49.952L30.9524 49.9267Z" fill="#7F845D"/>
<path d="M32.9621 50.1681C33.7099 49.1565 32.905 47.8835 33.8573 46.895C34.8904 46.5336 35.2513 47.2081 35.6121 47.8827C35.7061 49.0118 36.4567 49.984 36.156 51.2173C35.7278 51.4223 35.3255 51.6271 34.8992 51.8069C33.9915 51.5394 33.2799 51.0691 32.9621 50.1681Z" fill="#98A275"/>
<path d="M32.3871 46.9224C29.1844 47.591 26.8815 45.3782 23.9868 45.0948C23.2284 45.0499 22.536 44.8248 21.8173 44.5999C22.65 45.0548 23.509 45.5094 23.9428 46.3781C24.1377 46.5817 24.3325 46.7854 24.4991 47.0149C23.4214 47.024 22.3173 47.0334 21.2415 47.0168C19.8633 46.1304 17.9695 45.8129 17.536 43.8921C17.3304 43.4833 17.1529 43.0486 16.9472 42.6397C17.3322 41.7127 18.144 41.398 19.0474 41.262C22.1531 41.1844 24.6999 42.5997 27.4032 43.6802C28.827 44.3096 30.4073 44.6042 31.7971 45.3365C32.3163 45.7683 32.7021 46.227 32.3569 46.974L32.3871 46.9224Z" fill="#959A68"/>
<path d="M17.5067 43.7652C18.7349 44.7975 20.4487 45.2904 21.1911 46.8621C19.2036 47.2121 17.1508 46.366 15.2015 47.5814L14.9419 47.5585L14.6803 47.561C14.6416 47.3831 14.6291 47.205 14.6427 47.0266C14.6603 46.7972 14.6779 46.5679 14.6954 46.3385C16.3776 46.2206 16.0557 44.6194 16.7964 43.823C17.0319 43.8207 17.2693 43.793 17.4806 43.7655L17.5067 43.7652Z" fill="#C3CAA1"/>
<path d="M35.9749 24.8003C35.8782 23.3681 35.7835 21.9108 35.6868 20.4787C35.9249 19.3953 35.5208 18.2678 36.3036 17.1539C38.4623 17.9626 37.4939 20.4862 38.8206 21.7053C39.3135 21.6753 38.9839 23.6145 40.0818 22.0953C40.7457 21.1837 40.2383 20.0573 40.9261 19.1706C41.3555 18.2864 40.7342 16.96 42.1128 16.494C43.1477 16.1319 43.5789 16.9071 43.8808 17.6836C43.8929 19.544 43.4916 21.4084 43.5296 23.2685C42.3001 25.493 41.0066 27.5421 37.9226 26.3401C37.0451 25.9967 36.9906 27.38 36.2276 27.5634C35.8658 27.567 35.619 27.4185 35.4593 27.1435C35.1096 26.3172 35.3245 25.5357 35.973 24.8254L35.9749 24.8003Z" fill="#E3A894"/>
<path d="M43.5754 18.0209C41.3343 15.3322 41.9628 19.2405 40.9281 19.3005C39.2875 16.5057 42.4855 15.0955 43.3386 13.0299C44.0515 13.4749 43.865 14.2294 43.839 14.9071C44.6862 15.9529 44.5818 16.9827 43.5992 18.0458L43.5754 18.0209Z" fill="#E5A79A"/>
<path d="M40.9114 19.1911C40.8435 20.0919 40.9256 21.0413 40.6308 21.894C40.3617 22.7464 40.4478 24.3209 39.2529 24.2062C37.8293 24.0684 38.6799 22.6359 38.8266 21.7095C40.6203 21.694 39.8468 19.7254 40.937 19.1909L40.9114 19.1911Z" fill="#E5A79A"/>
<path d="M18.9637 14.2509C19.0726 13.4975 19.3399 12.6924 20.2431 12.6589C21.1722 12.6251 21.1213 13.6288 21.4912 14.1771C21.9527 14.875 22.04 16.4291 23.1341 15.9173C24.2302 15.3804 23.7813 14.1807 22.9908 13.4107C22.5598 12.9883 22.1365 12.4656 22.7271 11.808C23.5132 10.948 24.4629 11.9925 24.5325 12.0921C25.5003 13.2367 26.149 12.8294 26.8275 11.6945C27.0009 12.1192 27.2021 12.5186 27.3755 12.9433C27.492 15.8013 27.4559 18.6356 26.8256 21.5006C25.7721 23.1656 27.3179 24.1544 27.6304 25.4556C27.919 26.7319 28.6321 28.1799 26.1998 28.3531C24.9648 28.0135 24.8726 26.8607 24.5333 25.9109C24.2896 24.3833 23.5155 23.0614 23.06 21.611C22.7265 20.5859 22.5639 22.042 22.1891 21.895C20.854 21.1802 20.1714 20.0079 20.1518 18.5785C20.1456 16.9735 19.4726 15.6756 18.9875 14.2757L18.9637 14.2509Z" fill="#DEADAC"/>
<path d="M26.3841 21.1226C27.4477 18.9815 26.4576 16.7843 27.0339 14.6226C27.1809 14.0446 26.997 13.4195 27.6474 12.9872C29.8149 15.5997 31.4979 18.4925 32.5326 21.7926C32.988 23.2426 33.2821 25.1203 35.6792 24.7219C35.6141 25.575 35.5491 26.4281 35.5098 27.281C35.841 29.6849 34.2201 30.0259 32.3905 30.068C31.0004 30.081 30.4284 29.4845 31.1219 28.1492C31.4548 27.4942 32.1366 26.9864 32.0949 26.1844C31.8913 24.1303 28.3578 24.5894 28.9467 21.9262C28.7663 22.6049 28.9206 23.2804 28.5401 23.8857C28.3646 24.1631 28.1195 24.3409 27.7791 24.4193C26.4168 23.7299 25.6934 22.7588 26.3822 21.1477L26.3841 21.1226Z" fill="#E4A798"/>
<path d="M15.0795 21.0364C14.6524 23.9071 16.3647 25.8266 17.7552 27.9001C18.3593 27.7685 18.5784 27.9424 18.3511 28.5481C19.3312 30.2484 22.3661 29.7411 22.5884 32.2283C22.6964 32.5039 22.6273 32.7308 22.3812 32.9093C21.2821 33.096 20.5905 32.3484 19.7387 32.0046C18.8966 31.5351 17.9932 31.1919 17.2938 30.5449C16.0236 28.9228 15.2477 26.9187 13.6203 25.5768C12.8412 23.9499 10.3596 22.9683 11.9227 20.4385C14.7471 19.9835 12.5391 17.7922 13.7614 16.6739C14.4334 16.6674 14.0144 17.7527 14.6748 17.8971C16.1399 18.6623 16.029 19.7698 15.0814 21.0112L15.0795 21.0364Z" fill="#D6A09E"/>
<path d="M22.8376 32.8571C22.8546 32.6318 22.8697 32.4316 22.8867 32.2064C25.2654 32.2607 25.1348 30.9363 24.255 29.6934C23.0998 28.0277 21.3796 26.7171 23.3338 24.249C23.7011 23.7956 23.037 22.7509 22.3588 22.2316C22.2144 22.1078 22.1488 21.9583 22.2096 21.8327C22.2722 21.6821 22.3272 21.6316 22.3785 21.6311L22.5523 19.3286C24.3297 21.239 24.416 23.4892 25.2742 25.3576C24.648 26.8637 25.6349 27.7055 26.2953 28.8002C27.3405 30.5669 29.432 32.0494 27.9754 34.7132C26.3397 35.6779 25.8405 33.8064 24.6449 33.6917C24.0904 33.5715 23.5358 33.4513 23.0694 33.1802C22.9744 33.081 22.9051 32.9816 22.812 32.8573L22.8376 32.8571Z" fill="#E29C9D"/>
<path d="M22.0735 21.7264C22.0581 21.9272 22.0428 22.128 22.0256 22.3538C22.0026 22.655 21.9777 22.9813 21.9032 23.2829C21.8049 23.5597 21.4195 23.8894 21.3786 23.4132C21.161 20.5311 17.7151 20.1621 16.8994 17.3608C16.3677 15.5601 16.6016 14.8557 17.5672 13.6679C17.9897 13.8646 18.3864 14.0615 18.807 14.2833C20.7631 14.6161 20.7578 16.3717 20.6859 17.6514C20.5557 19.3581 21.1314 20.5816 22.0696 21.7766L22.0735 21.7264Z" fill="#DFBDBD"/>
<path d="M11.7289 20.4199C11.2802 22.6255 13.6214 23.5307 13.9175 25.3795C13.1454 26.437 13.3634 27.9613 11.9727 28.7241C10.4325 28.4123 9.82803 27.592 10.6636 26.0335C10.3857 24.2846 9.8275 22.5132 9.93624 20.7359C10.0496 18.5583 11.0342 19.7756 11.7565 20.3947L11.7289 20.4199Z" fill="#E19A9A"/>
<path d="M10.7777 25.938C10.4615 27.3939 11.3946 27.9616 12.5152 28.4273C13.9073 29.0409 14.4804 30.2883 15.0516 31.5607C14.5374 32.9182 14.8382 34.3685 14.1973 35.7021C14.0869 35.8033 13.9507 35.9047 13.8422 35.9809C12.7444 33.8615 11.6467 31.7421 10.5471 29.6478C10.4091 28.4215 10.2453 27.1954 10.1093 25.9441C10.3406 25.942 10.5463 25.9401 10.7777 25.938Z" fill="#E3ACB5"/>
<path d="M18.4338 28.5016C18.244 28.2768 18.0265 28.0774 17.8367 27.8526C18.3352 27.0921 16.9539 25.8715 18.4056 25.5045C19.5407 25.2162 19.9397 26.4213 20.1049 27.3012C20.3848 28.709 19.1687 28.3684 18.4338 28.5016Z" fill="#DEC7CB"/>
<path d="M14.9513 21.1221C15.0868 20.018 15.0642 18.9654 14.5449 18.0177C15.3792 16.1801 16.3652 17.7502 16.2651 18.0519C15.9037 19.083 17.9419 21.0193 14.977 21.1219L14.9513 21.1221Z" fill="#E1B8B9"/>
<path d="M13.7998 39.6003C13.8134 39.4236 13.8011 39.2472 13.7609 39.0963C15.3189 38.047 13.9242 36.9766 14.0577 35.9162L14.1271 35.6886C14.767 35.4553 15.2086 35.7787 15.6501 36.1021C16.1597 36.5509 16.6156 37.0254 17.1252 37.4742C17.771 38.1738 18.903 38.6164 18.5166 39.9315C18.105 40.566 17.4929 40.7738 16.8089 40.9067C15.5044 41.0206 14.4067 40.8046 13.7998 39.6003Z" fill="#E3C9CE"/>
<path d="M13.8231 39.5244C14.7606 40.2537 15.9533 40.0386 17.0703 40.1297C17.7899 40.632 19.2985 40.3884 18.9964 41.9443C18.2725 42.1804 17.5748 42.4162 16.851 42.6523C15.5512 41.8755 13.7435 41.5874 13.8493 39.5242L13.8231 39.5244Z" fill="#929968"/>
<path d="M51.9836 23.5304C52.0331 24.2317 51.8196 25.0106 52.7475 25.6536C53.8777 23.6383 52.8643 21.4171 53.9669 19.4271C55.5694 19.9887 53.9723 22.0585 55.4928 22.3452C55.7463 22.393 56.2799 21.4608 56.6763 20.981C58.0442 23.2741 56.1641 25.3465 55.6141 27.5069C55.4253 27.9597 55.2128 28.3877 55.0003 28.8157C54.4513 29.9486 53.9281 31.0812 52.9114 31.9426C52.3464 32.2736 51.3383 32.6839 51.3069 32.0827C51.1957 30.5048 49.5589 29.7179 49.6039 28.1136C49.9653 26.406 49.7283 24.4534 51.956 23.5557L51.9836 23.5304Z" fill="#DC9679"/>
<path d="M43.7102 17.9894C43.7886 16.9402 43.8652 15.916 43.9436 14.8669C44.8496 14.3602 45.5046 14.4798 45.8131 15.4759C46.8789 17.6142 46.3401 20.0402 46.5515 22.3352L46.4152 24.1588C45.8593 24.7624 45.2131 24.8675 44.4996 24.8483C43.821 24.704 43.1679 24.5595 43.2351 23.6602C42.6361 21.7678 42.6484 19.8953 43.7102 17.9894Z" fill="#E9C9CF"/>
<path d="M55.0071 27.912C55.2641 25.5529 56.8147 23.4325 56.7923 21.0258C57.028 20.2965 56.4762 19.0982 57.6165 18.9873C58.6022 18.8779 58.6411 20.0559 58.659 20.8329C58.6606 22.1617 58.5592 23.4915 58.4322 24.8214C58.2449 26.6033 58.8815 27.7005 60.771 27.8835C60.7557 28.0842 60.768 28.2596 60.7785 28.4601C60.9195 28.6343 60.9595 28.7843 60.8947 28.9604C60.8298 29.1365 60.7983 29.212 60.7468 29.2125C59.74 29.598 58.7534 29.3815 58.2387 28.7093C57.3743 27.5641 56.1988 27.8006 55.0071 27.912Z" fill="#E19276"/>
<path d="M51.842 23.5233C50.8247 25.0852 50.3137 26.7427 50.2043 28.5218C49.5591 28.9032 49.1251 28.5315 48.6874 28.2099C48.0907 27.6143 47.7347 26.8912 47.5406 26.0665C47.5101 25.7913 47.5586 25.4904 47.6566 25.214C47.7175 25.0882 47.8041 24.9622 47.8669 24.8114C48.811 23.8763 49.2049 22.7457 49.577 21.5653C49.8139 20.8119 50.0632 19.5574 51.4355 20.4215C52.3196 21.2901 52.4453 22.3408 51.8677 23.523L51.842 23.5233Z" fill="#D6826D"/>
<path d="M51.3628 20.4526C50.2242 20.5631 49.9081 21.3425 50.0233 22.1931C50.2536 23.8944 49.0417 24.6318 47.8755 25.444C47.6337 25.2458 47.5004 24.9715 47.448 24.6463C47.7108 23.8925 47.4928 23.0428 48.0602 22.3362L48.2983 19.2029C49.1903 19.295 48.7743 20.3759 49.0608 20.3232C50.128 20.1381 49.079 19.0706 50.1157 18.6103C50.4632 19.1081 50.9258 19.7802 51.3628 20.4526Z" fill="#D18D88"/>
<path d="M46.6386 22.3496C45.4725 20.2409 45.672 17.8734 45.8951 15.5306C48.3996 17.4058 47.4538 19.9031 46.6386 22.3496Z" fill="#E3BEC3"/>
<path d="M51.4354 11.2523C50.8779 9.12975 53.3121 10.1843 53.4287 8.30607C54.5815 10.6987 53.1117 11.8131 52.5767 13.1194C51.6792 13.4528 50.9234 13.6097 51.8654 12.3498C52.4357 11.5938 52.3301 11.2944 51.4354 11.2523Z" fill="#E4BCBC"/>
<path d="M47.9969 22.2662C47.9306 23.1253 47.8664 23.959 47.8001 24.818C46.4771 25.4877 45.1462 26.2583 44.6048 24.1936C45.228 24.1874 45.8792 24.1556 46.5043 24.1241C46.9945 23.4881 47.4827 22.8773 47.9728 22.2412L47.9969 22.2662Z" fill="#E5A79A"/>
<path d="M73.4955 28.375C71.7658 30.1928 73.8203 30.2486 74.58 30.8751C75.1218 30.9458 75.5457 31.1952 75.8554 31.5726C76.2115 32.0256 76.6679 32.5283 76.3042 33.1913C75.9104 33.9053 75.1339 33.8369 74.6357 33.5375C73.1431 32.6139 72.098 33.6641 70.9942 34.4613C70.0299 34.8005 69.183 34.6314 68.3855 34.1574C67.0097 33.4102 67.9073 31.9049 67.4939 30.8438C67.3667 30.4647 67.2636 30.1106 67.5296 29.7022C69.9799 30.033 71.7238 27.3527 74.1944 27.7594C73.9701 27.9645 73.7197 28.1699 73.4935 28.4004L73.4955 28.375Z" fill="#E4BEC4"/>
<path d="M68.0354 30.2309C69.5386 31.0015 67.1801 32.5454 68.4168 33.3947C68.7328 34.025 69.3974 34.5252 68.9661 35.3911C68.7159 35.5963 68.4214 35.7006 68.1028 35.7798C67.6318 35.8098 67.1946 35.7382 66.8512 35.4628C66.2009 35.1145 66.8009 33.4108 65.2145 34.06C64.806 34.2922 64.3753 34.4738 63.9003 34.5546C62.0499 34.573 61.1977 33.4665 60.7135 31.9762C60.5629 30.8881 60.7193 29.8729 61.6457 29.0021C61.8542 29 62.0607 29.0233 62.2412 29.0469C64.0492 28.9022 65.581 28.963 63.6278 31.6685C65.1348 30.3611 66.3127 28.9303 68.0094 30.2312L68.0354 30.2309Z" fill="#DEB1A8"/>
<path d="M67.9938 30.3081C65.9031 29.7466 64.5456 33.1786 62.2022 31.5054C64.0097 30.6771 65.1537 29.6781 62.2295 29.1249C63.3227 27.7719 64.539 26.8482 66.3588 27.2099C67.9222 27.5235 67.3075 28.745 67.3655 29.6814C67.5582 29.882 67.7751 30.1077 67.9678 30.3084L67.9938 30.3081Z" fill="#E0BCBE"/>
<path d="M61.5224 28.9753C61.4432 30.026 61.3128 31.0772 61.2336 32.128C61.1092 33.7792 60.8585 35.4065 58.8129 36.0491C57.4746 35.4605 57.7976 34.2327 57.8568 33.1071C57.9808 32.481 58.2311 31.8788 58.6294 31.3503C59.354 30.569 59.9343 29.664 60.8269 29.0313C60.8439 28.8061 60.9121 28.5805 60.929 28.3553C61.117 28.5787 61.3069 28.7771 61.5205 29.0003L61.5224 28.9753Z" fill="#D7A289"/>
<path d="M73.3401 48.7343C71.2422 49.7302 69.9357 51.1048 69.4206 52.8581C68.935 54.4514 66.5719 54.8532 65.1171 53.5565C64.7054 53.1824 64.7954 52.3494 63.7102 52.3098C63.5313 54.6313 61.0677 54.6559 59.4651 56.2855C62.2847 56.6861 64.3289 58.4055 67.1698 58.5285C66.6 59.8705 65.6068 59.9813 64.6875 60.1417C64.4029 60.4723 64.1267 61.0298 63.6995 60.8576C60.3852 59.4786 56.9556 58.252 55.4961 54.6609C55.5544 53.9039 55.9952 52.891 56.6636 52.9599C59.8741 53.3314 61.3009 50.6193 63.4825 49.2107C65.3457 49.2426 67.3186 50.2063 69.0204 48.2983C70.9355 47.3211 71.7477 44.5142 74.5134 44.9405C74.7449 44.9634 74.4253 44.7397 74.3831 44.614C74.0518 43.5331 74.5581 42.343 74.2008 41.2623C74.475 39.7215 76.2416 39.3257 76.8795 38.1091C75.0396 37.7744 73.9004 36.752 73.3843 35.0425C73.8083 33.5759 74.8838 33.7417 75.9315 33.9329C77.4382 34.2205 79.0953 33.9014 80.5249 34.5175C80.8023 34.6156 80.9943 34.8154 81.1304 35.0662C80.726 37.2891 80.6029 39.5596 79.3044 41.6149C78.1252 43.4673 79.9567 43.5751 80.7561 44.2984C79.8757 45.9713 78.1194 46.5687 76.6251 47.4661C75.5288 47.9057 74.4085 48.3203 73.3123 48.7598L73.3401 48.7343Z" fill="#E0B2B3"/>
<path d="M76.9908 47.5413C79.0208 48.1784 80.8662 48.5139 82.1354 45.8715C82.4144 45.2871 83.1687 44.2682 84.1915 44.4855C85.4165 44.7767 84.2799 45.6983 84.4152 46.3038C84.8131 48.2215 86.6662 50.4787 84.6284 51.9656C83.3877 52.8883 80.7933 52.1557 78.864 51.8969C76.1103 51.5452 76.9582 49.3116 77.0168 47.541L76.9908 47.5413Z" fill="#E8C8CD"/>
<path d="M80.9471 44.5086C77.4219 44.237 77.8483 44.3335 79.3774 40.928C80.1127 39.2754 80.4532 37.1019 81.0048 35.1763C80.8945 34.6033 81.139 34.4017 81.6894 34.5471C82.6265 35.6625 82.1962 36.9883 82.0484 38.287C82.0335 38.4867 82.0168 38.7114 82.0019 38.9112C81.9089 40.1595 82.02 41.4062 81.7228 42.6561C80.6759 43.0137 80.5236 43.6886 80.9453 44.5336L80.9471 44.5086Z" fill="#E3B8BD"/>
<path d="M81.8403 42.6426C81.1101 41.3928 80.7415 40.1395 82.1299 38.8691C82.7758 38.8629 83.4217 38.8566 84.0418 38.8506C83.6294 40.1869 84.3932 41.3358 84.3981 42.6177C84.5986 43.3699 84.7713 44.1475 83.5181 43.6569C82.9173 43.4114 82.669 42.6094 81.8145 42.6428L81.8403 42.6426Z" fill="#E4BEC4"/>
<path d="M56.021 54.2245C57.8261 57.5596 61.1453 58.8478 64.6687 59.8547C64.6853 60.9975 65.4909 61.0404 66.4251 61.1074C68.2915 61.2669 66.4128 61.9457 66.4599 62.3517C61.7266 63.8459 60.1591 59.7973 57.3268 57.9455C56.4336 57.3446 56.007 56.1042 54.6211 56.1432C53.5981 55.8738 53.2931 55.0894 53.0742 54.2026C53.209 52.4487 54.1837 52.6677 55.2936 53.1648C55.6638 53.4406 55.7331 53.8971 56.023 54.1991L56.021 54.2245Z" fill="#D59EA5"/>
<path d="M80.2258 35.2598C77.9804 36.2488 75.9652 34.2313 73.712 35.3222C73.4871 35.5281 73.2458 35.6068 72.9619 35.5586C72.2287 35.2346 71.5536 34.8337 71.1935 34.0733C72.328 30.5234 74.2183 32.4657 75.9511 33.3912C76.0545 32.0408 74.8465 31.7723 74.7074 30.857C75.0342 30.3447 75.5129 30.2383 76.0622 30.233C78.4249 31.1269 80.3417 32.3816 80.2258 35.2598Z" fill="#E3B8BD"/>
<path d="M80.2616 35.2798C79.4098 33.1913 77.3944 32.0493 76.1274 30.2933C81.0153 28.1979 80.2285 32.6778 81.6098 34.6347C81.3862 34.839 81.1348 35.0689 80.9113 35.2733C80.7034 35.2754 80.4695 35.2777 80.2616 35.2798Z" fill="#E4BEC4"/>
<path d="M82.1228 38.3181C81.5967 37.1478 81.6671 35.8724 81.765 34.5717C82.8745 34.1123 83.789 34.2045 83.3013 35.5835C82.9774 36.4861 83.1469 37.6345 82.1228 38.3181Z" fill="#E4BEC4"/>
<path d="M53.3171 54.2006C53.7075 54.8524 54.0998 55.479 54.4643 56.1311C54.9371 58.0683 56.0616 59.6207 57.2957 61.0964C54.1402 61.6827 53.1097 58.2379 50.3776 58.0381C50.3932 57.8362 50.4087 57.6343 50.4224 57.4576C50.471 56.8266 50.3121 56.1977 50.4126 55.5662C50.8944 54.023 51.2257 52.0778 53.2633 54.2264L53.3171 54.2006Z" fill="#AF7A72"/>
<path d="M58.6537 61.1047C59.8657 61.4957 60.6123 62.2186 60.5076 63.5796L60.1987 63.5575L59.888 63.5606C59.4599 62.7337 59.0578 61.9066 58.6278 61.105L58.6537 61.1047Z" fill="#D3B3B3"/>
<path d="M50.9904 56.1695C50.9496 56.6993 50.8868 57.1789 50.2711 57.4371C49.4745 57.0165 48.652 56.5961 47.8555 56.1755C47.6636 55.9758 47.4737 55.7508 47.2818 55.551C45.8981 54.6825 45.6725 53.5756 46.8163 52.1779C50.4678 51.1836 50.985 51.5314 50.7946 55.0119C50.7616 55.4408 50.7824 55.8439 51.0144 56.1945L50.9904 56.1695Z" fill="#E0CDD8"/>
<path d="M38.1319 53.6935C38.1631 53.287 38.1441 52.8556 38.1493 52.4493C38.2665 50.9248 39.5214 50.8871 40.589 50.5719C41.0589 50.5673 41.5229 50.6389 41.9249 50.838C42.1462 51.0136 42.3094 51.2659 42.3662 51.5446C42.3852 51.976 42.2737 52.4087 42.1641 52.816C42.1108 54.1876 42.9735 53.8236 43.782 53.4856C44.4724 53.3265 44.9469 53.6011 45.3014 54.08C45.4104 54.3582 45.3628 54.638 45.1605 54.8939C42.4251 56.5457 40.5428 55.2439 38.7061 53.6879C38.4797 53.9186 38.2709 53.9207 38.1077 53.6684L38.1319 53.6935Z" fill="#AAA94B"/>
<path d="M45.2317 54.9485C45.2491 54.7216 45.2128 54.5205 45.2044 54.2938C44.9698 52.6335 43.0392 52.829 42.2102 51.8296C42.2257 51.6279 42.2412 51.4262 42.2567 51.2245C42.2943 51.073 42.3577 50.9212 42.3953 50.7697C43.2436 49.5017 44.4825 49.2124 45.8554 49.1988C46.527 49.2173 47.165 49.3369 47.6203 49.8111C47.9792 50.8655 47.423 51.7023 46.7152 52.4903C46.3429 53.6276 46.7594 54.6059 47.1759 55.5842C46.5438 55.389 45.8877 55.1688 45.2556 54.9735L45.2317 54.9485Z" fill="#B68167"/>
<path d="M38.1013 53.6207C38.3071 53.6188 38.4852 53.6423 38.691 53.6404C38.8491 54.2654 39.0329 54.8902 39.189 55.5404C39.1232 56.0672 38.986 56.5196 38.3772 56.7507C38.9794 55.5924 36.5083 54.9636 38.0756 53.621L38.1013 53.6207Z" fill="#98A275"/>
<path d="M32.0409 63.5107C32.3745 62.1988 33.4733 61.3576 34.2991 60.368C34.9788 59.9336 35.1771 58.6985 36.3602 59.1147C37.6857 60.0328 38.2176 61.1851 37.3175 62.8045C36.0732 63.5214 35.2493 64.4857 35.0652 65.8716C32.2518 67.1575 33.6056 63.6714 32.0687 63.4852L32.0409 63.5107Z" fill="#7B885A"/>
<path d="M36.3304 59.1796C35.6496 59.5906 34.9427 60.0019 34.2599 60.4382C34.4535 59.2742 35.1519 58.6356 36.3551 58.5225C36.3376 58.75 36.322 58.9523 36.3045 59.1798L36.3304 59.1796Z" fill="#98A275"/>
<path d="M40.7325 51.2145C39.7135 51.3255 38.7769 51.713 38.0185 52.4769C37.4273 52.0794 36.8121 51.6569 36.2209 51.2594C35.22 50.4626 34.8051 49.4583 35.1654 48.1438C35.4221 47.8387 35.5589 47.4087 35.9134 47.1783C36.6446 46.7676 37.1256 45.9057 38.0609 45.8711C38.6774 45.9406 39.1208 46.2388 39.421 46.7148C39.7795 47.4423 39.7652 48.2996 40.0699 49.0529C40.221 49.7826 41.1694 50.2521 40.7085 51.1895L40.7325 51.2145Z" fill="#C3AB5A"/>
<path d="M35.7276 47.5476C35.502 47.7774 35.2524 47.9821 35.0268 48.2119C34.8136 47.6073 34.4586 47.1558 33.7962 46.9855C33.3802 46.9897 32.9661 46.9685 32.578 46.9471C32.4011 46.5444 32.1964 46.1673 32.0196 45.7646C32.4324 45.1285 33.1481 44.9444 33.6792 44.4587C34.1505 44.0748 34.5536 43.5652 35.2277 43.5837C37.2339 44.5243 37.8664 45.7566 35.7536 47.5473L35.7276 47.5476Z" fill="#D5BA7D"/>
<path d="M23.8966 46.2853C23.6196 46.1613 23.3145 46.0629 23.0675 45.8879C21.9749 45.1888 20.4743 45.0516 19.8139 43.8158C19.7474 43.6643 20.0792 43.0779 20.2095 43.0766C21.8802 43.0346 22.9252 44.0131 23.9682 45.0169C23.937 45.4229 23.9038 45.8542 23.8986 46.26L23.8966 46.2853Z" fill="#929968"/>
<path d="M19.08 41.9554C18.4457 41.3491 17.7852 40.7432 17.151 40.1369C17.6768 40.1065 18.1842 39.9742 18.4851 39.4612C20.3762 38.3467 21.8553 39.2001 23.3384 40.0024C23.4576 40.1543 23.4362 40.4351 23.5089 40.511C23.8057 40.7378 23.7564 40.3556 23.7904 40.2533C23.9845 39.7668 24.2514 39.3562 24.8539 39.3505C25.1041 39.5012 25.2981 39.7035 25.4096 39.9575C25.6934 41.3833 26.7417 42.3937 27.4078 43.6118C27.463 43.9174 27.3912 44.1731 27.1641 44.4048C24.3878 43.7422 22.0621 41.9784 19.0295 41.9303L19.08 41.9554Z" fill="#DEA9AF"/>
<path d="M25.1042 40.1007C25.1199 39.8978 25.1355 39.6948 25.1511 39.4919C25.2632 39.3894 25.4033 39.2613 25.5154 39.1588C27.6112 38.3268 29.0665 39.0474 29.9804 40.7113C30.4835 41.6188 31.0225 42.3993 32.1539 42.5908C33.1837 43.0875 34.1573 43.6355 33.8133 45.0584C33.3357 45.8489 32.5393 45.7048 31.8296 45.7878C30.2251 45.6517 28.7202 45.2357 27.347 44.4636C27.3627 44.2607 27.3763 44.0831 27.392 43.8802C27.6688 41.9763 26.4436 40.9746 25.1062 40.0753L25.1042 40.1007Z" fill="#DEC0C5"/>
<path d="M44.5909 24.0355C45.4275 25.0162 46.7183 24.4962 47.8 24.663C47.7843 24.8661 47.7687 25.0691 47.7811 25.2465L47.699 25.298C47.1963 25.7341 46.6311 25.968 45.9974 26.0757C43.9378 26.4258 42.4149 27.2524 42.3916 29.5857C42.335 30.3217 42.2281 31.0329 41.9407 31.7204C41.8168 31.9753 41.6167 32.2055 41.3944 32.3852C40.9693 32.4909 40.67 32.3163 40.4046 32.04C39.8322 31.6906 39.6712 32.4277 39.2481 32.5079C38.4579 32.6172 37.8535 32.3442 37.3169 31.8677C36.8519 31.1369 37.0376 29.7402 35.4416 30.1618C35.3431 29.0723 35.2686 28.0079 36.4728 27.2606C36.6213 26.3461 36.7699 25.4317 37.0195 23.8823C39.4993 27.8899 41.3291 25.1075 43.2536 23.4654C43.4995 23.9956 44.0191 24.0158 44.5648 24.0357L44.5909 24.0355Z" fill="#D9835C"/>
<path d="M36.2934 27.1643C35.6981 28.1549 35.4605 29.2176 35.4547 30.3032C35.369 30.405 35.2553 30.5324 35.1677 30.6595C34.2699 31.1987 33.5103 31.9636 32.5624 32.478C32.2469 32.5317 31.9392 32.4843 31.6633 32.3608C28.7231 30.4463 27.6947 27.629 28.1732 24.115L28.1992 24.1148C30.2701 23.8416 30.8135 26.8909 33.1967 25.933C33.1811 26.1351 33.0838 26.3885 33.15 26.5393C33.6739 27.8217 30.1669 28.2102 32.0288 29.3024C32.8968 29.8239 35.2229 29.2704 35.6962 27.1703C35.9039 27.1682 36.0857 27.1664 36.2934 27.1643Z" fill="#DF9E91"/>
<path d="M28.0589 24.1279C28.3271 27.3585 29.8265 29.9512 31.9424 32.2125C31.5554 33.2436 30.8702 33.8013 29.7259 33.6364C28.395 31.8692 26.2562 30.5857 26.5395 27.8763C29.0123 26.8008 26.8819 25.7428 26.6715 24.7923C26.4068 23.5416 24.7062 22.5798 26.3681 21.0106C26.5023 22.2876 26.8242 23.4626 28.0332 24.1281L28.0589 24.1279Z" fill="#E5B4AF"/>
<path d="M26.5758 27.8021C26.9924 30.1105 29.2229 31.3205 29.9669 33.3995C31.348 34.2407 32.372 35.3619 32.3938 37.096C32.1698 37.3244 31.9257 37.4776 31.608 37.5812C30.7955 37.7399 30.1451 37.4697 29.5598 37.023C28.9545 36.501 28.2678 36.0301 27.7219 35.407C27.614 35.1316 27.6591 34.8798 27.8812 34.6765C28.4374 32.8111 27.2938 31.5655 26.47 30.191C25.6461 28.8165 24.6595 27.5442 24.3458 25.9135C24.1064 24.659 24.817 25.1548 25.3737 25.3002C25.7492 26.1261 26.1247 26.9519 26.526 27.7775L26.5758 27.8021Z" fill="#DA867F"/>
<path d="M33.0942 26.01C31.5814 27.5107 30.3198 28.1024 29.5556 25.5917C29.393 25.0141 28.5935 24.6442 28.0846 24.196C28.1641 23.1627 28.2436 22.1295 28.3231 21.0962C28.5921 23.9895 33.1793 22.8865 33.0683 26.0102L33.0942 26.01Z" fill="#E49B83"/>
<path d="M14.8879 31.5993C13.5682 30.9583 13.0961 29.7056 12.5704 28.4786C12.4622 27.1972 12.3817 25.8904 14.1044 25.3204C16.1964 26.3309 16.9245 28.2853 17.5713 30.2906C17.908 30.6143 17.9547 31.0162 17.8682 31.4696C17.6686 32.0499 17.3457 32.556 16.7997 32.9385C15.6192 33.1764 15.2396 32.4005 14.8898 31.5741L14.8879 31.5993Z" fill="#D88887"/>
<path d="M20.3119 31.4748C21.4367 31.3876 21.9351 32.344 22.7906 32.7149C23.1959 33.1915 24.2081 32.8778 24.296 33.7624C24.0617 34.7767 25.2646 35.7007 24.1958 36.7486C22.6871 37.0926 22.2304 35.9334 21.5122 35.1311C20.8493 33.9487 19.0115 33.8406 18.7701 32.2491C19.1051 31.6133 19.6854 31.5063 20.2859 31.475L20.3119 31.4748Z" fill="#E1ADAF"/>
<path d="M20.2101 31.52C19.9103 32.0301 19.409 32.1111 18.9116 32.1414C18.1502 32.5547 17.8164 32.1523 17.5204 31.5974C17.5796 31.1657 17.667 30.7084 17.7263 30.2768C18.7915 30.3169 19.6188 30.7398 20.2362 31.5197L20.2101 31.52Z" fill="#EDD0CC"/>
<path d="M27.9274 34.6052C27.9378 34.8074 27.9502 34.9843 27.9606 35.1864C26.554 36.2373 25.5584 35.6657 24.6721 34.6883C24.7228 34.0303 24.6155 33.3992 24.8743 32.7391C26.5046 32.4952 26.4968 34.6195 27.9534 34.6049L27.9274 34.6052Z" fill="#E1ADAF"/>
<path d="M24.7867 32.7313C24.8058 33.1635 25.4281 33.5645 24.6891 34.0041C24.4644 34.2098 24.231 34.1866 24.0637 33.9847C23.6505 33.5817 23.2373 33.1787 22.8241 32.7757C23.4777 32.7694 24.1312 32.7631 24.7848 32.7567L24.7867 32.7313Z" fill="#D6A09E"/>
<path d="M14.9667 31.5135C15.5787 31.9345 16.1927 32.3303 16.8048 32.7512C16.9938 32.9753 17.0777 33.2256 17.0566 33.5019C16.4897 34.5115 16.2685 35.7185 15.229 36.5066C14.8356 36.2594 14.4164 36.0123 14.023 35.765C14.4659 34.355 12.9422 32.7127 14.9409 31.5138L14.9667 31.5135Z" fill="#E097A1"/>
<path d="M15.315 36.5062C15.6108 35.3657 15.7304 34.1511 16.8589 33.3309C19.0489 33.2332 20.2372 34.3335 20.765 36.2494C19.9258 38.7098 18.3416 38.7004 16.4916 37.7583C16.0827 37.3327 15.6979 36.9321 15.289 36.5064L15.315 36.5062Z" fill="#E18D96"/>
<path d="M16.5888 37.7063C17.9736 37.3622 19.598 37.9824 20.636 36.3698C20.9111 36.1891 21.1705 36.212 21.4203 36.3622C21.547 38.1162 24.6908 38.3402 23.5119 40.7682C21.9195 40.0714 20.1953 39.7319 18.407 39.5457C17.8023 38.9156 17.1955 38.3109 16.5646 37.6811L16.5888 37.7063Z" fill="#E29DA6"/>
<path d="M49.1 27.7684C49.497 27.9654 49.8939 28.1624 50.3167 28.3591C50.2723 29.6141 52.8656 29.7151 51.5182 31.5093C51.8789 31.5059 52.2416 31.4774 52.6044 31.4489C52.8229 31.6225 52.9364 31.8221 52.9668 32.0978C52.9476 32.3489 52.9265 32.6251 52.83 32.877C52.5759 33.5067 52.756 34.1824 52.4265 34.7877C51.2874 35.8774 51.4177 37.206 51.3437 38.5115C50.9076 40.8491 48.7091 39.2891 47.6769 40.3276C47.4096 40.4556 47.15 40.4831 46.8684 40.4607C46.1498 40.0911 45.4866 39.6708 44.8807 39.1747C44.7453 38.9251 44.6872 38.6747 44.6825 38.3987C44.7666 37.9714 44.952 37.5682 45.2108 37.2145C45.9298 36.2291 45.643 34.927 46.5645 33.99C47.9829 33.6253 48.4312 34.4993 48.7649 35.5249C48.7992 35.7504 48.6215 36.0531 48.8362 36.2769C49.1427 35.9729 49.0426 35.5975 49.0437 35.2462C48.6409 32.766 47.7942 30.3652 49.1257 27.7682L49.1 27.7684Z" fill="#D28A59"/>
<path d="M60.7556 29.0566C60.5493 30.0457 60.2688 30.985 59.2366 31.5522C58.4705 31.0283 57.7025 30.5298 56.6931 30.4639C56.2524 30.443 55.8417 30.3712 55.4369 30.2234C54.5713 29.9789 54.7158 29.1169 54.3982 28.5126C54.598 28.2828 54.8238 28.0528 55.0256 27.7977C56.119 26.7743 57.1824 24.7895 58.2154 27.5886C58.6 28.6731 59.9713 28.4316 60.7576 29.0312L60.7556 29.0566Z" fill="#ED9D4D"/>
<path d="M54.3451 28.4542C54.7275 28.8527 55.0822 29.2766 55.4647 29.675C55.8135 31.8584 54.947 32.7214 52.7181 32.1649C52.7335 31.9637 52.7231 31.7627 52.7127 31.5617C53.2568 30.5259 53.801 29.4901 54.3709 28.454L54.3451 28.4542Z" fill="#D98A31"/>
<path d="M48.3572 35.8763C48.0097 35.0546 47.4424 34.4346 46.6022 34.0419C46.4655 33.8182 46.4587 33.5683 46.5799 33.3174C47.4753 32.6352 46.5745 32.3679 46.3505 31.945C45.1642 30.0309 46.6192 28.3694 47.2627 26.6148C47.4113 26.3387 47.633 26.112 47.9002 25.9598C48.2884 26.5812 48.6509 27.2029 49.0391 27.8243C49.2475 30.4963 49.4797 33.1931 49.6881 35.8651C49.223 36.2688 48.7916 36.2225 48.3828 35.8761L48.3572 35.8763Z" fill="#E8AA65"/>
<path d="M47.7577 25.9038C47.7422 26.1051 47.7009 26.3066 47.6577 26.5332C45.3079 27.8882 45.7006 30.1718 45.2381 32.162C44.5178 33.476 43.4211 33.6375 42.1765 33.3731C41.6772 33.1517 41.3109 32.8787 41.4625 32.2489L41.4702 32.1483C42.0274 31.615 42.8896 31.481 43.2097 30.6735C42.97 28.4136 43.3053 26.3995 45.8683 25.2938C46.4884 25.2878 47.1084 25.2818 47.7284 25.2757C47.7388 25.4767 47.7492 25.6777 47.7596 25.8787L47.7577 25.9038Z" fill="#D67C3D"/>
<path d="M71.1352 33.9656C72.0758 33.9565 72.6957 34.3825 72.9971 35.2183C71.503 36.6562 70.8498 36.6626 69.1042 35.2563C68.944 34.6224 68.7558 34.0142 68.5956 33.3804C69.3743 33.7795 70.213 34.0763 71.1614 33.9654L71.1352 33.9656Z" fill="#E1B2B4"/>
<path d="M69.1635 35.1388C70.4259 35.6851 71.7119 35.9264 73.0537 35.1006C73.2626 35.0985 73.4976 35.0962 73.7065 35.0942C74.7986 35.8199 74.97 38.0023 77.3033 36.8365C77.7928 36.5778 77.9777 37.5664 77.692 38.2295C77.0806 39.7338 75.6461 40.4082 74.5255 41.4096C74.3088 41.5133 73.9655 41.5675 73.9472 41.4661C73.6872 40.0973 73.0284 39.1641 71.33 39.5363C71.0247 40.4536 70.9676 41.8763 69.8914 42.9789C69.1533 43.4178 68.3941 43.4507 67.6304 43.2042C66.599 42.7064 66.5341 41.5135 65.97 40.7064C65.8329 40.4538 65.75 40.1752 65.6951 39.871C65.597 39.1101 65.6517 38.3985 66.1744 37.7077C67.3884 37.1878 67.7191 35.9402 68.5649 35.1192C68.7738 35.1172 69.0088 35.1149 69.2176 35.1128L69.1635 35.1388Z" fill="#E1AAA6"/>
<path d="M64.5357 33.9539C64.7557 33.752 65.0033 33.5249 65.2233 33.323C67.9169 32.5748 66.1512 34.9401 66.8158 35.6344C66.7932 35.9346 66.7705 36.2349 66.6454 36.5359C65.8413 37.6929 65.3172 38.8725 65.9878 40.1668C65.9402 41.8173 65.8596 41.868 63.8959 41.0848C63.2607 40.3402 63.0761 39.3918 62.9684 38.4426C62.953 37.9677 63.0145 37.4922 63.1528 37.016C63.5631 35.9874 63.6005 34.812 64.5082 33.9791L64.5357 33.9539Z" fill="#F7B65A"/>
<path d="M64.422 33.9517C64.2083 35.0396 64.6583 36.2723 63.4474 37.1682C63.1779 37.2971 62.9461 37.2742 62.75 37.1246C62.5396 36.8238 62.465 36.4458 62.3884 36.093C62.0955 35.5152 61.5865 35.7223 61.1054 35.9039C60.4106 36.1633 59.712 36.4733 59.1354 35.8731C59.8801 34.6284 60.6009 33.3587 61.3456 32.1141C62.2423 32.9383 62.8202 34.195 64.446 33.9768L64.422 33.9517Z" fill="#DFAE91"/>
<path d="M68.3742 35.1901C68.0059 36.2767 68.9326 38.358 66.2637 37.7296C65.9062 37.3301 65.9631 36.9266 66.283 36.4701L66.3606 36.4693C66.8022 36.1123 66.6176 35.4845 67.0792 35.2029C67.5195 35.1985 67.9339 35.1944 68.3742 35.1901Z" fill="#E1B2B4"/>
<path d="M67.0405 35.2321C66.9768 35.7334 66.8398 36.1853 66.3309 36.4653C66.132 35.3654 67.2553 33.7529 65.2566 33.3702C65.6818 32.8406 66.3914 32.2834 66.8509 32.6549C67.6254 33.2738 66.9529 34.3565 67.0405 35.2321Z" fill="#DFAE91"/>
<path d="M56.865 29.6461C58.2142 29.6075 59.3368 29.8231 59.2624 31.4615C58.7469 31.769 58.6063 32.249 58.5397 32.7788C58.2333 33.059 58.0727 33.4637 57.6945 33.669C56.5739 33.4281 56.8221 34.9122 55.9612 34.9963C55.4411 35.0266 55.0382 34.8795 54.7843 34.4789C53.9887 32.3704 55.4129 31.021 56.8132 29.6466L56.865 29.6461Z" fill="#F09D23"/>
<path d="M57.9844 33.3521C58.2085 33.1472 58.4607 32.9166 58.6848 32.7116C58.8132 33.7494 58.0157 34.9738 59.0961 35.8247C59.7634 35.6153 60.4306 35.406 61.0698 35.2222C61.8973 34.9605 62.8883 34.2664 62.9777 35.8115C62.9445 36.2426 62.9132 36.6484 62.88 37.0796C61.1468 37.6037 59.4422 37.4179 57.7298 37.3335C56.9726 36.6822 56.9647 35.7699 56.9849 34.832C56.9353 34.1229 57.4097 33.7127 57.9824 33.3775L57.9844 33.3521Z" fill="#DC955C"/>
<path d="M70.0092 42.6113C70.428 40.8276 70.8448 39.069 71.4849 36.4059C72.1431 38.2298 72.0188 40.5372 74.1132 38.362C74.3915 38.0836 74.9491 37.8529 75.2274 38.2514C75.5971 38.7994 75.514 39.5522 74.8477 39.8592C73.6772 40.3714 73.4169 40.7498 74.6044 41.3655C74.9626 42.0641 76.4246 42.4516 75.335 43.5898C74.4132 44.5509 74.9602 44.7965 75.7369 45.065C76.1391 45.1867 76.6185 45.3076 76.2438 45.8375C76.015 46.1404 75.2896 46.5482 75.2658 46.5233C72.7635 43.5885 72.2556 48.2307 70.4676 48.0718C70.2102 48.0742 69.8594 48.6289 69.5534 48.9326C69.4581 48.8332 69.3647 48.7087 69.2694 48.6093C69.0303 48.035 69.1238 47.4826 69.3736 46.9038C70.4033 45.5406 70.5122 44.1107 70.0331 42.6362L70.0092 42.6113Z" fill="#DEA4A2"/>
<path d="M55.899 54.4011C55.706 54.2001 55.4888 53.9739 55.2958 53.7729C54.6267 53.3229 54.0919 52.8209 54.6337 51.877C56.3122 51.4038 57.9757 51.4634 58.9862 49.1704C59.6832 47.5655 61.8801 47.4676 63.3377 48.8484C63.3801 48.9748 63.4206 49.1266 63.463 49.253C63.345 49.4317 63.2009 49.6107 63.1089 49.7892C61.7398 52.3393 60.0621 54.1569 56.8477 53.2502C56.3639 53.1028 56.0444 53.8669 55.9271 54.3754L55.899 54.4011Z" fill="#DBA3A0"/>
<path d="M69.468 48.7127C67.5828 51.0858 65.5693 50.6423 63.5371 49.405C63.4006 48.4329 64.1581 47.7859 64.8458 48.0616C66.3507 48.6375 68.0555 47.9566 69.468 48.7127Z" fill="#DBA3A0"/>
<path d="M54.6747 51.7818C54.8342 52.413 54.9956 53.0188 55.155 53.6499C54.5348 53.9346 53.4668 52.6038 53.2078 54.2768C50.7704 53.1622 51.321 55.1309 51.0509 56.2726C50.3701 54.3052 50.7664 51.1881 46.864 52.5432C46.7801 51.6076 47.1569 50.7686 47.662 49.9536C47.9691 49.3431 48.4351 49.0347 49.1504 49.2048C50.0772 50.0054 50.7704 51.1374 52.2861 51.0464C52.883 51.0657 53.4778 51.1104 54.0369 51.282C54.3135 51.4058 54.5341 51.5807 54.6988 51.8069L54.6747 51.7818Z" fill="#C48C8C"/>
<path d="M42.1695 51.7912C44.0044 51.697 45.8673 51.5772 45.19 54.2782C44.7875 54.0788 44.359 53.8796 43.9565 53.6802C42.5869 54.1765 42.1784 53.0366 41.4675 52.4335C41.6922 52.2279 41.9449 51.9967 42.1695 51.7912Z" fill="#AF8E43"/>
<path d="M41.4656 52.4141C42.5904 52.327 43.0867 53.3086 43.9441 53.6542C43.7522 54.7945 43.1121 55.0033 42.0706 54.6848C40.6986 54.2685 41.2672 53.3015 41.4656 52.4141Z" fill="#A09E2E"/>
<path d="M40.8216 51.2334C40.4827 50.5802 39.5152 50.3374 39.6671 49.3763C40.2353 47.7293 41.06 48.4786 41.8801 48.9501C42.4528 49.601 42.8418 50.2789 42.1243 51.1698L42.1184 51.2457C41.6768 51.2501 41.2613 51.2542 40.8197 51.2587L40.8216 51.2334Z" fill="#BF9E8B"/>
<path d="M53.9983 51.9084C53.3448 51.9147 52.6651 51.9213 52.0116 51.9276C50.8611 50.9214 51.4605 49.2368 50.6954 47.9724C49.8472 48.1333 49.7371 49.2281 48.9373 49.4393C48.4773 49.6472 48.0153 49.8806 47.5553 50.0886C46.9018 50.0949 46.2744 50.101 45.6209 50.1073C45.2541 49.7802 44.775 49.5559 44.7957 48.9452C44.8988 48.2829 44.9273 47.5705 45.6905 47.1561C46.4517 46.7672 47.5758 46.7563 47.8813 45.8377C48.5759 43.5926 50.2661 44.0341 51.8103 43.9937C52.822 44.0857 53.8408 43.7451 54.8485 43.888C55.9656 44.3096 57.1107 44.7055 57.9311 45.5878C58.0809 46.0187 58.0458 46.4769 57.7793 46.8864C56.5549 47.8648 55.4129 47.0874 54.1941 46.972C55.0883 47.5738 55.6512 48.4077 56.467 49.0103C57.1096 49.4873 57.9352 49.9626 57.465 50.9846C56.9667 52.0323 56.0045 51.6346 55.1961 51.617C54.7779 51.6211 54.3354 51.5999 53.9964 51.9339L53.9983 51.9084Z" fill="#D08A67"/>
<path d="M44.9507 48.7135C45.1542 49.1173 45.3297 49.5468 45.5332 49.9506C44.2225 49.7099 43.2875 50.6831 42.205 51.2011C42.0433 50.5939 41.8574 49.9616 41.6956 49.3545C42.703 48.4567 43.7612 47.9136 44.9768 48.7132L44.9507 48.7135Z" fill="#C28E88"/>
<path d="M38.9912 46.9567C38.5931 46.7594 38.195 46.5621 37.7711 46.3651C36.4208 44.4421 34.5065 42.8013 34.9793 40.0056C35.418 39.6745 35.8929 39.5441 36.4079 39.5643C36.7419 39.5861 37.0702 39.6835 37.3688 39.8315C40.03 41.1634 40.6114 43.3453 39.6714 46.1706C39.517 46.499 39.2909 46.7526 38.9912 46.9567Z" fill="#D1963C"/>
<path d="M39.157 46.9102L39.26 46.2471C39.5111 46.041 39.7564 45.9113 40.05 45.8321C40.3378 45.8293 40.6256 45.8266 40.8795 45.926C41.5926 46.1739 41.8305 47.1648 42.7802 47.0539C43.0457 47.0004 43.3074 46.9979 43.571 46.9699C43.9896 46.9659 44.3782 47.0131 44.7289 47.2135C44.7995 47.3147 44.8964 47.4156 44.9671 47.5168C45.0144 47.9239 45.6353 48.3509 44.8715 48.7656C43.7832 48.9798 42.6687 49.1941 41.5803 49.4083C40.9379 49.2616 40.3482 48.4268 39.618 49.427C38.7549 48.7477 39.2234 47.75 39.1328 46.885L39.157 46.9102Z" fill="#B47B6B"/>
<path d="M35.025 40.1326C35.9224 42.2067 36.8216 44.2557 37.719 46.3297C36.9086 46.4879 37.1932 48.4925 35.718 47.5781C36.9862 45.8097 36.3013 44.662 34.6896 43.8492C32.5901 43.0159 33.0048 41.632 34.103 40.066C34.4257 39.8873 34.733 39.9095 34.9992 40.1328L35.025 40.1326Z" fill="#DFB560"/>
<path d="M34.2526 40.0667C33.6828 41.4305 33.8447 42.6866 34.5812 43.8615C34.5426 44.365 34.4043 44.8191 33.8679 45.0758C33.4902 44.2747 32.894 43.6265 32.0717 43.2321C30.4761 42.141 28.9878 40.9986 29.9194 38.6251C30.9206 38.0368 31.9548 38.0267 32.9975 38.2429C33.8257 38.5618 34.5963 38.9567 34.2785 40.0665L34.2526 40.0667Z" fill="#E7C8A3"/>
<path d="M25.045 40.0925C28.1845 40.3385 28.8984 41.4904 27.3169 43.8743C25.9877 42.9805 24.6604 42.0615 25.045 40.0925Z" fill="#E6D0D6"/>
<path d="M23.5577 40.8033C23.6375 39.768 23.0036 39.2445 22.1822 38.7985C21.3128 38.3026 20.4771 37.7054 21.2991 36.4608C21.5483 36.2565 21.8136 36.1781 22.1231 36.2003C23.3163 36.8696 24.9039 37.1313 25.2724 38.7424C25.301 39.0449 25.2037 39.2982 24.9526 39.5278C24.1221 39.5361 24.6782 41.0696 23.5577 40.8033Z" fill="#DE8894"/>
<path d="M25.1062 39.5393C25.1219 39.3367 25.1635 39.1338 25.1791 38.9311C25.228 38.2978 25.405 37.6886 26.0812 37.3528C27.6908 37.0583 28.8396 37.6796 29.6851 38.8608C29.6428 40.7596 31.175 41.8074 31.9489 43.2424C30.9316 43.2779 29.8141 43.2637 29.6136 42.152C29.1618 39.5747 27.3068 39.3402 25.1082 39.514L25.1062 39.5393Z" fill="#E0A9AD"/>
<path d="M37.5152 31.4156C38.1199 31.6364 38.7505 31.857 39.3552 32.0779C39.6436 33.7134 39.8006 35.3754 39.5388 37.0921C39.0703 38.1302 38.2317 38.5922 37.1572 38.7541C35.7114 38.6929 34.9576 37.7174 34.2019 36.767C33.7093 35.7637 32.7902 34.9158 33.2302 33.5755C34.4492 32.8828 35.6241 32.0898 36.777 31.2465C37.068 31.168 37.3214 31.2411 37.5411 31.4153L37.5152 31.4156Z" fill="#D78B7A"/>
<path d="M39.1478 37.0727C39.3484 35.4222 38.012 33.8095 39.4407 32.1487C39.7509 31.4216 39.1028 30.1779 40.4189 30.017C41.0129 29.9371 40.81 30.9381 40.7943 31.4879C40.1824 33.1668 41.5751 34.0296 42.1502 35.2239C42.2974 35.6474 42.2911 36.0722 42.1549 36.523C41.6724 37.5013 41.0695 38.3807 40.2238 39.0873C38.7162 39.0749 39.4809 37.7444 39.1222 37.0729L39.1478 37.0727Z" fill="#D6803B"/>
<path d="M45.8196 25.333C43.294 27.0382 44.1169 29.4143 44.0272 31.5984C42.4577 31.9144 42.5051 30.2828 41.6195 29.7391C41.4516 26.8799 43.1895 25.7092 45.8215 25.3079L45.8196 25.333Z" fill="#D47651"/>
<path d="M41.8412 35.2631C40.0367 34.5002 39.2415 33.3999 40.8372 31.4953C41.0289 31.6949 41.2445 31.9194 41.4362 32.119C41.6279 32.3186 41.8195 32.5181 42.0351 32.7427C43.4267 34.1645 43.415 34.3157 41.8412 35.2631Z" fill="#D87519"/>
<path d="M41.622 29.6831C43.0885 29.5169 43.267 30.9041 44.0477 31.5529C43.2761 32.4698 42.3422 32.1256 41.433 32.1347C41.4954 31.3259 41.5577 30.5171 41.6201 29.7084L41.622 29.6831Z" fill="#D37C68"/>
<path d="M37.4463 31.5167C37.2394 31.5187 37.0047 31.5462 36.7958 31.5734C35.7497 31.7346 35.3409 31.3361 35.6252 30.3269C36.4348 30.2184 36.093 28.6116 37.043 29.0299C38.0169 29.4732 37.4604 30.6612 37.4703 31.5416L37.4463 31.5167Z" fill="#EF9C40"/>
<path d="M33.3457 33.3595C33.7064 34.3883 34.0929 35.4168 34.4535 36.4455C34.8931 37.121 34.6472 37.627 33.8952 37.9869C33.1366 38.0951 32.6401 37.8231 32.4355 37.1201C31.6781 35.8686 30.9206 34.6172 30.1354 33.3912C30.8156 32.9565 31.4938 32.5469 32.174 32.1122C32.3811 32.1101 32.6141 32.1078 32.8213 32.1058C33.2899 32.4033 33.4382 32.8299 33.3438 33.3847L33.3457 33.3595Z" fill="#E2ABA4"/>
<path d="M33.3573 33.4504C32.8587 33.1773 32.8457 32.6718 32.8327 32.1663C33.0616 30.546 34.1531 30.2064 35.5535 30.243C35.9365 30.6689 36.3454 31.0946 36.7303 31.4953C35.7277 32.3649 35.4501 34.6177 33.3333 33.4254L33.3573 33.4504Z" fill="#DC835B"/>
<path d="M29.6583 38.96C28.4031 38.5345 27.1198 38.1349 25.8646 37.7094C25.267 37.971 25.0273 37.6652 24.9083 37.153C26.4188 34.8824 28.173 36.3556 29.8476 36.444C30.463 36.6441 31.1047 36.8439 31.72 37.0439C32.3123 37.552 33.4027 37.7224 32.9702 38.9319C31.8662 38.9413 30.7622 38.9507 29.6583 38.96Z" fill="#DEBAB7"/>
<path d="M29.7813 36.491C28.3034 37.6783 26.6749 36.0354 25.2067 37.0951C24.6109 37.3557 24.447 37.1022 24.5403 36.5656C24.6628 35.646 22.6586 35.1546 24.1666 33.916C24.3762 33.914 24.5838 33.9376 24.7933 33.9356C25.5818 34.9232 26.6809 35.27 27.9985 35.1557C28.8813 35.2494 29.5031 35.6773 29.7813 36.491Z" fill="#E3C2C3"/>
<path d="M33.0554 38.9236C32.6343 38.2929 32.2113 37.6876 31.8163 37.0566C32.0513 37.0543 32.2862 37.052 32.5212 37.0497C32.9233 37.2489 33.3495 37.4733 33.7516 37.6725C34.8854 38.1946 36.5505 38.2544 36.2212 40.1622C35.7774 40.1665 35.3316 40.1963 34.8858 40.2261C34.6769 40.2281 34.4459 40.1796 34.239 40.1563C33.8525 39.7538 33.4419 39.3261 33.0554 38.9236Z" fill="#C88672"/>
<path d="M21.8258 36.5004C21.5917 36.5027 21.3836 36.5048 21.1495 36.5072C20.9414 36.5092 20.7613 36.4858 20.5552 36.4625C19.8178 34.9021 18.144 34.3626 16.8936 33.3889C16.9092 33.1865 16.9248 32.984 16.9404 32.7816C17.1537 32.3749 17.393 31.9679 17.6063 31.5612C18.0608 31.7336 18.5394 31.9311 18.9939 32.1036C19.6806 33.3105 21.5631 33.1652 21.9962 34.6275C22.3636 35.256 22.4188 35.8876 21.8498 36.5254L21.8258 36.5004Z" fill="#CC7B7C"/>
<path d="M21.9704 36.4755C22.019 35.8449 22.0675 35.2143 22.1161 34.5837C22.9508 35.1803 23.1051 36.5398 24.5068 36.5007C24.7265 36.6749 24.9461 36.8492 25.1658 37.0234C25.3557 37.2484 25.5735 37.4479 25.7634 37.6728C25.7226 38.2025 25.558 38.6578 25.0422 38.9654C24.0176 38.1438 22.995 37.2971 21.9704 36.4755Z" fill="#D08086"/>
<path d="M51.7595 44.4917C51.4684 44.5702 48.6994 46.5393 48.3312 46.9464C47.3879 48.0905 46.1658 47.4723 45.0611 47.685L45.0669 47.6093C44.9352 45.6187 46.4775 43.7626 46.1163 41.7239C46.1908 41.0927 46.3652 40.5111 46.9409 40.1019C47.1225 40.1001 47.3299 40.098 47.5095 40.1214C49.8767 42.695 50.6681 39.4848 52.0828 38.6134C52.3998 38.5346 52.6831 38.557 52.9587 38.6804C53.4605 39.2301 53.6135 39.9346 53.7406 40.6393C53.8995 42.2767 52.3773 43.1996 51.7335 44.4919L51.7595 44.4917Z" fill="#D7997F"/>
<path d="M41.9372 35.2641C43.1637 34.4226 42.4006 33.6004 42.1303 32.7482C43.1477 32.6126 44.4767 33.1277 44.8109 31.4651C45.9988 31.1268 45.8344 32.2597 46.2886 32.7329C46.4282 32.9327 46.5142 33.1581 46.5207 33.4095C46.5072 33.5856 46.5176 33.7866 46.5558 33.9622C46.2525 35.2222 46.9196 36.6235 45.6221 37.7172C44.6174 37.3498 43.7335 36.7551 42.5649 36.8419C42.2807 36.8446 42.0319 36.7213 41.8684 36.4967C41.9013 36.069 41.9321 35.6664 41.965 35.2387L41.9372 35.2641Z" fill="#D47D2D"/>
<path d="M52.8824 38.946C52.674 38.9481 52.4897 38.9753 52.2793 39.0027C51.4944 39.3905 51.3387 38.7081 51.0013 38.3568C51.2631 36.9863 49.7461 35.0509 52.5748 34.4907C53.1154 34.232 53.5909 34.4806 54.1042 34.5768C54.4689 34.5732 54.8357 34.5442 55.1985 34.5659C55.6153 34.5617 56.0582 34.5573 56.4751 34.5532C56.6698 34.7285 56.7825 34.9554 56.7871 35.234C56.6282 35.9449 56.0518 36.3306 55.4994 36.7414C54.9751 37.1266 54.5231 37.5871 54.1434 38.1228C53.7995 38.5316 53.4576 38.915 52.8785 38.9967L52.8824 38.946Z" fill="#D6822A"/>
<path d="M50.9722 38.2274C51.3966 38.4506 51.8229 38.6485 52.2473 38.8717C51.9185 39.431 51.6156 39.99 51.2367 40.5245C50.6264 41.3646 50.3392 42.7322 49.001 42.5687C47.765 42.4294 47.7045 41.1917 47.5206 40.2079C47.7929 39.3712 47.5298 37.7312 49.2598 38.8764C50.1748 39.4738 50.7207 39.4683 50.9462 38.2277L50.9722 38.2274Z" fill="#CF7A39"/>
<path d="M42.5168 36.4371C44.467 35.0056 44.8833 36.6657 45.6355 37.6668C45.3846 37.8962 45.1356 38.1004 44.9106 38.3296C44.3673 38.9906 44.3933 39.999 43.3806 40.3621C42.2311 40.1466 41.9976 39.1403 41.5152 38.3382C41.4977 37.5567 42.0572 37.0216 42.5168 36.4371Z" fill="#E4941A"/>
<path d="M55.1526 34.6456C54.9307 34.8487 54.7068 35.077 54.4849 35.2801C53.6612 34.5846 53.0813 33.7361 52.7473 32.7093C52.7627 32.5082 52.7781 32.3071 52.7935 32.106C54.352 31.9654 55.2196 31.0778 55.5378 29.6177C55.9767 29.6135 56.3897 29.6095 56.8285 29.6053C55.7559 31.148 55.0609 32.8127 55.1784 34.6454L55.1526 34.6456Z" fill="#EB9F38"/>
<path d="M46.8228 40.1199C46.7745 40.7489 46.7262 41.3779 46.6799 41.9818C46.404 42.2108 46.112 42.3142 45.7502 42.3177C44.6363 42.0268 44.231 41.2514 44.2882 40.1697C44.3527 39.6662 44.5664 39.2367 45.0069 38.8804C45.9967 38.7702 46.8102 38.9383 46.8228 40.1199Z" fill="#DCA7A4"/>
<path d="M52.6939 32.6844C54.2082 32.8965 54.2686 34.1327 54.4406 35.2669C53.3138 36.0859 53.219 34.6228 52.4959 34.5796C51.7657 33.9558 51.2711 33.3045 52.6919 32.7097L52.6939 32.6844Z" fill="#EEB56A"/>
<path d="M44.9483 38.8937C44.8924 39.2945 44.8384 39.6702 44.7824 40.0709C44.2992 40.7005 44.5929 41.2232 44.7783 41.822C45.2414 43.4939 44.343 43.852 42.8783 43.5646C42.5838 43.3921 42.4508 43.1181 42.4241 42.7931C42.4997 41.7918 42.7473 40.8892 43.5715 40.1565C43.6377 39.2804 44.0953 38.6511 44.9424 38.2934C44.9272 38.4937 44.9377 38.6937 44.972 38.9186L44.9483 38.8937Z" fill="#D48527"/>
<path d="M48.4586 35.7995C48.901 35.7951 49.3433 35.7906 49.7857 35.7862C49.7499 36.925 49.3479 38.0927 48.0077 37.6002C46.8699 37.1815 47.9212 36.3614 48.4586 35.7995Z" fill="#D2927E"/>
<path d="M45.9814 33.3923C45.594 32.7715 45.2065 32.1507 44.8172 31.5549C44.9925 30.2309 44.7867 28.8849 45.52 27.6064C46.0465 26.7038 46.4909 25.8767 47.6898 26.566C47.7014 28.4625 45.9427 30.1484 46.6381 32.1144C46.6737 32.6631 46.3649 33.0399 45.9796 33.4173L45.9814 33.3923Z" fill="#E18C2D"/>
<path d="M46.0319 33.3873C46.0729 32.8544 46.1622 32.3718 46.7071 32.0621C47.3329 32.0559 48.3517 31.0063 48.4867 32.298C48.6198 33.6151 47.3434 33.2728 46.5717 33.4833C46.3911 33.4598 46.2125 33.4108 46.0319 33.3873Z" fill="#E4BC9F"/>
<path d="M64.1772 40.7198C64.8658 40.5362 65.8924 41.6869 66.1728 40.0689C67.276 40.5626 67.3838 41.5206 67.276 42.5816C67.7128 43.3091 69.2924 42.3343 69.2593 43.7732C68.1178 45.1222 66.3071 45.3926 65.0494 46.5661C64.3628 46.7244 63.893 46.4263 63.4608 45.9763C62.1232 44.1473 63.5237 42.4677 64.1753 40.745L64.1772 40.7198Z" fill="#F4AD68"/>
<path d="M69.1776 43.7959C68.5629 43.3737 67.9721 42.9764 67.3573 42.5542C68.2124 42.5457 69.0674 42.5372 69.9225 42.5287C72.0881 43.9938 71.4314 45.4617 69.5808 46.9666C69.2168 47.3229 68.8262 47.352 68.3993 47.1799C68.1797 47.0057 68.0955 46.7546 68.1168 46.4772C68.3441 45.5427 68.9244 44.7307 69.1776 43.7959Z" fill="#E79C74"/>
<path d="M66.256 36.4469C66.2507 36.8695 66.2473 37.2672 66.2421 37.6898C66.1828 38.5104 66.1236 39.331 66.0643 40.1516C65.1405 38.9392 65.3043 37.7203 66.2289 36.472L66.256 36.4469Z" fill="#F4AD68"/>
<path d="M64.0162 40.693C65.4171 42.3697 62.3818 44.0654 63.627 45.7436C62.5843 46.4858 61.7686 45.964 60.9212 45.5183C59.7565 44.1421 57.3635 44.5697 56.4337 42.8379C56.6965 40.4381 59.0278 40.1373 60.4929 38.9619C61.4643 38.4728 62.3305 37.3286 63.5322 38.225C63.7015 39.056 63.8709 39.887 64.0422 40.6928L64.0162 40.693Z" fill="#EAAD8E"/>
<path d="M63.4605 38.2524C62.3197 38.1362 61.6925 39.1601 60.7499 39.5254C59.7898 40.12 58.6267 39.953 57.6869 40.6237C56.9117 41.191 56.0831 42.1151 55.1297 41.2591C54.15 40.4033 54.8054 39.3537 55.2476 38.357C55.3756 38.0504 55.6285 37.8189 55.8572 37.5623C56.3892 37.0991 56.9657 36.7373 57.6803 36.9594C59.4948 36.1276 61.2526 36.0343 62.9364 36.9088C63.1175 36.9325 63.2986 36.9562 63.5058 36.9796C63.5007 37.3868 63.4956 37.794 63.4906 38.2012L63.4605 38.2524Z" fill="#DF893F"/>
<path d="M63.0306 35.8344C62.5877 35.1247 61.8185 35.2594 61.1134 35.2405C61.7742 34.4694 62.5918 34.3852 63.3142 34.8628C63.6875 35.1143 63.4187 35.5503 63.0306 35.8344Z" fill="#D7A289"/>
<path d="M56.4656 35.2282C56.4811 35.0266 56.4985 34.7997 56.5141 34.5981C56.4195 34.1457 56.323 33.7185 56.2284 33.2661C56.7962 33.2857 57.3381 33.3055 57.9059 33.3251C57.6658 33.7556 57.4237 34.2113 57.1835 34.6418C57.2924 35.2452 57.0237 35.3738 56.4656 35.2282Z" fill="#EB9F38"/>
<path d="M56.4774 35.1826C56.7261 34.9786 56.947 34.8 57.1957 34.596C58.0799 35.2171 57.5916 36.1793 57.5793 37.0109C57.1473 37.2419 56.7172 37.4477 56.2852 37.6788C55.1795 37.9165 54.8278 37.4413 55.0091 36.4317C55.5084 35.9984 55.9799 35.5906 56.4793 35.1574L56.4774 35.1826Z" fill="#DFA78D"/>
<path d="M68.2536 46.7799C68.7001 46.776 69.1203 46.7723 69.5668 46.7684C69.5183 47.4093 69.4719 48.0246 69.4234 48.6654C67.9071 48.9349 66.389 49.9217 64.9664 48.6019C64.3524 48.0437 63.8741 48.8164 63.4939 49.3321C60.3409 48.3349 60.519 48.4102 59.1086 51.4456C58.0413 53.7606 56.2878 51.957 54.8151 51.9955C54.605 51.9973 54.3949 51.9991 54.1848 52.001C54.9247 50.8929 56.3257 51.8029 57.3302 50.6669C55.609 49.4779 54.0045 48.1341 52.993 45.8884C54.7237 46.2576 56.2762 46.5515 57.8006 46.8712C61.2801 47.0201 64.8371 46.1436 68.2536 46.7799Z" fill="#DB998C"/>
<path d="M48.967 49.3657C49.1267 48.2856 49.7804 47.4768 50.5249 46.4916C52.1835 48.0312 51.8775 50.0157 51.9953 51.8457C50.1606 51.9382 49.1105 51.1955 48.9651 49.3908L48.967 49.3657Z" fill="#B5786E"/>
<path d="M55.0929 36.3789C55.5275 36.804 55.938 37.204 56.3725 37.6291C55.8509 38.6699 55.1253 39.6623 55.3741 41.1501C57.1513 40.324 58.7875 38.9689 60.7472 39.4797C59.4864 40.6795 57.5163 40.9771 56.6342 42.653C56.2503 43.5914 55.5521 44.2299 54.5654 44.5682C53.6781 44.6276 52.7798 45.167 51.9392 44.6197C50.7844 42.7621 53.8996 42.4278 53.6307 40.8644C53.4508 39.8306 54.494 38.7593 53.8483 37.7048C54.0789 37.0711 54.5278 36.6372 55.1468 36.3531L55.0929 36.3789Z" fill="#D57F4A"/>
<path d="M54.6088 44.456C55.0913 43.6125 55.7953 42.9447 56.6888 42.5292C57.8134 43.8656 60.5925 42.6946 61.0661 45.0286C61.6861 45.4548 62.25 45.9322 61.6649 46.7514C61.136 47.5191 60.3658 47.3487 59.6537 47.1014C58.8652 46.8295 58.3092 46.2502 57.725 45.6967C56.3507 45.9134 55.5326 45.0063 54.5585 44.4311L54.6088 44.456Z" fill="#E6A152"/>
<path d="M57.8351 45.7252C58.7898 45.6408 59.2561 46.4633 60.0298 46.6899C62.1195 47.294 61.5011 46.0338 61.18 45.0296C62.0348 45.2298 62.8895 45.43 63.7423 45.656C64.1752 45.8593 64.5818 46.0628 65.0147 46.2662C66.29 45.7664 67.3236 46.0427 68.2097 46.888L68.2341 46.9136C68.1153 47.0951 67.9324 47.432 67.8533 47.4326C64.5322 46.7343 60.8657 48.9293 57.7152 46.9908C57.7457 46.5776 57.7782 46.1386 57.8087 45.7254L57.8351 45.7252Z" fill="#E79C74"/>
<path d="M42.6185 42.6276C42.6049 42.804 42.6172 42.9802 42.6315 43.1312C42.4846 43.3593 42.2897 43.5375 42.047 43.6658C41.6967 43.8456 41.3465 44.0253 41.0183 44.2552C40.5535 44.9146 40.4617 45.7718 39.7735 46.3075C39.5663 46.3095 39.3333 46.3118 39.1241 46.3391C39.7104 43.7645 39.3094 41.5774 36.9578 40.1904C37.0704 39.7359 37.3786 39.4307 37.8324 39.2499C39.2645 39.135 40.149 40.0833 41.214 40.7023C41.8745 41.1995 42.5886 41.6709 42.6204 42.6024L42.6185 42.6276Z" fill="#D7A672"/>
<path d="M37.5685 39.5336C37.3171 39.7635 37.0638 40.0187 36.7864 40.2488C36.6065 40.2253 36.4265 40.2019 36.2466 40.1784C35.4274 39.353 34.6083 38.5276 33.7891 37.7021C34.3303 37.4189 34.4972 36.9372 34.5901 36.4058C35.3709 37.0548 36.1537 37.6785 36.9345 38.3275C37.4087 38.5753 37.9349 38.8227 37.5406 39.5592L37.5685 39.5336Z" fill="#E2A68C"/>
<path d="M46.017 41.9598C46.2489 41.9576 46.4809 41.9554 46.7129 41.9532C46.8687 43.9592 46.4135 45.8707 44.9981 47.5403C44.5857 47.5442 44.1733 47.5481 43.7609 47.552C42.8659 46.4563 43.3858 45.0461 43.224 43.7929C44.4212 43.6311 45.2997 42.9201 45.9893 41.9851L46.017 41.9598Z" fill="#DDACA1"/>
<path d="M43.3331 43.8003C45.0482 44.7411 43.5834 46.2682 43.6976 47.4771C43.4642 47.4795 43.2289 47.507 42.9937 47.5346C42.7921 47.4609 42.4887 47.3631 42.4965 47.2622C42.7505 45.6463 41.4697 45.4574 40.4138 45.0393C40.3328 44.4099 40.2278 43.7555 40.7631 43.1956C41.1779 43.1915 41.6187 43.1871 42.0335 43.183C42.3375 43.6085 43.031 43.3495 43.3072 43.8005L43.3331 43.8003Z" fill="#C68F89"/>
<path d="M40.6219 45.0564C43.0869 44.3262 42.509 46.4491 43.0216 47.5277C40.858 49.3891 41.4404 46.5353 40.5008 46.2926C40.1968 45.8671 40.2279 45.4636 40.6478 45.0561L40.6219 45.0564Z" fill="#B98281"/>
<path d="M40.5506 45.0774C40.5217 45.4755 40.4657 45.8986 40.4114 46.2968C40.2088 46.2981 40.0062 46.2993 39.8307 46.2756C40.0313 45.2547 39.559 44.0889 40.6842 43.2363C40.639 43.8583 40.5939 44.4803 40.5488 45.1023L40.5506 45.0774Z" fill="#D7A494"/>
<path d="M37.6644 39.5461C37.4619 39.1443 37.2593 38.7424 37.0588 38.3153C37.7669 37.8791 38.477 37.4177 39.1852 36.9815C39.55 37.6341 39.8908 38.2617 40.2556 38.9144C40.8333 39.161 41.0799 39.6634 41.2188 40.2173C41.2617 40.6713 41.1526 41.0762 40.7657 41.383C39.7499 40.7621 38.7081 40.1415 37.6903 39.5458L37.6644 39.5461Z" fill="#E4B358"/>
<path d="M40.8233 40.2461C40.6501 39.8219 40.4511 39.3978 40.2779 38.9736C40.1599 37.8224 41.0081 37.1383 41.8069 36.4297C42.0125 36.4278 42.2181 36.4259 42.4495 36.4238C42.1962 37.0524 41.9173 37.6811 41.664 38.3097C42.0105 39.1582 41.5793 39.7633 40.8491 40.2459L40.8233 40.2461Z" fill="#D48527"/>
<path d="M53.7204 37.7222C56.2474 38.7021 54.0766 39.8019 53.5061 40.8615C52.7434 40.3918 52.906 39.6123 52.936 38.8841C53.1968 38.5052 53.4576 38.1262 53.7185 37.7473L53.7204 37.7222Z" fill="#DDA694"/>
<path d="M40.8806 40.222C41.1621 39.5672 41.4418 38.9376 41.6976 38.2831C43.0979 38.1446 42.6701 39.7036 43.4855 40.1474C43.3412 41.0266 43.6252 42.0271 42.6206 42.7137C42.0093 42.2931 41.4257 41.8471 40.8144 41.4264C40.845 41.0249 40.848 40.6486 40.8529 40.2473L40.8806 40.222Z" fill="#C7781D"/>
<path d="M43.3278 43.8921C42.7846 43.8723 42.299 43.7762 42.0524 43.2739C42.2861 43.2715 42.4977 43.2189 42.7313 43.2166C43.692 43.207 44.8727 43.3719 44.3222 41.7619C44.1113 41.133 44.234 40.5512 44.7922 40.0408C44.8298 40.8986 45.0849 41.6281 45.9385 41.9981C45.8119 43.6401 44.65 43.9042 43.2999 43.9177L43.3278 43.8921Z" fill="#D7997F"/>
<path d="M68.2544 46.9128C67.0984 47.0257 66.0102 46.9349 65.0936 46.3095C65.5121 43.9198 67.6911 44.4059 69.1771 43.7314C70.6333 45.1382 68.6737 45.8682 68.2824 46.8871L68.2544 46.9128Z" fill="#F3A252"/>
</svg>
