<svg width="255" height="283" viewBox="0 0 255 283" fill="none" xmlns="http://www.w3.org/2000/svg">
<path d="M205.506 184.321C206.031 199.141 195.759 202.399 186.094 206.319C182.32 205.157 178.552 206.365 174.911 206.661C170.584 207.017 169.889 205.259 170.306 201.308C170.483 199.652 170.244 197.917 171.105 196.387C173.384 193.389 175.277 190.94 170.905 187.27C166.907 183.922 167.839 174.295 171.673 171.894C170.967 171.982 172.029 171.876 171.867 171.922C167.726 172.808 165.42 171.936 168.046 166.919C170 163.224 170.279 158.737 172.648 155.306C173.562 154.006 172.37 153.259 171.945 152.337C170.937 149.987 170.171 147.659 172.378 145.618C177.142 143.785 181.01 146.279 184.945 148.923C185.808 149.527 186.459 152.08 188.076 149.903C190.04 148.024 191.588 149.912 193.242 150.733C196.317 150.876 198.377 153.623 201.132 154.649C203.524 155.641 205.49 157.24 206.887 159.647C205.852 166.126 208.428 172.839 206.379 179.233C206.578 181.026 205.717 182.556 205.499 184.27L205.506 184.321Z" fill="#DEDDD8"/>
<path d="M48.2087 160.629C46.0789 158.057 46.4103 154.968 46.4133 151.919C50.6328 150.788 53.3527 154.469 56.5721 156.222C60.8667 158.577 64.6081 159.161 68.5654 155.724C66.0632 152.646 63.802 149.591 62.3884 145.879C61.8664 144.551 61.4722 143.103 59.4323 143.751C56.5671 144.661 55.9369 142.269 55.6553 139.808C55.3535 137.376 58.0775 135.328 56.2495 132.692C55.9571 132.255 55.7116 131.813 55.4662 131.371C54.3712 129.458 53.4915 127.36 51.2985 126.583C49.7807 126.063 48.2041 125.261 48.087 123.357C47.9665 120.85 50.237 120.908 51.6081 120.054C52.7896 119.591 53.9626 119.444 55.1989 120C63.1934 123.18 68.2472 130.117 73.2807 137.083C74.4844 138.72 74.756 140.525 73.621 142.322C72.9794 143.296 70.4037 142.698 71.6632 145.168C73.2012 148.156 73.4813 152.141 76.2912 154.05C78.2668 155.38 80.5231 156.859 82.7649 157.263C86.131 157.894 87.0284 159.175 86.5864 162.909C86.2209 166.107 86.0475 169.703 88.3833 172.591C89.9603 174.549 86.0575 177.847 89.8142 179.323C93.5719 183.111 95.9071 187.339 94.6896 193.272C93.6509 198.342 93.6756 203.726 91.7005 208.544C91.334 209.431 90.928 210.191 91.9287 210.96C94.7238 213.134 93.5665 215.328 91.7287 217.028C90.0187 218.608 87.7937 220.068 85.9741 217.116C84.6924 215.042 83.7287 216.109 82.5591 216.859C81.0601 217.834 80.2269 219.567 78.8409 220.686C78.2087 221.159 77.5242 221.403 76.7082 221.163C76.2815 220.796 76.1032 220.319 76.1061 219.766C76.2069 218.466 76.81 217.182 76.4351 215.889C75.4492 212.359 76.564 210.591 80.1197 210.831C76.0483 209.315 72.1069 209.807 68.2597 208.947C67.5302 208.828 66.821 208.68 66.0989 208.429C65.1496 208.074 64.3089 207.443 63.5759 206.72C60.1284 202.552 60.243 201.171 64.6705 199.988C67.8972 199.112 70.6335 198.508 71.7952 194.237C72.5671 191.435 74.8569 191.648 76.4484 194.682C77.045 195.842 77.3092 195.284 77.7389 195.099C80.0678 194.282 82.082 195.923 84.9467 196.354C82.7443 193.581 83.3034 189.254 78.4917 189.644C76.7225 189.786 78.015 184.842 81.2551 182.73C78.708 179.29 75.5918 177.025 71.5146 176.614C71.5333 173.117 67.5534 170.802 69.0287 166.755C69.3482 165.874 67.5958 165.384 66.5858 165.115C63.8297 164.408 61.1092 164.564 58.3794 165.22C55.1951 163.174 52.2153 160.471 48.2289 160.601L48.2087 160.629Z" fill="#E2E0DD"/>
<path d="M114.717 70.0311C116.629 73.2585 119.246 75.9746 120.031 80.745C122.521 76.8361 122.562 72.9152 124.713 69.5515C130.299 60.8114 138.761 60.7348 146.741 58.7075C147.841 58.6762 148.709 59.097 149.209 60.2252C149.375 60.7866 149.291 61.2733 148.938 61.7142C139.929 65.6955 135.871 72.4457 136.267 82.9794C136.366 85.9039 136.438 88.8052 133.468 90.2075C133.082 90.3879 133.068 90.6543 133.8 91.145C135.26 92.0742 136.129 93.4738 136.626 95.158C137.142 97.1838 137.307 99.0946 135.317 100.269C133.103 100.413 131.127 98.9925 128.812 99.096C126.098 99.2758 125.876 96.7107 125.26 94.4592C124.387 91.2874 124.381 87.3724 120.53 85.7362C120.275 87.9375 121.231 89.6438 121.545 91.4037C122.129 93.3947 122.428 95.421 122.68 97.4532C122.826 99.2077 123.161 100.939 123.516 102.641C123.652 103.735 123.337 104.674 122.853 105.607C122.653 106.32 122.874 105.393 122.627 106.112C121.339 110.558 118.767 112.07 114.911 110.646C113.241 112.468 115.534 115.092 114.013 116.949C109.995 116.286 105.734 119.463 101.639 115.476C100.23 119.012 102.167 121.469 103.684 124.217C104.947 126.467 108.023 129.205 105.723 131.556C103.362 133.994 101.262 130.419 99.1517 128.883C96.678 127.128 94.8044 124.213 91.5879 123.821C89.0127 120.861 86.2017 119.095 82.6589 121.68C81.8693 121.699 81.23 121.382 80.6733 120.764C79.8972 119.538 79.7355 118.235 79.9927 116.827C80.1708 116.329 80.4564 115.923 80.8494 115.609C82.9654 114.869 85.2266 114.719 87.3361 113.927C87.754 114.007 88.1784 114.139 88.5416 114.359C90.468 114.991 89.5242 113.575 89.4272 112.793C88.5207 110.71 87.3918 108.576 89.3192 106.51C90.9953 104.739 92.4645 106.329 94.0471 106.899C103.065 110.139 110.246 104.772 110.855 94.4042C110.98 92.5101 110.74 90.5821 110.939 88.7052C111.107 83.869 111.322 79.0269 111.2 74.1739C111.138 71.7475 110.946 68.6495 114.778 69.9441L114.717 70.0311Z" fill="#D6D3CC"/>
<path d="M130.493 201.005C129.681 204.118 128.843 207.209 128.051 210.293C128.343 214.959 124.97 217.124 122.644 220.003C122.44 220.293 122.163 220.565 121.959 220.855C121.514 220.937 121.07 220.834 120.701 220.563C116.955 221.849 112.724 219.603 109.146 222.242C108.267 222.88 107.249 221.819 106.28 221.543C104.936 220.945 103.704 222.023 102.379 221.766C101.231 221.011 100.658 219.867 100.531 218.456C100.624 217.282 101.188 216.419 102.061 215.729C102.973 215.166 103.936 215.204 104.939 215.37C107.207 215.694 108.919 214.424 110.355 212.871C111.873 211.202 113.597 211.198 115.608 211.766C113.762 210.596 111.78 212.191 110.103 210.841C109.619 206.939 110.709 203.368 111.853 199.843C113.175 195.821 112.014 193.615 108.008 193.375C107.524 193.144 107.257 192.729 107.05 192.226C107.021 191.411 107.241 190.67 107.608 189.963C111.096 187.758 114.115 185.056 115.251 180.502C119.88 180.163 121.098 184.185 122.063 187.711C123.021 191.184 123.041 195.013 119.928 197.541C117.885 199.223 115.487 200.553 116.013 204.212C116.371 201.499 117.775 199.686 119.622 198.161C120.448 197.476 121.165 196.885 122.401 197.576C125 199.022 127.65 197.212 126.735 194.473C124.062 186.642 125.77 179.745 129.201 173.029C130.92 171.625 130.477 168.827 132.115 167.354C133.325 166.49 134.443 165.267 136.088 166.357C136.588 169.808 138.524 173.054 137.137 176.741C136.487 178.46 138.258 178.636 139.17 179.42C144.675 184.202 144.684 185.047 139.559 189.702C141.003 191.873 143.986 191.977 145.077 194.588C145.423 195.443 146.038 196.344 145.225 197.132C144.413 197.921 143.665 196.72 142.836 196.797C139.129 194.538 135.51 191.053 131.483 195.862C132.153 197.786 130.772 199.2 130.554 200.918L130.493 201.005Z" fill="#D6D3CB"/>
<path d="M142.88 196.584C143.327 195.95 145.045 197.104 144.543 195.561C143.956 193.712 142.29 192.788 140.616 192.181C139.189 191.649 137.358 191.509 137.223 189.262C137.063 186.623 139.146 187.258 140.464 186.725C142.555 185.885 144.148 185.449 140.595 183.55C139.243 182.85 138.608 180.034 136.227 179.699C135.745 179.654 134.923 177.65 135.031 177.558C138.612 174.294 133.676 169.909 136.029 166.562C135.81 163.641 137.383 161.891 139.27 160.366C139.761 160.094 140.299 160.001 140.855 160.063C141.357 160.263 141.758 160.608 142.084 161.12C141.034 164.2 145.005 166.968 143.131 169.94C143.09 169.998 143.453 169.847 143.629 169.535C147.436 162.901 147.298 163.523 154.674 165.656C156.879 166.302 159.488 166.371 161.797 167.478C163.015 168.063 164.333 168.873 163.439 170.327C160.84 174.574 163.037 179.011 162.86 183.351C162.83 183.881 162.673 184.348 162.389 184.752C159.466 186.775 161.015 190.794 159.357 193.396C157.643 196.506 156.319 200.646 152.018 196.76C152.04 199.048 155.389 201.236 152.597 203.927C151.349 203.872 150.714 202.214 149.371 202.355C147.201 200.441 145.03 198.527 142.907 196.607L142.88 196.584Z" fill="#D8D7D1"/>
<path d="M72.5427 81.5749C72.4781 81.0548 72.4071 80.4826 72.3426 79.9624C77.8493 81.4938 78.5211 88.0659 81.9957 90.5905C79.5712 86.8784 77.3553 81.9517 74.3688 77.5702C73.3133 76.0115 72.1226 74.5225 73.4532 72.5076C78.0812 72.1679 78.8214 70.9926 76.253 66.5061C74.2253 62.9029 74.2918 60.544 77.9759 59.1598C80.3104 58.2874 80.8164 55.6095 82.5814 54.2007C83.8435 52.4057 85.1056 50.6106 86.3474 48.8445C88.5176 52.245 90.0663 56.04 91.7231 59.7422C94.1053 65.0443 93.2375 66.1563 86.6752 65.5753C91.5255 68.9583 90.0087 74.298 92.2231 78.2476C93.2102 80.0261 90.8701 83.1706 94.6272 84.4978C95.857 84.9518 95.7558 88.7678 93.1476 89.1725C85.1207 90.4911 85.8689 97.8723 84.6043 103.894C84.4757 111.543 79.5246 115.647 72.8352 113.656C71.6654 113.3 70.4957 112.944 69.3944 112.368C68.7296 112.028 68.038 111.666 67.4074 111.216C64.5674 105.892 69.2117 106.263 71.3909 105.49C73.361 104.768 76.6667 106.125 77.2198 103.442C77.9248 100.052 79.2922 96.2102 76.8067 92.585C74.5615 89.3523 74.2338 85.1673 72.5695 81.598L72.5427 81.5749Z" fill="#E2E1DD"/>
<path d="M83.5508 103.765C80.7229 99.4759 86.4 97.8178 85.7763 93.7545C85.0559 88.9119 89.1921 88.7123 92.2491 87.9087C93.1985 87.6584 94.4543 87.95 94.2822 86.1779C94.1608 85.0061 94.0135 83.6265 92.9193 83.2883C91.0265 82.6804 92.7409 86.4758 90.1093 85.6964C91.7235 78.083 90.2818 71.0884 84.5189 64.9233C87.1103 64.4152 89.0443 61.1141 91.6848 65.2423C92.0641 58.4688 85.5541 54.9555 86.3275 48.6604C89.5024 43.4108 92.5424 43.2424 98.811 47.8937C98.8616 48.4941 99.4892 49.3125 99.4689 49.3415C96.6227 52.2289 95.539 56.2152 94.9242 60.5122C95.2058 60.6617 95.2747 59.0968 96.0218 58.9508C97.469 58.6647 98.3247 59.5866 99.0178 60.7398C99.6241 61.772 99.5979 62.9095 99.3093 64.0533C95.7403 71.3304 99.5409 77.292 102.859 83.0238C105.137 86.9333 105.155 89.9645 102.374 93.1866C100.236 95.6163 98.2831 97.4163 96.2634 92.8941C95.3397 90.8465 93.2158 90.6895 91.6606 91.0683C90.3612 91.3887 89.8996 93.4509 89.6026 94.9123C89.3741 96.1542 89.5684 97.5279 89.5208 98.8791C89.2626 105.664 89.2893 105.687 83.524 103.742L83.5508 103.765Z" fill="#DEDDD9"/>
<path d="M134.554 99.8185C136.053 98.419 135.586 96.5796 135.414 94.8087C136.919 93.4611 138.894 94.9279 140.444 93.9437C141.361 93.4339 142.175 91.909 143.039 92.3283C148.079 94.8096 147.58 90.022 148.353 87.3952C149.167 84.7106 149.485 81.877 151.398 79.7669C152.006 79.0848 152.803 78.3792 153.66 78.9311C154.958 79.7706 153.454 80.9336 153.818 81.9424C153.927 83.0096 154.055 84.0478 154.191 85.1379C154.232 86.2398 152.242 86.3827 153.141 87.8519C153.741 88.8314 154.568 88.7545 155.39 88.2565C156.839 87.4168 158.39 87.5922 159.94 87.9523C160.396 88.159 160.811 88.4234 161.212 88.7687C163.45 92.3639 164.202 96.3028 161.738 99.7469C159.747 102.578 163.098 104.163 162.401 106.438C161.827 109.514 158.681 108.431 157.281 110.24C154.357 113.056 154.043 107.639 151.898 108.065C147.82 107.941 149.896 112.927 147.678 114.311C137.603 112.643 134.723 109.655 134.282 100.511C134.397 100.286 134.512 100.061 134.628 99.8357L134.554 99.8185Z" fill="#DBD8D3"/>
<path d="M66.3987 208.033C66.8695 207.974 67.3875 207.909 67.8583 207.851C68.7683 211.139 66.7342 211.894 64.5931 212.557C61.3441 210.457 60.0466 206.742 58.182 203.468C58.2513 200.558 62.5614 199.071 60.0426 194.955C59.3229 193.779 62.2724 191.539 63.3782 189.661C64.5965 188.111 65.7012 186.417 67.0801 185.006C70.7096 181.309 70.6621 180.155 66.3792 177.815C67.6605 175.809 69.4745 175.978 71.3475 176.43C77.3338 173.231 79.1038 180.367 82.9306 182.5C83.7752 182.949 82.9619 185.45 82.7007 185.271C77.2625 181.52 80.9387 189.183 79.4552 188.788C81.7584 186.734 83.9298 186.7 83.9085 191.924C83.9046 192.663 83.7529 193.368 84.5162 193.932C85.5139 194.651 87.5698 194.843 86.5369 196.923C85.5992 198.807 84.0726 197.679 82.5817 197.416C80.6274 197.08 78.0298 193.871 76.5012 198.123C76.4606 198.18 75.567 198.107 75.3197 197.848C74.0166 196.402 74.8047 194.853 75.5957 192.751C74.3492 193.302 72.9559 193.634 72.9539 194.003C72.8142 202.512 65.5818 199.907 61.6757 202.531C61.5984 204.413 63.8372 204.344 63.916 205.943C64.0345 207.669 64.8845 208.354 66.4051 208.085L66.3987 208.033Z" fill="#E7E6E4"/>
<path d="M46.5639 150.467C42.6936 143.443 38.7627 136.506 39.6794 127.782C40.1165 123.633 39.2531 119.935 35.0004 118.077C33.6386 117.46 32.596 115.963 32.5259 114.055C36.339 114.288 39.5451 117.878 43.7879 116.587C45.3698 116.101 45.6796 118.215 45.8114 119.852C46.0245 122.528 47.564 124.961 49.5885 125.548C53.143 126.575 54.672 129.691 56.9072 132.168C57.7543 135.159 55.4575 137.939 56.619 140.97C55.9608 143.913 57.297 146.818 56.9531 149.8C56.4044 154.777 55.2361 155.526 51.0727 153.237C49.5648 152.402 48.3145 150.957 46.597 150.541L46.5639 150.467Z" fill="#E8E8E5"/>
<path d="M98.619 63.3145C99.2675 61.0525 97.7408 59.6926 96.3469 59.7878C94.4774 59.8897 96.1582 62.4917 94.8715 63.8348C93.1517 62.2625 93.285 59.8808 92.4439 58.0937C93.6752 57.0729 94.2299 59.8154 95.2425 58.3752C96.1133 57.1365 95.3674 56.3099 94.3593 55.6736C90.7877 53.3864 93.696 53.2074 95.0755 52.0367C96.4551 50.866 99.8074 51.5776 98.8897 47.8292C102.557 49.7366 106.271 51.638 109.959 53.5166C110.975 54.0205 111.748 54.6861 111.795 56.0205C110.016 57.8191 111.091 59.7609 111.664 61.6866C112.237 64.7685 114.864 66.9369 114.987 70.2326C112.5 70.543 112.412 72.1308 112.666 74.5691C113.156 79.4746 113.029 84.4045 112.159 89.2957C108.092 86.8601 107.349 81.8286 107.529 78.2849C107.692 75.3739 106.718 73.288 106.343 70.8385C106.768 70.2336 107.777 70.6858 108.07 69.782C107.713 70.1682 107.263 70.382 106.693 70.4005C105.301 70.1275 104.388 66.7991 102.572 69.4433C101.701 70.6819 100.891 71.8341 99.3303 70.5836C98.0564 69.5338 97.8766 68.0847 98.4071 66.5995C98.7948 65.5 98.8072 64.4473 98.5988 63.3433L98.619 63.3145Z" fill="#D9D8D1"/>
<path d="M154.064 82.0055C153.654 80.816 153.345 78.1354 152.003 81.2068C149.802 86.2333 148.339 91.6164 147.773 98.0492C146.016 94.4935 144.023 92.1287 140.797 95.0656C139.857 94.6285 138.922 94.4283 137.866 94.4017C136.547 94.3815 135.557 93.3436 135.288 91.9515C134.961 90.2764 136.095 89.5805 137.288 89.1676C139.014 88.609 140.586 87.9641 140.592 85.5082C140.613 81.6249 142.697 80.8633 147.009 82.4371C140.953 78.3882 141.161 78.5206 144.159 72.9723C145.172 71.1036 147.109 68.7763 144.944 65.9842C143.861 64.5882 144.815 63.5979 145.829 62.7058C146.844 61.8136 148.718 62.4509 149.099 60.5027C149.054 59.9538 149.251 59.6125 149.77 59.5477C151.402 61.5089 153.054 63.441 154.618 65.437C159.17 71.2575 156.604 76.62 154.011 81.9593L154.064 82.0055Z" fill="#E0DEDA"/>
<path d="M152.247 203.407C152.315 200.696 151.09 198.303 150.421 195.789C150.04 194.445 150.219 193.583 151.578 193.414C152.187 193.338 153.279 193.123 153.12 194.14C152.856 195.852 152.602 197.065 154.811 197.025C156.825 196.958 156.739 195.499 156.834 193.965C156.919 193.115 157.55 192.826 158.325 192.939C162.188 196.262 166.947 195.879 171.344 196.983C170.793 199.834 171.948 202.812 170.427 205.705C175.146 205.379 179.329 205.146 183.499 204.809C184.838 204.668 185.288 205.609 185.812 206.567C181.172 208.301 176.506 210.012 171.482 209.982C169.291 210.545 167.039 209.854 164.844 209.997C163.514 210.977 162.35 209.652 161.079 209.575C159.18 209.418 157.748 208.232 156.336 207.017C154.526 206.43 153.127 205.318 152.233 203.488L152.247 203.407Z" fill="#DBD9D4"/>
<path d="M202.573 81.7755C202.866 82.0282 203.133 82.2579 203.427 82.5106C204.503 84.4542 205.364 86.3984 204.419 88.7783C202.693 93.1232 204.239 96.1654 207.826 98.5583C209.389 99.6258 211.894 100.207 211.603 103.242C210.862 103.808 210.105 103.666 209.323 103.316C208.179 102.749 207.232 101.841 206.204 101.049C205.463 100.458 204.667 100.005 203.729 99.9377C203.019 99.7895 202.411 99.4973 201.911 98.9284C200.779 97.4915 199.347 96.9074 197.729 97.3198C194.681 98.1211 192.204 97.3781 189.601 95.2306C186.924 93.0659 184.282 94.2636 182.611 97.1287C181.237 99.5096 179.915 100.963 177.317 99.0519C178.527 96.1129 177.484 93.0868 177.513 90.0583C177.799 89.2862 178.305 88.7497 179.03 88.4487C184.767 90.0999 188.403 85.9638 191.882 82.4786C195.764 78.601 198.195 78.0083 202.573 81.7755Z" fill="#DBDAD4"/>
<path d="M57.0981 131.955C53.0794 128.775 49.1077 125.589 45.0486 122.466C43.8869 121.559 43.9986 120.73 44.5275 119.612C45.4094 117.687 44.3748 116.843 42.9631 117.572C38.3982 119.982 35.9065 115.849 32.7197 113.801C38.896 110.926 44.4548 106.918 49.9475 102.762C51.9533 101.249 54.241 102.199 56.4174 102.638C57.7218 103.159 56.8118 104.088 56.7609 104.83C61.2842 102.662 61.9763 108.624 65.0345 109.636C65.8199 111.931 64.8921 113.678 63.5832 115.235C62.1058 116.971 60.5265 117.694 59.012 115.095C58.4406 114.141 57.7411 113.308 57.0417 112.475C54.6829 109.797 52.2999 107.886 49.2585 111.237C48.2738 112.333 46.7998 112.175 45.4776 112.471C47.3223 116.002 50.6371 117.929 52.806 120.998C51.723 121.686 49.6945 122.438 49.7513 123.089C49.8739 125.23 51.9153 124.581 53.1857 125.211C55.5524 126.415 56.7521 128.974 57.1322 131.846L57.0981 131.955Z" fill="#E5E4E1"/>
<path d="M179.244 89.0279C178.817 89.6344 178.411 90.212 177.985 90.8186C176.347 91.8661 174.577 92.6141 172.702 92.7163C169.101 92.9549 167.704 90.3626 169.125 86.0222C166.1 86.4788 164.073 89.9727 160.761 88.8842C160.494 88.6541 160.199 88.4009 159.932 88.1708C159.839 87.998 159.772 87.8482 159.659 87.7042C159.059 86.9096 160.428 84.6573 158.074 85.1354C161.33 79.2222 166.044 75.6301 172.29 74.3762C172.458 74.3816 172.787 74.3405 172.794 74.3924C173.818 79.9559 177.566 79.9361 181.568 80.2271C183.642 80.3898 185.119 80.548 186.226 78.302C186.932 76.8701 188.237 76.4173 189.764 77.1753C192.145 81.5418 189.494 83.8489 186.691 85.5162C184.353 86.8883 181.974 88.3182 179.344 89.068L179.244 89.0279Z" fill="#E3E2DF"/>
<path d="M71.6089 176.529C70.1006 177.639 68.3698 177.723 66.6519 177.911C63.0785 176.41 59.5447 180.035 55.7829 177.399C52.8831 175.367 50.405 173.466 50.0712 169.43C52.4805 165.393 55.5994 165.346 59.1614 167.716C59.7499 168.038 60.1356 168.647 60.7849 168.882C60.78 167.304 59.2796 166.939 58.6887 165.828C58.6095 165.575 58.5101 165.351 58.4577 165.12C62.2892 161.011 66.3161 164.245 70.3024 165.037C70.4497 165.071 70.61 165.209 70.7371 165.272C67.7512 169.275 74.8094 172.525 71.6559 176.524L71.6089 176.529Z" fill="#DCDAD5"/>
<path d="M46.3713 150.363C47.6405 149.837 48.7279 150.726 49.8109 151.195C55.647 153.674 55.8955 153.564 55.4647 146.442C55.3293 144.199 54.3896 142.003 56.2354 140.169C56.0378 139.537 56.2606 139.22 56.8633 139.276C57.5584 140.845 56.4967 145.157 60.1788 141.99C61.3635 140.975 61.1709 141.919 61.7771 142.579C63.8422 144.818 64.9997 147.618 66.4196 150.227C66.599 150.52 66.4893 150.98 66.5342 151.343C66.9695 153.891 73.2567 153.474 69.7233 157.647C66.8371 161.083 60.623 160.36 56.3634 157.527C53.2455 155.446 49.8707 153.79 46.5907 151.939C46.5265 151.421 46.4356 150.881 46.3916 150.334L46.3713 150.363Z" fill="#E4E3DF"/>
<path d="M64.8283 109.61C63.0579 108.644 60.1073 109.539 60.1411 105.762C60.1525 104.89 59.9456 104.573 58.9469 105.199C56.8616 106.515 56.7684 106.342 54.1049 105.117C53.9606 103.183 56.9658 104.655 56.5408 102.386C61.118 101.683 65.7155 100.951 70.3259 100.323C76.0873 99.5246 76.9283 98.206 74.9437 92.0426C73.8522 88.6434 72.7404 85.2732 72.4369 81.6702C75.7267 85.2435 75.7238 90.8108 79.2556 94.4066C81.443 96.6137 77.52 99.5041 78.9635 102.464C81.332 107.286 76.3556 105.929 75.0509 107.173C73.7055 108.476 70.6785 106.057 68.3215 107.881C66.8829 109.01 66.8124 109.6 67.9019 110.862C66.1638 112.662 65.4789 111.191 64.7812 109.616L64.8283 109.61Z" fill="#E8E8E6"/>
<path d="M179.175 88.8226C180.499 86.5726 182.202 85.2517 184.728 84.5934C188.042 83.7311 190.342 81.4385 188.812 77.0113C187.582 73.0744 190.054 72.3699 192.574 71.6596C193.045 71.6008 193.564 71.5361 194.035 71.4773C196.76 72.615 198.963 74.5569 200.651 77.1699C201.322 78.7223 202.014 80.2458 202.712 81.8213C199.809 79.8348 196.663 80.7024 193.602 80.715C194.494 85.0108 190.683 85.5391 188.846 86.9296C186.198 88.9226 183.248 93.302 179.175 88.8226Z" fill="#DEDDD9"/>
<path d="M82.7507 54.2347C82.0818 57.3255 81.6614 60.4908 77.6992 60.7478C76.3942 60.8316 74.6925 62.1519 76.6783 64.2782C79.9612 67.7991 79.4296 71.6114 77.6179 75.9C76.0501 74.8294 76.0243 72.1155 73.8972 72.5129C73.7504 72.2938 73.6101 72.1266 73.4633 71.9075C72.8247 70.6155 72.7929 69.0103 71.7904 67.8692C70.7303 57.3968 70.879 57.2463 82.7507 54.2347Z" fill="#E8E7E5"/>
<path d="M192.698 71.8002C191.705 73.8228 188.86 74.2043 188.938 77.1481C186.697 80.0913 185.329 84.4814 180.177 81.3006C178.361 80.1559 175.281 81.7271 173.147 80.9121C169.733 79.5977 175.176 76.2549 172.309 74.3448C173.116 72.9519 174.304 72.118 175.658 71.4742C179.349 76.5516 182.96 76.3647 186.775 71.8537C187.797 70.645 189.505 70.5373 191.065 70.3953C191.627 70.879 192.162 71.3396 192.725 71.8232L192.698 71.8002Z" fill="#E8E8E5"/>
<path d="M100.711 218.932C101.336 219.933 101.941 220.962 102.566 221.963C103.048 224.692 101.522 226.618 100.451 228.751C97.4489 229.547 94.4816 228.891 91.5079 228.184C89.4549 225.862 86.6291 223.847 88.4477 219.858C89.7916 216.849 92.0043 215.652 94.494 217.84C96.6033 219.656 98.6004 218.643 100.664 218.938L100.711 218.932Z" fill="#D8D7D0"/>
<path d="M58.4114 204.237C61.6305 205.901 62.6715 209.509 64.5702 212.383C69.2926 213.545 73.7592 215.132 75.8703 220.671C76.1565 222.021 78.7751 222.478 77.1568 224.536C69.0541 219.456 61.0458 214.181 56.287 204.894C54.8545 202.145 52.2359 199.205 55.1756 195.754C59.3428 197.221 58.0883 201.063 58.438 204.26L58.4114 204.237Z" fill="#E2E0DD"/>
<path d="M191.08 70.3255C188.83 72.793 185.502 73.4982 183.424 76.5766C181.549 79.3663 178.212 77.8858 177.13 74.3587C176.813 73.3444 176.193 72.3942 175.688 71.4034C180.645 68.8088 185.765 68.3015 191.1 70.2966L191.08 70.3255Z" fill="#EEEEED"/>
<path d="M106.073 220.448C110.1 220.156 114.114 219.946 118.116 219.446C119.178 219.34 117.114 215.801 119.844 216.805C121.219 217.292 120.308 219.199 120.901 220.311C120.371 222.592 118.272 222.828 116.862 223.98C114.772 225.058 112.689 226.188 110.6 227.266C110.156 227.348 109.8 227.181 109.513 226.795C104.555 225.173 104.029 224.21 106.073 220.448Z" fill="#DCD8D0"/>
<path d="M77.0842 224.419C76.6627 223.132 76.2412 221.846 75.8197 220.559C76.2886 220.501 76.8043 220.436 77.2732 220.378C79.7125 217.395 81.979 216.666 84.3872 220.724C85.8931 223.267 87.4089 218.982 89.0742 220.507C87.9118 223.803 91.1289 225.554 91.5159 228.289C86.4622 228.237 81.7668 226.276 77.0842 224.419Z" fill="#D2D1CA"/>
<path d="M73.7346 72.5409C73.3915 74.1827 74.0135 75.3633 75.0697 76.5946C79.4607 81.7088 81.4311 88.1997 83.6091 94.6385C79.8653 89.7581 76.1215 84.8777 72.3777 79.9974C70.9006 77.4817 71.2027 74.7441 71.3644 72.0239C72.429 70.4494 73.1273 71.0963 73.6877 72.5467L73.7346 72.5409Z" fill="#DDDCD7"/>
<path d="M58.8363 168.425C55.6186 166.303 52.9531 168.633 50.1079 169.514C49.44 166.628 47.726 163.951 48.2654 160.809C52.8519 158.791 55.9747 161.108 58.4648 165.239C58.573 166.303 60.5113 167.138 58.8629 168.448L58.8363 168.425Z" fill="#E4E3DF"/>
<path d="M58.5228 204.277C56.5826 201.771 57.6674 197.963 55.2275 195.678C57.953 193.7 60.6786 191.721 63.4041 189.743C63.8069 191.252 62.812 192.116 62.3073 193.262C61.7073 194.605 58.8183 195.653 62.2353 197.895C63.2019 198.541 59.6876 201.886 58.5163 204.225L58.5228 204.277Z" fill="#EDECEA"/>
<path d="M208.426 125.836C207.164 127.631 205.923 129.396 204.662 131.19C203.88 132.608 202.691 133.443 201.328 134.035C199.938 134.789 198.547 135.544 197.136 136.327C197.106 133.189 193.377 134.578 192.825 132.06C193.254 129.921 194.714 128.762 196.417 128.602C200.532 128.194 203.885 124.159 208.405 125.865L208.426 125.836Z" fill="#D7D4D1"/>
<path d="M106.043 220.557C105.396 223.43 105.383 225.83 109.155 225.227C111.05 224.912 109.943 225.998 109.765 226.679C108.129 229.861 105.556 229.919 102.692 229.169C101.831 229.54 101.094 229.184 100.405 228.638C99.3196 225.664 101.699 224.05 102.524 221.839C103.437 220.539 104.351 219.24 106.07 220.58L106.043 220.557Z" fill="#D2CEC6"/>
<path d="M158.043 85.4129C160.926 84.7897 160.305 86.7107 159.9 88.4467C158.24 88.7329 156.567 89.0997 154.894 89.2821C153.88 89.3824 152.376 90.7289 151.93 88.6777C151.504 86.7821 151.843 84.8963 154.326 85.0868C155.271 90.3939 156.839 84.5624 158.07 85.4359L158.043 85.4129Z" fill="#DEDDD9"/>
<path d="M111.751 61.5877C109.83 61.091 108.79 59.8265 109.385 57.7004C109.693 56.5308 109.865 54.4575 111.909 55.9386C114.621 57.994 115.743 59.932 111.778 61.6107L111.751 61.5877Z" fill="#D1CEC7"/>
<path d="M73.8559 72.5427C73.1612 71.9449 72.378 71.5951 71.5234 72.0177C70.8668 70.5726 70.9346 69.1952 71.7802 67.9313C75.7001 67.7843 73.8391 70.6756 73.8827 72.5657L73.8559 72.5427Z" fill="#E2E1DD"/>
<path d="M200.751 77.0478C198.578 75.1803 196.377 73.2899 194.203 71.4223C197.384 71.8605 199.544 73.8081 200.751 77.0478Z" fill="#EEEEED"/>
<path d="M150.008 59.5652C149.785 59.8818 149.562 60.1983 149.34 60.5148C148.541 59.8271 147.714 59.1164 146.915 58.4286C148.209 57.9259 149.654 56.9056 150.034 59.5882L150.008 59.5652Z" fill="#DCDBD5"/>
<path d="M171.741 196.903C170.902 196.876 169.85 196.481 169.257 196.897C164.225 200.395 161.665 195.922 158.682 192.846C158.921 190.736 159.449 188.642 159.313 186.579C159.146 183.888 160.427 184.018 162.037 184.291C162.789 184.197 163.719 184.766 164.107 183.664C164.127 183.635 163.155 183.493 162.665 183.396C160.132 178.947 160.273 172.768 163.281 168.733C160.704 168.739 158.322 168.588 157.594 165.414C156.111 166.732 158.183 168.237 156.532 169.549C155.503 164.912 150.4 167.839 148.461 163.948C148.076 163.153 146.799 164.787 146.375 166.183C145.541 169.078 144.125 171.519 140.917 170.287C139.463 168.573 146.754 169.427 141.293 166.58C140.349 166.092 139.663 162.676 142.213 161.489C143.304 157.009 146.919 158.637 149.471 158.424C152.519 158.175 154.89 157.853 156.873 154.788C158.734 151.897 161.418 151.983 163.46 155.362C162.997 146.625 164.212 145.263 172.398 145.636C172.545 145.855 172.691 146.074 172.838 146.292C172.203 149.514 173.195 152.637 175.814 155.663C170.875 159.334 171.354 166.462 167.397 170.931C169.613 171.866 171.151 171.753 172.581 170.39C173.539 169.454 174.752 169.803 175.189 170.828C175.919 172.474 174.495 172.547 173.515 172.722C169.343 173.348 169.277 175.699 170.06 179.893C170.836 184.035 171.835 186.886 174.912 189.951C177.469 192.476 173.911 195.158 171.727 196.984L171.741 196.903Z" fill="#DBD9D4"/>
<path d="M180.976 144.343C179.826 147.129 182.227 146.385 183.146 146.715C185.232 147.45 186.611 149.188 188.293 150.496C189.355 151.594 189.976 152.773 188.957 154.889C184.702 149.112 179.518 145.99 173.083 145.981C173.012 145.414 173.115 144.904 173.438 144.445C175.909 143.116 178.396 142.309 180.996 144.314L180.976 144.343Z" fill="#DBD9D4"/>
<path d="M89.3049 220.423C86.6361 222.445 84.4526 224.328 82.1793 219.121C80.737 215.791 79.5923 222.189 77.4157 220.27C78.9821 218.042 80.3008 215.555 82.9036 214.544C84.0229 214.114 85.1204 212.736 85.9346 215.248C86.3583 216.541 86.9323 218.66 89.1342 217.118C90.4311 216.191 92.0967 215.535 92.2212 213.645C92.4137 210.374 89.033 213.409 88.4277 210.845C93.1331 204.214 92.2777 195.584 93.2492 187.597C93.4595 186.013 91.5261 181.424 88.6693 179.616C87.6184 177.319 86.9769 175.235 90.2098 174.673C91.7458 176.83 95.845 175.342 95.6793 178.636C95.5071 176.862 94.0132 173.116 99.0536 175.549C100.913 176.452 102.425 175.524 103.877 174.498C105.503 173.715 106.956 173.85 107.84 175.772C110.002 180.465 111.625 185.251 108.544 190.122C107.128 191.83 102.981 191.001 104.618 195.707C105.068 197.023 103.3 198.009 102.025 198.723C99.8986 199.912 99.7423 202.703 98.2305 204.792C100.436 203.857 100.047 199.761 103.132 200.511C103.609 200.689 104.011 201.035 104.284 201.502C104.913 203.483 104.519 205.327 103.736 207.114C103.342 207.796 102.841 208.387 102.193 208.758C100.937 209.628 99.264 209.071 98.0946 210.061C98.6796 212.654 100.485 213.511 102.474 214.108C103.056 214.748 103.126 215.504 102.792 216.285C102.161 217.182 101.53 218.079 100.9 218.976C98.7997 220.373 97.0944 223.41 94.4336 218.938C93.4934 217.34 90.3706 217.439 89.231 220.406L89.3049 220.423Z" fill="#DCDAD5"/>
<path d="M90.9457 175.445C88.0269 175.704 90.0532 178.417 89.2633 179.723C86.2477 178.052 86.3276 178.121 87.493 175.429C87.8048 174.682 87.8512 173.521 87.5409 172.746C85.5732 167.821 85.3137 166.305 86.073 160.725C86.1845 159.898 86.1169 158.778 85.5811 158.871C82.6198 159.555 80.7281 157.928 78.3283 156.233C76.3216 154.829 74.6629 154.695 73.4427 151.383C72.1959 148.048 70.4666 144.852 69.9312 141.113C71.0665 140.289 72.9153 143.68 73.4871 140.617C73.79 139.03 73.6667 137.077 71.3591 136.893C70.7103 136.843 69.8133 136.902 69.651 135.977C68.4367 129.069 63.191 126.495 58.5448 123.191C57.4717 122.406 55.7991 122.352 55.3871 120.566C55.2643 119.768 55.3299 118.763 55.8997 118.56C59.5607 117.185 63.8359 117.307 66.1415 112.873C66.4119 112.367 67.4351 113.709 67.8659 114.495C68.0257 117.126 72.6527 120.275 67.3409 122.539C67.2067 122.608 68.4254 127.443 71.4933 126.85C75.3047 126.112 76.5999 127.919 78.2123 131.707C79.8641 135.622 82.1382 139.563 85.1054 142.763C85.5189 143.026 85.878 143.427 86.1904 143.835C88.2286 151.821 90.9773 159.588 92.6938 167.668C92.6543 170.035 93.1497 172.493 92.1673 174.741C91.8639 175.173 91.4144 175.386 90.9191 175.422L90.9457 175.445Z" fill="#DDDBD6"/>
<path d="M67.5653 115.119C66.2174 112.71 65.2466 113.725 65.2293 115.7C65.2738 119.902 63.0145 119.947 60.4793 118.922C58.2185 117.995 56.8667 118.821 55.6903 120.677C54.6731 120.357 53.7072 120.451 52.779 121.041C47.8001 120.689 46.8432 114.129 42.3997 112.711C41.6301 112.465 42.8119 110.845 43.9517 110.808C45.4266 110.782 46.7983 111.268 48.4244 110.539C50.1178 109.775 49.8118 105.58 53.0187 107.599C56.0654 109.48 58.9713 111.379 60.3518 115.204C60.4181 115.354 60.6187 115.434 61.0191 115.778C63.2908 114.679 64.2012 112.409 64.6643 109.801C65.5921 110.553 66.4314 111.553 67.7748 111.043C68.2444 110.984 68.7609 110.92 69.2305 110.861C69.7233 112.72 70.8458 114.657 68.586 116.044C68.1836 116.067 67.9093 115.97 67.7299 115.677C67.5504 115.384 67.5045 115.205 67.545 115.148L67.5653 115.119Z" fill="#E1DFDB"/>
<path d="M75.9116 220.641C72.1293 217.849 68.3267 215.087 64.5444 212.295C65.332 210.565 67.5417 210.105 67.6881 207.823C72.4444 207.887 77.124 208.488 82.0411 209.848C81.5747 210.512 81.2749 211.365 80.7773 211.585C78.5047 212.5 75.4723 212.484 77.7568 216.858C78.4078 218.066 76.7165 219.435 75.9383 220.664L75.9116 220.641Z" fill="#E8E7E5"/>
<path d="M57.0302 139.276L56.3996 140.173C54.7463 137.265 55.0301 134.537 56.861 131.933C61.4238 134.373 57.2788 136.843 57.0302 139.276Z" fill="#E5E4E1"/>
<path d="M66.2743 208.117C65.4936 208.923 64.7203 209.598 63.7021 208.491C62.9303 207.642 63.3967 206.796 63.7959 205.985C64.622 206.696 65.4482 207.406 66.2743 208.117Z" fill="#E8E7E5"/>
<path d="M68.4176 115.387C69.6247 113.915 68.8871 112.026 69.28 110.365C77.1256 114.697 82.9409 111.937 83.3085 103.7C84.7758 101.429 86.4449 104.26 87.9506 103.649C88.3946 98.7318 86.0087 92.6351 91.3189 89.8587C95.0753 87.8839 97.4909 90.9382 98.473 94.9905C100.185 94.8826 99.5544 93.0852 100.731 92.3307C103.807 90.2822 104.772 87.4402 101.518 83.8036C96.5481 78.3199 95.3246 69.0395 98.3597 63.3762C98.6279 63.6069 98.8554 63.8956 99.1644 64.0684C101.768 65.9367 96.8913 68.342 99.4307 69.6898C102.433 71.2969 100.608 66.24 103.095 66.0089C106.559 65.7352 105.586 68.8953 106.669 70.4777C106.551 73.5839 109.717 72.4491 110.657 74.2342C104.833 79.8227 111.532 84.3772 112.017 89.4428C113.404 95.9812 111.38 101.492 107.957 106.543C106.64 108.478 104.888 109.806 102.669 109.105C99.0299 107.974 94.9417 111.523 91.5495 107.163C90.6662 106.032 89.3017 107.972 89.4567 109.221C89.631 110.627 90.6076 111.931 91.2271 113.255C90.7482 114.609 90.7567 116.801 88.5015 115.233C88.2332 115.002 87.9382 114.748 87.6699 114.518C85.0705 113.072 83.1416 114.713 81.1869 116.146C80.9833 116.435 80.7592 116.754 80.5556 117.043C79.4349 117.474 78.8036 115.862 77.1489 116.623C74.468 117.803 70.9858 118.898 68.4519 115.277L68.4176 115.387Z" fill="#DDDBD6"/>
<path d="M149.199 60.538C149.333 60.6534 149.446 60.7978 149.56 60.9422C145.142 64.1628 146.901 69.2558 146.641 73.7284C146.491 76.5751 141.567 73.595 142.771 77.885C143.538 80.5908 147.065 76.3713 147.232 80.4206C147.292 81.8668 148.18 83.236 147.586 84.8167C146.091 85.9018 146.047 84.0043 145.335 83.4852C143.261 82.0261 141.773 81.8154 142.097 85.3958C142.344 88.3516 141.611 90.5574 138.264 90.235C137.341 90.1387 135.857 90.3502 136.273 91.9634C136.55 93.0388 137.164 94.3103 138.896 93.0105C141.264 91.235 139.863 94.8192 140.933 95.135C139.189 97.3084 137.45 94.8824 135.711 94.9672C135.116 91.5263 131.441 92.0377 129.549 89.1551C134.36 89.2948 135.739 87.2727 135.005 82.1312C133.544 71.9003 140.423 62.0558 149.252 60.5842L149.199 60.538Z" fill="#DCDBD5"/>
<path d="M91.4236 123.737C96.0779 122.55 98.5006 126.675 101.206 129.42C102.549 130.807 103.567 131.312 105.3 131.228C104.857 124.959 94.7135 120.217 102.637 111.877C103.142 115.371 103.465 117.781 107.103 115.72C108.464 114.944 111.51 115.433 113.511 116.923C114.002 116.835 114.471 116.961 114.892 117.277C115.854 118.29 116.116 119.628 116.283 120.977C116.327 121.525 116.318 122.027 116.268 122.586C114.559 126.91 110.509 129.313 108.961 133.775C107.512 134.614 108.281 135.23 109.212 135.799C110.117 137.319 109.949 138.658 108.733 139.837C103.647 143.898 101.784 143.129 101.305 135.995C101.113 133.094 99.3202 135.4 98.9904 134.281C98.3273 133.943 97.7657 133.459 97.3056 132.832C96.3394 131.398 95.1572 130.149 93.9815 128.951C93.6745 128.594 93.361 128.186 93.101 127.823C92.4953 126.792 91.8629 125.738 91.4796 124.573C91.4741 124.337 91.4687 124.101 91.4835 123.835L91.4236 123.737Z" fill="#D2CEC5"/>
<path d="M68.2482 115.614C71.1785 116.797 74.3287 116.876 77.0035 115.808C79.1352 114.964 79.2191 116.791 80.2662 117.368C80.7959 118.378 80.9508 119.434 80.6638 120.572C78.3722 121.278 76.0481 120.571 73.0301 120.79C77.4351 123.887 81.2808 126.503 85.6128 128.245C86.363 129.306 87.1004 130.263 88.3488 130.737C91.3397 131.833 91.9341 134.514 91.9716 137.5C92.0091 140.486 90.3567 141.742 88.0514 142.528C87.2538 142.811 86.5949 143.444 85.7248 143.527C83.2986 143.147 79.628 144.051 81.8964 138.941C82.3092 138.05 81.6562 137.58 80.9755 137.272C80.8221 137.186 80.6347 137.209 80.4813 137.123C76.3436 134.072 76.1478 124.441 68.0884 127.939C67.5069 125.362 64.8617 123.409 65.3579 120.698C65.751 118.497 67.9552 120.347 69.4088 119.982C68.4474 118.371 66.7547 117.191 67.4556 114.979C67.7219 115.208 68.0149 115.46 68.2812 115.689L68.2482 115.614Z" fill="#DAD8D2"/>
<path d="M121.649 97.7259C121.182 95.8866 120.715 94.0474 120.248 92.2082C120.303 90.7255 120.759 89.588 122.284 89.5558C123.574 89.5529 123.957 90.7174 124.26 91.8128C125.091 94.6608 125.061 97.8798 127.434 100.061C127.833 100.775 128.098 101.559 128.248 102.384C127.766 106.977 131.37 108.873 133.471 111.747C133.917 113.799 133.31 115.456 131.653 116.349C129.477 117.49 128.766 119.66 127.888 121.826C125.715 123.757 123.303 124.928 120.396 124.606C119.02 120.64 120.099 117.395 122.646 114.626C123.3 114.308 124.513 116.001 124.66 113.716C124.929 109.914 123.725 106.374 123.248 102.718C122.982 100.959 122.601 99.2409 121.608 97.7836L121.649 97.7259Z" fill="#CFC7B7"/>
<path d="M122.932 114.749C122.095 117.833 121.239 120.945 120.402 124.029C120.563 125.327 120.028 126.211 119.023 126.785C116.98 126.697 116.655 124.655 117.225 123.661C119.002 120.644 115.517 122.608 115.625 121.356C115.202 120.064 116.953 118 114.396 117.423L113.566 116.709C112.931 113.519 110.8 110.015 115.14 107.812C120.456 116.561 119.715 106.74 121.781 105.085C124.91 107.964 123.945 111.353 122.952 114.72L122.932 114.749Z" fill="#D3CEC6"/>
<path d="M127.392 101.022C124.873 98.7167 123.686 95.6684 123.157 92.1713C122.919 90.4457 122.705 90.4462 120.398 92.1488C119.737 89.5065 119.07 86.8126 118.416 84.2219C125.758 83.0702 125.388 89.8496 126.381 94.0223C127.113 97.0487 127.384 98.8488 130.204 97.6325C132.862 96.4625 133.33 98.893 134.6 100.123C134.427 101.219 133.722 101.857 132.851 102.306C132.449 102.514 131.987 102.624 131.546 102.705C129.908 102.909 128.386 102.706 127.346 101.028L127.392 101.022Z" fill="#D0CBC0"/>
<path d="M85.388 128.849C80.3768 129.238 77.4545 123.685 72.7152 123.202C71.9208 123.118 70.8572 122.203 71.8233 121.376C72.7895 120.548 73.051 117.871 73.6415 118.609C75.7851 121.143 78.8757 117.72 80.6505 120.537C81.209 121.017 81.7409 121.474 82.2993 121.954C82.2515 122.144 82.1836 122.362 82.1358 122.551C82.8937 124.447 84.636 123.365 85.8474 124.131C88.6298 125.878 91.9361 127.063 91.718 131.621C89.1173 132.102 87.0392 131.052 85.321 128.884L85.388 128.849Z" fill="#D4D0C9"/>
<path d="M122.966 114.672C121.909 111.54 123.418 108.113 121.797 105.051C122.277 104.307 122.583 103.505 122.199 102.526C122.574 101.505 123.05 101.498 123.657 102.344C126.408 107.398 126.191 112.769 125.584 118.268C122.9 118.366 123.927 115.684 122.94 114.649L122.966 114.672Z" fill="#C5BDAA"/>
<path d="M82.3614 121.831C86.0936 117.557 89.4774 118.343 91.4827 123.949C91.4107 124.904 90.7862 125.245 90.0753 125.465C89.6063 125.523 89.1511 125.501 88.683 125.376C86.9532 123.333 84.1456 123.736 82.3614 121.831Z" fill="#D2CEC5"/>
<path d="M81.0269 116.349C82.2535 111.796 84.3929 111.134 87.49 114.726C85.6527 116.668 83.4351 116.892 81.0269 116.349Z" fill="#DAD8D2"/>
<path d="M123.789 102.368C123.319 102.427 122.803 102.491 122.333 102.55C121.617 101.008 121.444 99.4248 121.735 97.7311C124.038 98.417 124.976 99.8258 123.789 102.368Z" fill="#D0CBC0"/>
<path d="M88.2549 115.368C89.6668 115.562 90.2587 114.353 90.977 113.392C91.1705 114.952 91.6179 116.822 89.8519 117.439C88.753 117.84 88.2619 116.581 88.2549 115.368Z" fill="#DAD8D2"/>
<path d="M85.0624 128.795C87.1394 129.612 89.1962 130.458 91.2732 131.275C92.0702 131.176 92.6436 131.577 93.1553 132.248C95.4578 134.691 95.9987 138.666 99.1214 140.429C100.016 140.921 100.203 142.236 99.6168 142.887C95.8669 147.004 99.3667 150.846 100.142 154.792C100.332 155.555 100.495 156.296 100.752 157.026C103.541 159.933 105.484 163.313 107.284 167.078C109.183 171.068 113.212 173.61 115.257 177.817C115.767 178.856 117.383 179.6 115.896 181.045C116.281 186.641 113.408 189.388 108.997 190.858C108.648 190.927 108.401 190.853 108.275 190.606C108.15 190.36 108.11 190.233 108.171 190.147C110.306 185.103 108.993 180.279 106.91 175.578C106.315 174.234 105.03 175.576 104.102 175.193C102.875 175.477 104.128 172.722 102.444 173.536C100.733 174.327 97.9815 175.747 97.4575 173.633C96.3689 169.464 91.6918 168.026 92.0485 162.653C92.5015 155.561 90.1215 148.849 85.4459 143.395C85.6743 141.975 86.3099 140.767 87.6418 140.758C90.1585 140.707 90.9229 139.194 90.5276 136.776C90.1718 134.484 90.3815 131.57 86.9401 131.842C84.791 131.979 84.9267 130.387 85.1093 128.789L85.0624 128.795Z" fill="#D8D5CF"/>
<path d="M115.678 180.953C111.785 178.389 112.402 170.873 106.359 170.576C105.448 170.532 105.734 169.576 105.598 168.857C104.808 164.986 104.697 160.637 99.9457 159.416C99.0825 159.182 99.2036 157.852 99.3962 156.908C101.438 156.075 103.303 156.894 104.534 158.554C106.343 161.036 108.964 162.181 111.017 164.133C112.208 165.666 113.481 167.085 114.457 168.803C116.62 176.445 117.944 176.937 125.358 172.726C127.063 172.251 128.756 171.303 130.226 173.354C131.044 177.064 127.161 178.81 127.081 181.238C126.933 185.226 125.359 190.023 129.139 193.599C129.786 194.202 124.004 202.731 123.068 202.48C120.625 201.812 123.044 199.407 121.451 197.713C120.887 200.465 116.667 200.256 118.332 204.648C118.821 205.901 116.589 205.97 115.47 205.978C113.781 206.005 115.001 204.696 114.803 204.063C113.722 200.728 116.175 198.214 117.522 196.968C123.267 191.598 122.907 186.202 115.665 180.849L115.678 180.953Z" fill="#D2CDC4"/>
<path d="M102.76 216.094C102.696 215.574 102.625 215.001 102.56 214.481C102.315 212.504 103.819 212.079 104.888 211.232C104.194 211.239 105.32 211.046 105.01 211.058C103.198 211.126 101.173 211.986 100.65 208.934C100.565 208.443 101.22 208.124 101.76 208.03C102.187 207.422 102.594 206.843 103.022 206.234C107.336 205.485 104.971 203.218 103.884 201.213C103.719 199.306 105.985 198.838 105.894 196.947C106.366 195.541 106.577 193.956 108.102 193.317C109.812 189.722 111.011 193.403 112.444 193.753C114.341 194.176 114.509 195.529 114.069 197.195C112.845 201.812 111.574 206.435 110.324 211.029C109.54 213.98 108.395 216.527 105.074 216.598C104.308 216.403 103.547 216.26 102.781 216.065L102.76 216.094Z" fill="#D0CDC3"/>
<path d="M130.371 173.298C128.848 172.912 127.403 173.144 126.016 173.842C124.352 173.656 122.681 173.602 121.029 173.887C117.75 174.48 115.558 173.102 114.413 169.627C113.191 168.206 111.055 167.66 110.914 165.187C110.791 163.236 109.196 162.649 108.234 161.406C106.653 159.401 104.374 156.932 107.303 154.102C108.639 154.329 109.651 155.199 110.608 156.207C115.488 162.388 120.877 167.3 128.917 166.375C130.067 166.258 131.276 166.605 132.281 167.424C132.406 167.67 132.559 167.94 132.684 168.186C131.28 169.515 132.868 172.541 130.364 173.247L130.371 173.298Z" fill="#CDBEA4"/>
<path d="M106.49 197.739C108.264 201.218 104.262 199.682 103.963 201.332C102.549 201.138 101.539 200.92 101.082 203.224C100.514 205.991 98.5519 207.373 95.3609 205.418C97.7563 203.666 99.0956 201.516 99.5354 198.685C99.6403 197.985 99.9435 196.758 100.139 196.786C108.609 197.236 101.223 191.999 102.316 189.219C103.936 191.264 105.933 189.587 107.804 190.173L108.636 190.889L107.373 192.685C107.619 194.478 106.041 195.865 106.51 197.71L106.49 197.739Z" fill="#D8D7D0"/>
<path d="M104.942 216.549C108.007 216.219 107.34 211.612 110.178 210.994C116.785 210.328 116.859 210.345 117.994 215.263C115.146 212.719 112.572 210.458 110.23 215.072C109.944 215.661 107.354 218.857 104.935 216.497L104.942 216.549Z" fill="#D8D7D0"/>
<path d="M140.696 160.374C139.223 162.466 137.73 164.588 136.257 166.681C135.084 167.119 133.911 167.557 132.718 168.024L132.671 167.844C132.48 164.368 134.656 162.32 136.656 160.4C139.411 157.776 141.613 154.77 143.081 151.087C143.824 149.907 144.696 148.977 146.104 148.881C147.381 154.131 146.012 157.059 140.669 160.35L140.696 160.374Z" fill="#CDBEA4"/>
<path d="M106.493 197.681C104.469 195.475 106.518 194.216 107.355 192.657C107.624 192.888 107.919 193.142 108.187 193.373C107.976 194.959 107.544 196.493 106.493 197.681Z" fill="#DCDAD5"/>
<path d="M127.193 202.412C127.411 203.017 127.797 203.627 127.668 203.932C127.341 204.762 126.631 204.614 126.158 204.068C125.911 203.809 125.794 203.061 125.923 202.755C126.079 202.473 126.683 202.529 127.193 202.412Z" fill="#D2CDC4"/>
<path d="M140.791 160.14C142.989 156.646 146.241 153.734 146.018 148.853C145.391 147.85 145.531 146.856 146.081 145.89C149.074 142.244 147.053 137.72 147.579 133.67C147.595 132.058 147.462 130.412 148.291 128.99C150.879 126.714 152.676 126.542 152.618 131.088C152.604 132.515 152.038 133.932 152.338 136.929C156.339 128.487 162.098 127.082 169.024 128.909C170.361 129.27 171.71 128.574 173.038 128.091C177.344 126.551 181.368 128.899 180.832 133.452C180.473 136.531 182.723 135.96 183.213 137.403C181.058 141.446 178.713 141.052 176.249 137.586C176.252 137.032 176.376 136.489 176.453 135.951C172.559 136.965 168.781 132.739 164.565 135.007C166.364 138.134 169.695 136.636 171.493 138.787C171.585 139.33 171.528 139.838 171.304 140.341C168.403 142.999 165.306 142.33 162.112 140.881C156.407 138.295 154.983 139.158 152.75 145.454C151.684 148.436 150.358 151.241 150.488 154.602C146.783 155.408 144.713 158.965 141.588 160.78C141.32 160.549 141.053 160.319 140.785 160.088L140.791 160.14Z" fill="#CEC6BA"/>
<path d="M141.495 160.814C143.241 156.739 146.464 154.91 150.302 153.982C150.444 153.779 150.634 153.571 150.803 153.391C155.353 151.449 159.45 148.746 162.672 144.592C165.758 143.018 168.992 142.826 172.35 143.437C173.116 143.817 173.618 144.389 173.735 145.325C173.531 145.615 173.307 145.933 173.103 146.223C170.431 145.922 167.482 146.871 165.945 148.384C164.09 150.227 164.016 153.882 166.676 156.589C165.342 155.302 162.571 160.773 161.997 154.795C161.851 153.228 158.642 153.628 158.197 155.057C156.695 159.947 153.691 160.058 149.657 159.795C147.388 159.656 144.308 158.772 142.374 161.523C142.105 161.292 141.81 161.039 141.542 160.808L141.495 160.814Z" fill="#D8D5CF"/>
<path d="M162.5 183.377C162.916 180.77 164.28 181.943 165.418 182.644C166.556 183.345 165.947 184.212 165.386 184.888C164.034 186.506 162.832 186.445 161.897 184.296L162.526 183.4L162.5 183.377Z" fill="#DBD9D4"/>
<path d="M85.4944 55.881C87.0272 57.6628 88.0591 59.0598 87.6062 60.9842C87.5103 61.3644 86.0062 61.7363 85.9399 61.5867C85.0702 59.959 84.999 58.2316 85.4677 55.8581L85.4944 55.881Z" fill="#DEDDD9"/>
<path d="M202.375 99.1641C202.845 99.1053 203.363 99.0407 203.834 98.9819C204.606 99.0437 205.218 100.127 206.122 99.5135C207.219 100.457 208.343 101.424 209.44 102.368C209.338 106.361 207.834 108.499 204.908 109.181C203.374 109.531 201.958 110.445 202.249 112.597C202.487 114.518 202.016 115.921 200.566 116.946C196.54 119.557 192.513 121.193 188.14 117.337C186.695 116.093 185.119 116.87 183.724 117.571C177.674 120.62 171.497 123.42 165.673 126.941C161.028 129.762 153.636 128.734 150.524 125.036C148.448 122.554 147.555 119.977 148.56 116.714C149.551 113.533 150.134 110.139 151.574 107.112C152.796 107.329 155.54 103.059 154.959 108.772C154.787 110.665 156.232 109.404 156.981 108.889C161.008 109.757 160.996 113.133 160.757 116.405C160.633 118.292 160.529 118.806 162.655 119.568C165.358 120.549 163.885 118.308 164.439 117.764C166.998 115.283 168.814 111.234 173.439 113.451C176.488 114.916 179.177 113.473 180.382 110.476C183.174 103.511 189.62 103.26 194.793 100.848C197.413 99.6251 198.246 102.289 198.216 105.324C199.084 102.501 198.86 99.1545 202.401 99.1871L202.375 99.1641Z" fill="#D7D3CB"/>
<path d="M202.44 99.1358C198.733 100.496 201.162 106.578 197.153 107.817C196.283 105.815 198.578 103.101 196.505 102.014C194.587 101.013 192.59 102.08 192.211 105.004C192.197 105.084 190.535 105.186 189.912 104.789C188.953 104.196 187.39 103.362 187.251 104.356C186.713 107.932 182.78 107.658 181.813 111.051C180.573 115.322 175.702 116.747 172.285 114.271C170.731 113.12 170.351 113.721 169.43 114.786C167.589 116.916 163.235 117.301 165.891 122.51C163.581 119.316 160.901 121.048 158.011 120.697C160.26 116.458 160.665 112.397 156.957 108.928C158.331 107.464 160.616 107.759 161.77 105.874C165.846 100.747 171.004 98.5469 177.216 99.0645C178.764 99.0034 180.225 99.982 181.242 97.1901C182.943 92.3867 187.306 91.4991 190.865 95.1184C193.381 97.6542 195.668 96.234 198.111 96.0611C200.244 95.9005 203.015 94.7103 202.419 99.1648L202.44 99.1358Z" fill="#D9D6D0"/>
<path d="M151.541 107.252C152.741 111.155 150.497 114.225 149.527 117.557C148.631 120.722 149.689 122.327 151.698 124.287C153.186 125.707 153.699 126.38 156.308 126.633C166.694 127.653 173.319 119.51 181.981 116.823C184.763 115.976 187.059 113.136 190.362 117.646C192.254 120.199 196.854 118.046 199.811 115.914C203.226 117.093 202.113 119.469 201.149 121.695C200.313 123.615 198.437 124.455 197.248 126.024C194.751 128.784 191.795 130.732 188.441 131.966C186.401 132.063 185.061 131.651 185.634 128.763C186.226 125.847 184.444 125.333 182.358 125.251C181.653 131.682 185.229 132.814 189.616 132.978C190.615 133.142 191.519 133.503 191.969 134.632C190.232 139.48 185.925 135.728 183.312 137.554C181.881 136.785 179.992 137.337 180.078 133.984C180.195 129.547 177.512 128.303 173.667 129.625C171.422 130.379 169.072 130.857 166.581 130.01C161.826 128.419 157.654 129.597 155.487 134.632C154.563 136.8 153.235 137.834 151.655 137.215C149.62 136.39 151.496 134.393 151.363 132.935C151.217 131.374 152.756 129.735 151.153 128.356C150.886 128.126 149.794 129.131 149.06 129.565C141.729 124.321 141.425 122.069 147.093 113.519C147.439 111.501 147.638 109.45 148.159 107.49C148.952 104.654 150.172 104.87 151.474 107.287L151.541 107.252Z" fill="#D1CABF"/>
<path d="M147.184 113.903C147.181 114.455 147.425 115.264 147.195 115.529C141.923 121.203 146.306 125.435 149.173 129.935C149.106 131.309 149.038 132.683 148.971 134.057C145.88 133.707 145.247 130.53 143.725 128.436C141.479 125.302 139.374 122.151 135.305 121.976C132.674 121.884 129.912 123.988 127.429 121.252C127.224 118.258 127.366 115.562 130.91 115.146C132.692 114.923 132.528 113.027 132.883 111.67C131.594 108.574 128.269 105.759 131.69 102.05C132.584 101.387 133.504 100.747 134.398 100.084C135.115 102.41 135.604 104.818 136.57 107.034C137.548 109.354 138.181 112.532 141.879 110.678C144.544 109.322 144.59 114.489 147.191 113.954L147.184 113.903Z" fill="#D6D3CC"/>
<path d="M177.392 99.1487C172.117 101.098 166.584 102.316 161.971 105.947C159.172 103.214 158.983 100.919 161.546 97.5172C163.17 95.3915 161.624 91.7907 160.585 88.9962C164.134 88.3425 166.528 82.6166 171.27 86.1872C170.063 87.2337 167.784 87.7289 169.069 89.8078C169.907 91.1784 171.477 92.6686 173.525 91.4646C174.839 90.6947 176.228 89.5728 177.826 90.9014C179.114 93.7704 181.005 96.6957 177.366 99.1257L177.392 99.1487Z" fill="#DEDDD9"/>
<path d="M108.498 67.0889C109.567 68.194 110.595 69.3569 109.613 70.8761C109.071 71.7079 107.595 71.3651 107.391 70.6791C107.021 69.434 107.579 68.1522 108.498 67.0889Z" fill="#DDDBD6"/>
<path d="M195.877 124.991C197.266 123.628 198.735 122.335 200.017 120.879C201.529 119.158 201.748 117.254 199.918 115.447C200.757 114.866 201.784 114.447 201.28 112.898C200.876 111.574 198.565 110.144 201.166 108.894C203.045 107.999 204.831 104.234 207.508 109.002C204.471 104.808 210.206 104.859 209.372 102.002C209.936 102.487 210.52 102.943 211.13 103.422C213.334 105.922 210.515 108.891 211.936 111.462C210.43 113.421 210.456 115.956 209.952 118.265C206.877 123.618 201.444 126.199 195.924 124.985L195.877 124.991Z" fill="#D3CFC7"/>
<path d="M206.171 99.1484C205.885 99.921 206.019 101.194 204.959 101.116C203.443 101.015 204.546 99.3248 203.906 98.5887C204.787 98.1892 205.503 98.5737 206.191 99.1195L206.171 99.1484Z" fill="#D9D6D0"/>
<path d="M58.8105 168.341C58.6757 167.255 58.5473 166.22 58.4125 165.133C59.2145 165.453 60.2724 165.531 60.7045 166.134C61.5891 167.311 63.5942 168.112 62.5447 170.214C62.2059 170.939 61.3796 171.384 60.787 171.983C60.1371 170.777 59.4605 169.548 58.8105 168.341Z" fill="#E2E0DD"/>
<path d="M183.166 137.343C185.473 134.551 189.33 137.128 191.716 134.589C191.641 133.596 192.127 133.087 192.988 132.901C194.587 133.07 196.278 131.093 197.807 133.011C198.935 134.4 197.626 135.407 197.116 136.499C192.456 140.745 186.755 142.379 181.086 144.273C178.631 144.527 176.177 144.78 173.769 145.028C173.234 144.568 172.672 144.084 172.117 143.652C171.532 142.407 171.217 141.023 170.881 139.667C171.085 139.378 171.308 139.06 171.511 138.771C172.476 135.566 174.316 135.758 176.519 137.329C178.801 139.153 181 138.958 183.186 137.314L183.166 137.343Z" fill="#CDC5BB"/>
<path d="M193.049 132.714C192.642 133.294 192.208 133.85 191.774 134.406C191.007 134.211 190.246 134.068 189.48 133.873C188.128 133.408 186.405 133.226 187.623 130.882C190.268 128.834 193.621 127.861 195.785 125.029C200.737 123.433 206.069 122.768 209.804 118.312C209.373 120.823 208.895 123.34 208.464 125.851C203.611 128.834 197.264 128.067 193.049 132.714Z" fill="#E7E6E4"/>
<path d="M167.827 186.969C168.796 187.11 169.338 187.069 169.678 187.315C169.964 187.515 170.081 188.078 170.253 188.502C169.838 188.607 169.368 188.849 169.021 188.735C168.694 188.592 168.51 188.064 167.806 186.997L167.827 186.969Z" fill="#DBD9D4"/>
<path d="M165.613 177.347C166.336 177.415 166.846 177.298 167.159 177.522C167.399 177.729 167.376 178.309 167.501 178.741C167.052 178.77 166.529 178.967 166.174 178.801C165.921 178.675 165.864 178.025 165.64 177.37L165.613 177.347Z" fill="#DEDDD8"/>
<path d="M85.3388 143.481C87.1887 143.408 88.4536 142.461 89.1433 146.292C89.755 149.686 92.0012 153.191 92.6909 157.021C93.0877 159.259 95.9979 161.393 92.9627 163.822C92.7004 164.013 93.1811 165.582 93.5453 166.405C93.8368 167.025 94.4579 167.421 94.951 167.938C97.5499 170.636 99.0648 175.547 104.263 172.112C105.366 171.396 102.651 174.101 104.018 175.323C101.89 178.533 99.6553 179.154 97.3034 175.373C95.8359 176.607 96.707 177.866 96.9422 178.993C97.3152 180.655 97.7441 183.151 96.1418 183.299C93.3595 183.541 95.0345 181.097 95.0958 179.67C95.1378 178.088 94.6412 176.967 92.989 177.672C90.5911 178.708 91.1726 176.48 90.723 175.353L91.351 174.459C93.7133 172.561 92.7276 170.187 92.0096 167.858C89.5416 164.486 86.7984 161.2 89.5905 156.62C89.7728 156.36 89.7234 155.578 89.67 155.532C82.8446 153.729 87.4432 147.188 85.2652 143.464L85.3388 143.481Z" fill="#DAD8D2"/>
<path d="M101.699 208.101C102.277 209.431 103.788 210.207 106.231 210.428C105.937 212.858 103.516 212.949 102.495 214.523C98.5411 216.857 97.9253 211.701 95.5587 210.497C95.0505 210.245 95.8631 208.724 96.7019 208.566C98.3326 208.258 100.022 208.231 101.699 208.101Z" fill="#D8D7D0"/>
<path d="M103.882 201.287C104.016 201.402 104.149 201.517 104.323 201.574C105.954 202.607 109.1 202.583 108.037 205.742C107.178 208.243 104.774 206.359 103.024 206.288C103.294 204.623 103.592 202.981 103.882 201.287Z" fill="#D8D7D0"/>
<path d="M91.9731 167.859C96.6152 170.787 94.6086 172.725 91.3125 174.481C91.8819 172.327 90.4298 169.871 91.9731 167.859Z" fill="#DCDAD5"/>
<path d="M79.4088 145.851C80.3999 145.174 81.1151 144.584 82.0125 145.078C83.5796 145.963 82.3523 146.854 82.0318 147.737C81.6846 148.597 81.2359 149.602 80.2473 148.566C79.5594 147.835 79.1622 146.751 79.4088 145.851Z" fill="#DAD8D2"/>
<path d="M93.9544 91.782C94.5959 92.3341 94.7063 93.0314 94.2064 93.6205C93.9628 93.967 93.297 94.1817 92.9486 94.0672C92.1779 93.821 91.9809 93.0028 92.2734 92.2815C92.5798 91.4795 93.2713 91.4722 93.9277 91.759L93.9544 91.782Z" fill="#DEDDD9"/>
<path d="M115.495 121.404C116.421 121.13 117.327 120.885 118.253 120.61C118.511 122.695 117.225 124.708 118.321 126.768C116.287 130.885 112.432 133.668 111.454 138.553C110.524 139.569 109.706 141.1 108.101 139.58C109.019 138.275 109.067 136.919 108.333 135.45C107.343 135.017 107.278 134.496 108.132 133.834C108.204 130.544 111.589 128.613 111.001 125.034C113.864 125.868 115.021 124.162 115.501 121.456L115.495 121.404Z" fill="#D6D3CC"/>
<path d="M108.023 139.634C109.432 139.827 110.022 138.621 110.739 137.662C111.296 137.725 111.629 138.104 111.774 138.692C111.312 143.437 106.314 144.14 104.937 148.051C104.314 149.183 103.97 150.648 102.585 151.031C101.888 150.802 101.199 150.44 101.075 149.639C100.51 144.891 100.355 139.985 96.3793 136.61C95.8982 136.196 96.2259 135.181 96.6456 134.523C97.3079 133.703 99.2218 136.045 99.1085 133.399C101.338 133.279 102.536 133.893 102.958 137.87C103.435 142.682 104.111 143.124 106.663 139.251C106.784 139.078 107.547 139.456 108.043 139.605L108.023 139.634Z" fill="#CEC9BD"/>
<path d="M99.2239 133.488C99.22 134.221 99.4807 135.366 99.1727 135.561C98.3156 136.113 97.8147 134.946 97.1495 134.558C95.4604 134.716 94.405 133.671 93.5651 132.258C92.2573 129.753 89.2279 128.483 89.3868 124.984C90.8604 125.193 92.3405 125.453 93.3068 126.928C93.5725 127.157 93.8647 127.408 94.1304 127.636C94.5861 129.777 97.1008 129.96 97.6435 132.037C98.2015 132.517 98.7329 132.974 99.2908 133.454L99.2239 133.488Z" fill="#C4BFB3"/>
<path d="M114.393 117.485C114.8 116.722 115.208 115.959 115.568 115.202C116.115 117.297 116.924 119.385 115.595 121.397C115.192 120.075 114.769 118.783 114.366 117.462L114.393 117.485Z" fill="#D6D3CC"/>
<path d="M93.3033 126.931C91.8404 126.642 90.4721 126.157 89.375 124.982C90.0658 124.608 90.763 124.285 91.4538 123.91C92.3591 124.689 93.4187 125.37 93.3033 126.931Z" fill="#CEC9BD"/>
<path d="M108.084 133.869C108.149 134.387 108.219 134.958 108.284 135.476C107.811 135.904 107.357 136.856 106.738 135.906C106.411 135.394 106.262 134.386 106.48 133.832C106.875 132.782 107.522 133.57 108.084 133.869Z" fill="#CEC9BD"/>
<path d="M97.5867 132.042C96.3479 130.655 94.2182 130.111 94.0782 127.648C95.317 129.035 97.4265 129.607 97.5867 132.042Z" fill="#CEC9BD"/>
<path d="M111.537 138.054C111.27 137.824 111.003 137.594 110.735 137.364C111.173 132.041 114.252 128.944 118.186 126.583C118.815 125.688 119.471 124.815 120.127 123.943C122.481 123.096 124.836 122.249 127.191 121.402C129.7 121.8 132.099 121.316 134.446 120.602C142.412 123.98 147.691 131.119 147.579 138.298C144.714 139.261 143.996 135.399 141.748 134.995C141.079 134.604 140.491 134.098 139.957 133.454C132.598 124.758 127.158 124.989 119.802 134.415C118.726 135.945 117.651 137.476 116.675 139.046C114.684 140.902 115.812 144.791 112.991 146.118C109.39 144.038 111.032 140.91 111.511 138.031L111.537 138.054Z" fill="#DBC192"/>
<path d="M131.804 102.058C130.184 105.519 133.043 108.395 132.998 111.686C129.221 110.055 126.453 107.719 127.466 102.625C128.965 102.806 130.368 102.394 131.83 102.081L131.804 102.058Z" fill="#D0CBC0"/>
<path d="M131.847 102.067C130.571 103.698 129.116 103.879 127.481 102.611C127.417 102.094 127.347 101.524 127.282 101.007C128.802 101.343 130.327 101.731 131.847 102.067Z" fill="#D6D3CC"/>
<path d="M89.3466 125.055C90.0186 127.982 92.6961 129.271 93.8644 131.796C93.955 132.334 93.733 132.65 93.2387 132.685C92.6803 132.205 92.1486 131.748 91.5902 131.268C88.9128 125.005 83.4463 124.587 78.1486 123.808C78.8733 120.654 81.1258 122.73 82.3522 121.896C85.165 121.597 87.5775 122.475 89.3466 125.055Z" fill="#CEC9BD"/>
<path d="M93.0855 132.633C93.2881 132.345 93.5109 132.028 93.7134 131.74C94.8072 132.681 95.901 133.622 97.0215 134.587C96.6786 136.049 97.3584 136.726 98.3851 137.702C102.058 141.186 101.816 146.342 102.743 150.931C102.223 152.888 101.19 154.358 99.6034 155.397C98.0462 153.41 98.5452 150.325 96.1624 148.598C94.3537 147.273 96.0473 146.326 97.0314 145.23C99.0264 143.063 97.7241 143.514 96.7182 141.169C95.534 138.347 93.5242 135.785 93.0791 132.581L93.0855 132.633Z" fill="#D3CFC7"/>
<path d="M99.4561 155.34C100.109 153.5 101.167 152.055 102.592 150.879C102.953 149.758 103.287 148.613 103.648 147.492C105.685 148.367 105.953 150.722 107.13 152.335C107.373 153.144 107.489 153.891 106.723 154.433C107.54 156.983 107.195 160.15 110.549 161.281C111.518 161.606 112.028 163.801 110.976 165.297C106.392 163.847 104.253 158.312 99.6348 156.972C99.5706 156.455 99.5 155.886 99.4359 155.369L99.4561 155.34Z" fill="#CEC5B3"/>
<path d="M114.343 169.627C116.518 171.037 117.979 174.373 121.393 171.951C122.838 170.931 124.365 173.261 125.915 173.855C123.494 174.683 122.032 177.675 118.657 176.573C115.155 175.408 113.572 173.584 114.296 169.633L114.343 169.627Z" fill="#CCC5B6"/>
<path d="M115.154 138.453L118.926 133.088C119.784 133.087 120.389 131.617 121.13 132.208C122.92 133.748 120.905 135.394 121.158 137.046C122.895 135.856 123.713 132.07 126.777 134.845C127.663 137.182 127.953 139.514 126.981 141.872C126.697 142.276 126.333 142.61 125.909 142.847C125.452 143.01 125.003 143.04 124.526 143.046C122.186 143.023 122.549 145.372 121.891 146.796C120.629 149.322 121.934 151.185 123.373 152.979C124.143 154.567 125.951 155.104 126.552 156.871C127.39 159.398 124.236 163.396 129.04 164.428C132.847 163.585 135.415 161.396 136.256 157.028C136.926 153.577 140.963 153.625 141.932 150.478C142.43 150.258 142.886 150.28 143.347 150.539C143.748 150.883 144.02 151.349 144.091 151.919C143.158 157.088 139.421 159.844 136.277 163.157C134.948 164.559 133.926 166.318 132.764 167.911C123.484 168.674 115.454 166.256 110.031 156.96C115.041 151.966 114.261 144.906 115.101 138.408L115.154 138.453Z" fill="#D4AD77"/>
<path d="M115.215 138.55C116.611 143.424 115.116 148.183 115.043 153.003C114.965 156.237 111.326 155.106 110.142 157.156C109.042 156.21 107.942 155.263 106.814 154.294C106.723 153.75 106.658 153.23 106.567 152.686C106.141 147.902 110.74 148.65 112.451 146.216C114.625 144.227 113.014 140.516 115.209 138.498L115.215 138.55Z" fill="#D5B586"/>
<path d="M144.239 151.72C143.971 151.49 143.677 151.237 143.41 151.006C142.865 149.889 144.865 147.716 141.797 147.44C140.18 147.3 139.348 144.637 140.509 143.412C143.191 140.575 142.087 137.261 142.044 134.026C145.123 133.431 145.359 136.879 146.99 138.283C149.17 141.225 148.189 143.903 146.577 146.501C146.418 147.338 146.259 148.174 146.12 148.982C145.491 149.877 144.862 150.773 144.232 151.668L144.239 151.72Z" fill="#D9AB70"/>
<path d="M170.846 140.012C173.357 140.595 173.14 142.126 172.081 143.999C169.161 144.363 166.262 144.698 163.342 145.063C162.871 145.122 162.454 145.042 162.059 144.748C160.795 143.614 159.516 142.56 158.355 144.762C156.638 148.854 154.367 152.328 150.391 154.012C148.813 152.468 149.003 150.914 149.84 148.99C150.787 146.788 152.021 144.788 151.828 141.884C151.643 138.848 158.339 136.35 161.218 138.734C164.497 141.463 167.518 141.139 170.852 140.064L170.846 140.012Z" fill="#C7BBAC"/>
<path d="M176.547 137.535C174.875 137.902 172.953 137.405 171.549 138.974C169.365 138.668 167.063 138.955 165.017 137.658C164.062 137.067 162.236 137.348 162.501 135.447C162.724 133.972 163.595 132.732 165.186 132.481C169.374 131.826 173.216 134.53 177.461 134.527C179.105 134.506 176.693 136.412 176.547 137.535Z" fill="#D1CABF"/>
<path d="M146.669 146.509C146.804 143.764 146.939 141.018 147.081 138.324C147.726 131.448 142.485 128.324 139.149 124.07C137.96 122.539 136.092 121.67 134.539 120.473C138.945 119.74 141.382 123.083 143.754 126.276C145.58 128.725 147.131 131.444 148.789 134.07C148.949 136.7 149.343 139.301 149.189 141.892C149.085 143.742 149.453 146.319 146.675 146.561L146.669 146.509Z" fill="#DED8C5"/>
<path d="M162.471 144.29C162.767 144.544 163.063 144.798 163.331 145.029C160.366 150.349 156.25 153.748 150.327 154.01C153.181 150.69 155.879 147.282 157.899 143.245C159.598 142.425 161.151 142.549 162.485 144.209L162.471 144.29Z" fill="#CEC6BA"/>
<path d="M187.65 131.056C187.508 132.597 188.589 133.25 189.496 134.03C188.158 133.803 186.84 133.547 185.509 133.372C184.157 133.226 182.079 133.564 181.893 132.064C181.546 129.454 181.358 126.982 179.742 124.899C180.602 124.345 181.429 123.716 182.302 123.266C184.679 122.076 185.502 124.679 186.983 125.676C188.077 126.433 188.555 127.214 187.418 128.222C186.147 129.3 185.097 130.245 187.624 131.033L187.65 131.056Z" fill="#D5CFC7"/>
<path d="M112.509 146.331C112.767 150.922 107.173 149.084 106.628 152.798C104.62 151.675 104.477 149.368 103.76 147.449C104.628 142.665 110.104 142.589 111.488 138.295C111.844 140.972 112.18 143.678 112.509 146.331Z" fill="#D5C09D"/>
<path d="M126.775 135.326C124.17 133.78 123.505 136.13 122.69 137.839C122.085 139.127 121.845 141.239 120.098 140.06C118.953 139.307 119.34 137.414 119.778 135.936C120.045 135.007 123.462 132.893 119.135 133.064C122.6 127.097 128.745 126.356 134.105 124.106C134.401 123.99 135.258 124.542 135.263 124.778C135.424 128.765 140.017 129.193 140.541 132.844C140.655 134.147 140.173 135.077 139.149 135.68C137.843 136.133 136.65 135.57 135.429 135.169C132.471 133.087 129.664 135.308 126.802 135.349L126.775 135.326Z" fill="#D9B47D"/>
<path d="M138.496 135.315C139.125 134.42 139.755 133.524 140.384 132.629C140.946 133.112 141.481 133.572 142.042 134.056C144.511 137.199 145.918 140.265 141.98 143.18C140.449 144.32 140.712 146.632 142.116 146.589C148.189 146.437 143.976 149.255 143.429 151.01C143.162 150.78 142.894 150.55 142.6 150.297C137.195 151.208 136.362 150.074 137.132 142.995C137.354 140.359 136.248 137.414 138.516 135.286L138.496 135.315Z" fill="#DAA865"/>
<path d="M138.566 142.692C137.371 146.781 136.818 150.446 142.496 150.399C141.643 152.41 143.096 156.776 138.533 155.177C138.284 155.103 137.428 156.135 137.432 156.743C137.291 162.948 133.343 164.763 128.845 166.011C125.989 160.392 126.161 159.841 131.283 157.827C133.939 156.808 135.674 155.137 134.883 151.666C134.846 149.82 134.977 147.979 135.061 146.144C135.417 143.984 136.482 142.714 138.566 142.692Z" fill="#D9AB70"/>
<path d="M135.192 151.337C137.016 154.44 135.845 159.107 132.63 159.085C126.867 159.011 128.472 162.67 128.844 166.06C124.192 165.081 123.749 163.444 126.185 156.611C127.777 153.98 131.088 154.968 132.852 152.765C133.334 152.203 133.849 151.716 134.484 151.425C134.72 151.396 134.936 151.395 135.172 151.366L135.192 151.337Z" fill="#D29F63"/>
<path d="M124.547 142.137C124.815 142.367 125.083 142.598 125.351 142.828C125.471 143.025 125.612 143.192 125.752 143.359C127.751 144.615 128.056 141.857 129.356 141.537C130.025 141.136 130.752 141.019 131.533 141.133C133.561 141.857 134.754 142.975 133.226 145.331C129.147 146.605 125.717 148.67 124.741 153.729C124.226 154.401 123.678 154.812 123.071 153.779C120.935 151.802 117.983 150.005 121.414 146.594C122.66 145.25 122.002 142.269 124.568 142.108L124.547 142.137Z" fill="#CFA573"/>
<path d="M126.734 135.321C129.413 132.98 132.136 131.188 135.48 134.204C135.59 135.088 135.236 135.713 134.594 136.136C133.757 136.531 132.612 135.407 132.068 137.587C131.366 140.422 129.508 142.819 126.093 141.925C126.32 139.704 126.527 137.513 126.755 135.292L126.734 135.321Z" fill="#D0B793"/>
<path d="M122.934 153.776C123.404 153.717 123.895 153.629 124.393 153.594C126.954 152.088 129.176 149.781 132.348 149.728C133.883 150.354 134.138 151.64 133.921 153.169C132.489 157.222 128.664 155.09 126.224 156.607C124.863 156.039 122.866 156.314 122.934 153.776Z" fill="#CDB399"/>
<path d="M126.031 141.941C127.718 140.092 132.334 140.996 130.255 135.443C129.757 134.131 132.926 133.604 134.206 136.007C135.865 136.83 135.656 138.23 135.217 139.711C134.412 141.529 132.661 141.51 131.243 142.056C130.751 142.144 130.279 142.203 129.787 142.291C128.655 142.432 128.352 143.659 127.621 144.331C125.787 145.96 125.416 144.712 125.447 142.832L125.42 142.809C125.623 142.52 125.847 142.201 126.078 141.935L126.031 141.941Z" fill="#CFBBA3"/>
<path d="M124.598 142.187C122.947 143.186 123.927 146.449 121.438 146.68C121.024 144.695 121.371 142.854 122.606 141.404C123.569 140.279 124.384 140.468 124.624 142.21L124.598 142.187Z" fill="#D0A060"/>
<path d="M162.493 144.261C160.974 143.925 159.482 143.612 157.943 143.305C160.212 141.052 160.875 141.205 162.493 144.261Z" fill="#BFAE9C"/>
<path d="M134.562 139.14C134.454 138.073 134.318 136.982 134.21 135.914C134.616 135.336 135.043 134.729 135.423 134.127C136.743 133.593 137.612 134.619 138.542 135.373C138.657 137.838 137.716 140.276 138.738 142.734C137.878 143.896 136.275 144.465 136.218 146.318C132.3 144.803 134.845 141.611 134.589 139.163L134.562 139.14Z" fill="#D2A876"/>
<path d="M134.512 139.169C135.856 141.345 133.658 144.412 136.138 146.315C136.357 148.078 136.824 149.917 135.299 151.292C133.667 151.417 133.428 149.682 132.6 148.784C132.124 147.448 131.675 146.134 133.023 145.07C133.624 143.178 132.803 142.332 131.207 141.978C132.306 141.025 133.432 140.094 134.532 139.14L134.512 139.169Z" fill="#D3B38F"/>
<path d="M133.225 148.324C133.897 149.319 134.548 150.342 135.22 151.337C134.795 151.943 134.369 152.548 133.943 153.154C133.318 152.153 132.74 151.147 132.115 150.146C132.046 149.208 132.398 148.585 133.231 148.376L133.225 148.324Z" fill="#CAA173"/>
<path d="M133.263 148.381C132.882 148.983 132.502 149.585 132.142 150.158C129.55 151.274 127.881 154.811 124.399 153.581C124.012 152.969 123.315 152.369 123.264 151.768C123.159 148.796 130.188 144.063 132.957 145.144C133.065 146.213 133.154 147.311 133.263 148.381Z" fill="#C88D50"/>
<path d="M125.406 142.851C127.353 146.571 128.117 140.955 129.773 142.333C129.06 143.346 128.375 144.383 127.582 145.327C126.911 146.098 125.99 146.979 125.04 145.882C124.196 144.878 124.855 143.818 125.413 142.904L125.406 142.851Z" fill="#D0B793"/>
</svg>
